<svg width="2094" height="1591" viewBox="0 0 2094 1591" fill="none" xmlns="http://www.w3.org/2000/svg">
<rect x="385" y="760" width="1329" height="831" rx="391" fill="#393939"/>
<path d="M412.396 584.058C415.832 518.627 483.155 477.587 537.167 507.997L972.631 753.178C1029.74 785.331 1029.13 872.288 971.553 907.387L508.382 1189.74C450.805 1224.84 381.057 1180.77 384.69 1111.59L412.396 584.058Z" fill="#393939"/>
<path d="M1681.13 578.058C1677.7 512.627 1610.37 471.587 1556.36 501.997L1120.9 747.178C1063.79 779.331 1064.4 866.288 1121.98 901.387L1585.15 1183.74C1642.72 1218.84 1712.47 1174.77 1708.84 1105.59L1681.13 578.058Z" fill="#393939"/>
<path d="M1016.9 66.28C1030.53 38.9887 1069.47 38.9887 1083.1 66.28L1417.31 735.469C1429.59 760.069 1411.7 789 1384.21 789H715.795C688.297 789 670.407 760.069 682.693 735.469L1016.9 66.28Z" fill="#6B4DD1"/>
<rect x="330" y="695" width="1434" height="129" rx="64.5" fill="#6B4DD1"/>
<path d="M1240.77 527.781C1242.32 523.278 1248.68 523.278 1250.23 527.781L1269.25 583.196C1269.94 585.217 1271.84 586.574 1273.98 586.574H1334.91C1339.82 586.574 1341.79 592.91 1337.74 595.693L1288.93 629.275C1287.08 630.547 1286.3 632.895 1287.03 635.017L1305.79 689.673C1307.35 694.232 1302.19 698.147 1298.22 695.415L1248.33 661.096C1246.63 659.922 1244.37 659.922 1242.67 661.096L1192.78 695.415C1188.81 698.147 1183.65 694.232 1185.21 689.673L1203.97 635.017C1204.7 632.895 1203.92 630.547 1202.07 629.275L1153.26 595.693C1149.21 592.91 1151.18 586.574 1156.09 586.574H1217.02C1219.16 586.574 1221.06 585.217 1221.75 583.196L1240.77 527.781Z" fill="#FFD285"/>
<path d="M927.261 313.09C928.68 308.326 935.426 308.326 936.845 313.09L955.788 376.696C956.42 378.815 958.369 380.269 960.58 380.269H1022.75C1027.49 380.269 1029.57 386.244 1025.85 389.187L974.831 429.629C973.23 430.899 972.562 433.016 973.145 434.975L992.454 499.808C993.849 504.492 988.387 508.19 984.557 505.154L935.159 465.999C933.339 464.557 930.766 464.557 928.947 465.999L879.549 505.154C875.719 508.19 870.256 504.492 871.651 499.808L891.107 434.483C891.614 432.779 891.179 430.934 889.963 429.637L856.775 394.228C853.969 391.235 855.764 386.322 859.839 385.843L903.984 380.653C905.968 380.42 907.623 379.028 908.193 377.114L927.261 313.09Z" fill="#FFD285"/>
<path d="M1334.15 636.727C1331.54 649.801 1328.93 662.876 1326.31 675.95C1330.83 676.855 1335.48 677.573 1340.1 678.068C1361.45 680.408 1383.84 677.895 1404.23 670.172C1465.32 646.386 1497.2 589.517 1517.7 537.645C1519.21 533.763 1520.69 529.785 1522.14 525.708C1509.58 521.237 1497.01 516.766 1484.45 512.295C1483.12 516.026 1481.78 519.652 1480.41 523.175C1462 570.864 1433 616.761 1390.17 632.725C1375.73 638.173 1360.07 639.994 1344.36 638.295C1340.96 637.932 1337.52 637.401 1334.15 636.727Z" fill="#CC3717"/>
<path d="M1724.94 636.727C1727.56 649.801 1730.17 662.876 1732.79 675.95C1728.27 676.855 1723.62 677.573 1718.99 678.068C1697.65 680.408 1675.26 677.895 1654.87 670.172C1593.78 646.386 1561.9 589.517 1541.4 537.645C1539.89 533.763 1538.41 529.785 1536.96 525.708C1549.52 521.237 1562.08 516.766 1574.64 512.295C1575.97 516.026 1577.32 519.652 1578.69 523.175C1597.1 570.864 1626.1 616.761 1668.93 632.725C1683.37 638.173 1699.03 639.994 1714.74 638.295C1718.13 637.932 1721.57 637.401 1724.94 636.727Z" fill="#CC3717"/>
<path d="M1725.07 746.277C1727.69 733.203 1730.3 720.128 1732.92 707.054C1728.4 706.149 1723.75 705.431 1719.13 704.936C1697.78 702.596 1675.39 705.109 1655 712.832C1593.91 736.618 1562.03 793.487 1541.53 845.359C1540.02 849.241 1538.54 853.219 1537.09 857.296C1549.65 861.767 1562.22 866.238 1574.78 870.709C1576.11 866.978 1577.45 863.352 1578.82 859.829C1597.23 812.139 1626.23 766.243 1669.06 750.279C1683.5 744.831 1699.16 743.01 1714.87 744.709C1718.27 745.072 1721.71 745.603 1725.07 746.277Z" fill="#CC3717"/>
<path d="M1347.78 746.277C1345.16 733.203 1342.55 720.128 1339.93 707.054C1344.45 706.149 1349.1 705.431 1353.73 704.936C1375.07 702.596 1397.46 705.109 1417.85 712.832C1478.94 736.618 1510.82 793.487 1531.32 845.359C1532.83 849.241 1534.31 853.219 1535.76 857.296C1523.2 861.767 1510.64 866.238 1498.07 870.709C1496.75 866.978 1495.4 863.352 1494.03 859.829C1475.62 812.139 1446.62 766.243 1403.79 750.279C1389.35 744.831 1373.69 743.01 1357.98 744.709C1354.58 745.072 1351.14 745.603 1347.78 746.277Z" fill="#CC3717"/>
<path d="M987.499 959.019C882.136 999.19 765.376 909.735 772.192 809.998" stroke="#9A9696" stroke-width="16" stroke-linecap="round"/>
<path d="M1107.5 959.019C1212.86 999.19 1329.62 909.735 1322.81 809.998" stroke="#9A9696" stroke-width="16" stroke-linecap="round"/>
<ellipse cx="792.5" cy="1186" rx="173.5" ry="171" fill="#E3B73E"/>
<ellipse cx="1301.5" cy="1186" rx="173.5" ry="171" fill="#E3B73E"/>
<ellipse cx="792.5" cy="1186.5" rx="159.5" ry="156.5" fill="#393939"/>
<ellipse cx="1301.5" cy="1186" rx="158.5" ry="156" fill="#393939"/>
<ellipse cx="672.429" cy="1142.59" rx="41.3214" ry="40.6522" fill="#E1E1E1"/>
<ellipse cx="1210.32" cy="1102.65" rx="41.3214" ry="40.6522" fill="#E1E1E1"/>
<line x1="1584.81" y1="1363.81" x2="1735.81" y2="1360.19" stroke="#9A9696" stroke-width="16" stroke-linecap="round"/>
<line x1="1584.82" y1="1402.82" x2="1702.82" y2="1400.18" stroke="#9A9696" stroke-width="16" stroke-linecap="round"/>
<line x1="8" y1="-8" x2="159.048" y2="-8" transform="matrix(-0.999713 -0.0239452 -0.0239452 0.999713 494 1371)" stroke="#9A9696" stroke-width="16" stroke-linecap="round"/>
<line x1="8" y1="-8" x2="126.034" y2="-8" transform="matrix(-0.999749 -0.0223825 -0.0223825 0.999749 494 1410)" stroke="#9A9696" stroke-width="16" stroke-linecap="round"/>
</svg>
