<svg width="1300" height="1014" viewBox="0 0 1300 1014" fill="none" xmlns="http://www.w3.org/2000/svg">
<g opacity="0.8">
<rect x="92.6873" width="121.207" height="50.6165" rx="11" fill="#E1C3FF" fill-opacity="0.35"/>
<rect x="93.1873" y="0.5" width="120.207" height="49.6165" rx="10.5" stroke="#E1C3FF" stroke-opacity="0.35"/>
<rect x="80.8047" y="119.639" width="121.207" height="50.6165" rx="11" fill="#E1C3FF" fill-opacity="0.35"/>
<rect x="81.3047" y="120.139" width="120.207" height="49.6165" rx="10.5" stroke="#E1C3FF" stroke-opacity="0.35"/>
<rect x="80.8047" y="239.278" width="121.207" height="50.6165" rx="11" fill="#E1C3FF" fill-opacity="0.35"/>
<rect x="81.3047" y="239.778" width="120.207" height="49.6165" rx="10.5" stroke="#E1C3FF" stroke-opacity="0.35"/>
<rect x="78.4277" y="358.917" width="121.207" height="50.6165" rx="11" fill="#E1C3FF" fill-opacity="0.35"/>
<rect x="78.9277" y="359.417" width="120.207" height="49.6165" rx="10.5" stroke="#E1C3FF" stroke-opacity="0.35"/>
<rect x="19.0129" y="59.8196" width="121.207" height="50.6165" rx="11" fill="#E1C3FF" fill-opacity="0.35"/>
<rect x="19.5129" y="60.3196" width="120.207" height="49.6165" rx="10.5" stroke="#E1C3FF" stroke-opacity="0.35"/>
<rect x="7.12988" y="179.458" width="121.207" height="50.6165" rx="11" fill="#E1C3FF" fill-opacity="0.35"/>
<rect x="7.62988" y="179.958" width="120.207" height="49.6165" rx="10.5" stroke="#E1C3FF" stroke-opacity="0.35"/>
<rect x="7.12988" y="299.098" width="121.207" height="50.6165" rx="11" fill="#E1C3FF" fill-opacity="0.35"/>
<rect x="7.62988" y="299.598" width="120.207" height="49.6165" rx="10.5" stroke="#E1C3FF" stroke-opacity="0.35"/>
<rect y="418.736" width="121.207" height="50.6165" rx="11" fill="#E1C3FF" fill-opacity="0.35"/>
<rect x="0.5" y="419.236" width="120.207" height="49.6165" rx="10.5" stroke="#E1C3FF" stroke-opacity="0.35"/>
<rect x="527.605" width="121.207" height="50.6165" rx="11" fill="#E1C3FF" fill-opacity="0.35"/>
<rect x="528.105" y="0.5" width="120.207" height="49.6165" rx="10.5" stroke="#E1C3FF" stroke-opacity="0.35"/>
<rect x="515.722" y="119.639" width="121.207" height="50.6165" rx="11" fill="#E1C3FF" fill-opacity="0.35"/>
<rect x="516.222" y="120.139" width="120.207" height="49.6165" rx="10.5" stroke="#E1C3FF" stroke-opacity="0.35"/>
<rect x="515.722" y="239.278" width="121.207" height="50.6165" rx="11" fill="#E1C3FF" fill-opacity="0.35"/>
<rect x="516.222" y="239.778" width="120.207" height="49.6165" rx="10.5" stroke="#E1C3FF" stroke-opacity="0.35"/>
<rect x="513.345" y="358.917" width="121.207" height="50.6165" rx="11" fill="#E1C3FF" fill-opacity="0.35"/>
<rect x="513.845" y="359.417" width="120.207" height="49.6165" rx="10.5" stroke="#E1C3FF" stroke-opacity="0.35"/>
<rect x="453.93" y="59.8196" width="121.207" height="50.6165" rx="11" fill="#E1C3FF" fill-opacity="0.35"/>
<rect x="454.43" y="60.3196" width="120.207" height="49.6165" rx="10.5" stroke="#E1C3FF" stroke-opacity="0.35"/>
<rect x="442.047" y="179.458" width="121.207" height="50.6165" rx="11" fill="#E1C3FF" fill-opacity="0.35"/>
<rect x="442.547" y="179.958" width="120.207" height="49.6165" rx="10.5" stroke="#E1C3FF" stroke-opacity="0.35"/>
<rect x="442.047" y="299.098" width="121.207" height="50.6165" rx="11" fill="#E1C3FF" fill-opacity="0.35"/>
<rect x="442.547" y="299.598" width="120.207" height="49.6165" rx="10.5" stroke="#E1C3FF" stroke-opacity="0.35"/>
<rect x="434.918" y="418.736" width="121.207" height="50.6165" rx="11" fill="#E1C3FF" fill-opacity="0.35"/>
<rect x="435.418" y="419.236" width="120.207" height="49.6165" rx="10.5" stroke="#E1C3FF" stroke-opacity="0.35"/>
<rect x="237.66" width="121.207" height="50.6165" rx="11" fill="#E1C3FF" fill-opacity="0.35"/>
<rect x="238.16" y="0.5" width="120.207" height="49.6165" rx="10.5" stroke="#E1C3FF" stroke-opacity="0.35"/>
<rect x="225.777" y="119.639" width="121.207" height="50.6165" rx="11" fill="#E1C3FF" fill-opacity="0.35"/>
<rect x="226.277" y="120.139" width="120.207" height="49.6165" rx="10.5" stroke="#E1C3FF" stroke-opacity="0.35"/>
<rect x="225.777" y="239.278" width="121.207" height="50.6165" rx="11" fill="#E1C3FF" fill-opacity="0.35"/>
<rect x="226.277" y="239.778" width="120.207" height="49.6165" rx="10.5" stroke="#E1C3FF" stroke-opacity="0.35"/>
<rect x="223.4" y="358.917" width="121.207" height="50.6165" rx="11" fill="#E1C3FF" fill-opacity="0.35"/>
<rect x="223.9" y="359.417" width="120.207" height="49.6165" rx="10.5" stroke="#E1C3FF" stroke-opacity="0.35"/>
<rect x="163.985" y="59.8196" width="121.207" height="50.6165" rx="11" fill="#E1C3FF" fill-opacity="0.35"/>
<rect x="164.485" y="60.3196" width="120.207" height="49.6165" rx="10.5" stroke="#E1C3FF" stroke-opacity="0.35"/>
<rect x="152.103" y="179.458" width="121.207" height="50.6165" rx="11" fill="#E1C3FF" fill-opacity="0.35"/>
<rect x="152.603" y="179.958" width="120.207" height="49.6165" rx="10.5" stroke="#E1C3FF" stroke-opacity="0.35"/>
<rect x="152.103" y="299.098" width="121.207" height="50.6165" rx="11" fill="#E1C3FF" fill-opacity="0.35"/>
<rect x="152.603" y="299.598" width="120.207" height="49.6165" rx="10.5" stroke="#E1C3FF" stroke-opacity="0.35"/>
<rect x="144.972" y="418.736" width="121.207" height="50.6165" rx="11" fill="#E1C3FF" fill-opacity="0.35"/>
<rect x="145.472" y="419.236" width="120.207" height="49.6165" rx="10.5" stroke="#E1C3FF" stroke-opacity="0.35"/>
<rect x="672.578" width="121.207" height="50.6165" rx="11" fill="#E1C3FF" fill-opacity="0.35"/>
<rect x="673.078" y="0.5" width="120.207" height="49.6165" rx="10.5" stroke="#E1C3FF" stroke-opacity="0.35"/>
<rect x="660.695" y="119.639" width="121.207" height="50.6165" rx="11" fill="#E1C3FF" fill-opacity="0.35"/>
<rect x="661.195" y="120.139" width="120.207" height="49.6165" rx="10.5" stroke="#E1C3FF" stroke-opacity="0.35"/>
<rect x="660.695" y="239.278" width="121.207" height="50.6165" rx="11" fill="#E1C3FF" fill-opacity="0.35"/>
<rect x="661.195" y="239.778" width="120.207" height="49.6165" rx="10.5" stroke="#E1C3FF" stroke-opacity="0.35"/>
<rect x="658.318" y="358.917" width="121.207" height="50.6165" rx="11" fill="#E1C3FF" fill-opacity="0.35"/>
<rect x="658.818" y="359.417" width="120.207" height="49.6165" rx="10.5" stroke="#E1C3FF" stroke-opacity="0.35"/>
<rect x="598.903" y="59.8196" width="121.207" height="50.6165" rx="11" fill="#E1C3FF" fill-opacity="0.35"/>
<rect x="599.403" y="60.3196" width="120.207" height="49.6165" rx="10.5" stroke="#E1C3FF" stroke-opacity="0.35"/>
<rect x="587.02" y="179.458" width="121.207" height="50.6165" rx="11" fill="#E1C3FF" fill-opacity="0.35"/>
<rect x="587.52" y="179.958" width="120.207" height="49.6165" rx="10.5" stroke="#E1C3FF" stroke-opacity="0.35"/>
<rect x="587.02" y="299.098" width="121.207" height="50.6165" rx="11" fill="#E1C3FF" fill-opacity="0.35"/>
<rect x="587.52" y="299.598" width="120.207" height="49.6165" rx="10.5" stroke="#E1C3FF" stroke-opacity="0.35"/>
<rect x="579.891" y="418.736" width="121.207" height="50.6165" rx="11" fill="#E1C3FF" fill-opacity="0.35"/>
<rect x="580.391" y="419.236" width="120.207" height="49.6165" rx="10.5" stroke="#E1C3FF" stroke-opacity="0.35"/>
<rect x="962.523" width="121.207" height="50.6165" rx="11" fill="#E1C3FF" fill-opacity="0.35"/>
<rect x="963.023" y="0.5" width="120.207" height="49.6165" rx="10.5" stroke="#E1C3FF" stroke-opacity="0.35"/>
<rect x="950.64" y="119.639" width="121.207" height="50.6165" rx="11" fill="#E1C3FF" fill-opacity="0.35"/>
<rect x="951.14" y="120.139" width="120.207" height="49.6165" rx="10.5" stroke="#E1C3FF" stroke-opacity="0.35"/>
<rect x="950.64" y="239.278" width="121.207" height="50.6165" rx="11" fill="#E1C3FF" fill-opacity="0.35"/>
<rect x="951.14" y="239.778" width="120.207" height="49.6165" rx="10.5" stroke="#E1C3FF" stroke-opacity="0.35"/>
<rect x="948.263" y="358.917" width="121.207" height="50.6165" rx="11" fill="#E1C3FF" fill-opacity="0.35"/>
<rect x="948.763" y="359.417" width="120.207" height="49.6165" rx="10.5" stroke="#E1C3FF" stroke-opacity="0.35"/>
<rect x="888.848" y="59.8196" width="121.207" height="50.6165" rx="11" fill="#E1C3FF" fill-opacity="0.35"/>
<rect x="889.348" y="60.3196" width="120.207" height="49.6165" rx="10.5" stroke="#E1C3FF" stroke-opacity="0.35"/>
<rect x="876.966" y="179.458" width="121.207" height="50.6165" rx="11" fill="#E1C3FF" fill-opacity="0.35"/>
<rect x="877.466" y="179.958" width="120.207" height="49.6165" rx="10.5" stroke="#E1C3FF" stroke-opacity="0.35"/>
<rect x="865.082" y="299.098" width="121.207" height="50.6165" rx="11" fill="#E1C3FF" fill-opacity="0.35"/>
<rect x="865.582" y="299.598" width="120.207" height="49.6165" rx="10.5" stroke="#E1C3FF" stroke-opacity="0.35"/>
<rect x="857.952" y="418.736" width="121.207" height="50.6165" rx="11" fill="#E1C3FF" fill-opacity="0.35"/>
<rect x="858.452" y="419.236" width="120.207" height="49.6165" rx="10.5" stroke="#E1C3FF" stroke-opacity="0.35"/>
<rect x="382.633" width="121.207" height="50.6165" rx="11" fill="#E1C3FF" fill-opacity="0.35"/>
<rect x="383.133" y="0.5" width="120.207" height="49.6165" rx="10.5" stroke="#E1C3FF" stroke-opacity="0.35"/>
<rect x="370.75" y="119.639" width="121.207" height="50.6165" rx="11" fill="#E1C3FF" fill-opacity="0.35"/>
<rect x="371.25" y="120.139" width="120.207" height="49.6165" rx="10.5" stroke="#E1C3FF" stroke-opacity="0.35"/>
<rect x="370.75" y="239.278" width="121.207" height="50.6165" rx="11" fill="#E1C3FF" fill-opacity="0.35"/>
<rect x="371.25" y="239.778" width="120.207" height="49.6165" rx="10.5" stroke="#E1C3FF" stroke-opacity="0.35"/>
<rect x="368.373" y="358.917" width="121.207" height="50.6165" rx="11" fill="#E1C3FF" fill-opacity="0.35"/>
<rect x="368.873" y="359.417" width="120.207" height="49.6165" rx="10.5" stroke="#E1C3FF" stroke-opacity="0.35"/>
<rect x="308.958" y="59.8196" width="121.207" height="50.6165" rx="11" fill="#E1C3FF" fill-opacity="0.35"/>
<rect x="309.458" y="60.3196" width="120.207" height="49.6165" rx="10.5" stroke="#E1C3FF" stroke-opacity="0.35"/>
<rect x="297.075" y="179.458" width="121.207" height="50.6165" rx="11" fill="#E1C3FF" fill-opacity="0.35"/>
<rect x="297.575" y="179.958" width="120.207" height="49.6165" rx="10.5" stroke="#E1C3FF" stroke-opacity="0.35"/>
<rect x="297.075" y="299.098" width="121.207" height="50.6165" rx="11" fill="#E1C3FF" fill-opacity="0.35"/>
<rect x="297.575" y="299.598" width="120.207" height="49.6165" rx="10.5" stroke="#E1C3FF" stroke-opacity="0.35"/>
<rect x="289.945" y="418.736" width="121.207" height="50.6165" rx="11" fill="#E1C3FF" fill-opacity="0.35"/>
<rect x="290.445" y="419.236" width="120.207" height="49.6165" rx="10.5" stroke="#E1C3FF" stroke-opacity="0.35"/>
<rect x="817.55" width="121.207" height="50.6165" rx="11" fill="#E1C3FF" fill-opacity="0.35"/>
<rect x="818.05" y="0.5" width="120.207" height="49.6165" rx="10.5" stroke="#E1C3FF" stroke-opacity="0.35"/>
<rect x="805.667" y="119.639" width="121.207" height="50.6165" rx="11" fill="#E1C3FF" fill-opacity="0.35"/>
<rect x="806.167" y="120.139" width="120.207" height="49.6165" rx="10.5" stroke="#E1C3FF" stroke-opacity="0.35"/>
<rect x="805.667" y="239.278" width="121.207" height="50.6165" rx="11" fill="#E1C3FF" fill-opacity="0.35"/>
<rect x="806.167" y="239.778" width="120.207" height="49.6165" rx="10.5" stroke="#E1C3FF" stroke-opacity="0.35"/>
<rect x="803.291" y="358.917" width="121.207" height="50.6165" rx="11" fill="#E1C3FF" fill-opacity="0.35"/>
<rect x="803.791" y="359.417" width="120.207" height="49.6165" rx="10.5" stroke="#E1C3FF" stroke-opacity="0.35"/>
<rect x="743.875" y="59.8196" width="121.207" height="50.6165" rx="11" fill="#E1C3FF" fill-opacity="0.35"/>
<rect x="744.375" y="60.3196" width="120.207" height="49.6165" rx="10.5" stroke="#E1C3FF" stroke-opacity="0.35"/>
<rect x="731.992" y="179.458" width="121.207" height="50.6165" rx="11" fill="#E1C3FF" fill-opacity="0.35"/>
<rect x="732.492" y="179.958" width="120.207" height="49.6165" rx="10.5" stroke="#E1C3FF" stroke-opacity="0.35"/>
<rect x="720.109" y="299.098" width="121.207" height="50.6165" rx="11" fill="#E1C3FF" fill-opacity="0.35"/>
<rect x="720.609" y="299.598" width="120.207" height="49.6165" rx="10.5" stroke="#E1C3FF" stroke-opacity="0.35"/>
<rect x="712.979" y="418.736" width="121.207" height="50.6165" rx="11" fill="#E1C3FF" fill-opacity="0.35"/>
<rect x="713.479" y="419.236" width="120.207" height="49.6165" rx="10.5" stroke="#E1C3FF" stroke-opacity="0.35"/>
<rect x="1107.5" width="121.207" height="50.6165" rx="11" fill="#E1C3FF" fill-opacity="0.35"/>
<rect x="1108" y="0.5" width="120.207" height="49.6165" rx="10.5" stroke="#E1C3FF" stroke-opacity="0.35"/>
<rect x="1095.61" y="119.639" width="121.207" height="50.6165" rx="11" fill="#E1C3FF" fill-opacity="0.35"/>
<rect x="1096.11" y="120.139" width="120.207" height="49.6165" rx="10.5" stroke="#E1C3FF" stroke-opacity="0.35"/>
<rect x="1095.61" y="239.278" width="121.207" height="50.6165" rx="11" fill="#E1C3FF" fill-opacity="0.35"/>
<rect x="1096.11" y="239.778" width="120.207" height="49.6165" rx="10.5" stroke="#E1C3FF" stroke-opacity="0.35"/>
<rect x="1093.24" y="358.917" width="121.207" height="50.6165" rx="11" fill="#E1C3FF" fill-opacity="0.35"/>
<rect x="1093.74" y="359.417" width="120.207" height="49.6165" rx="10.5" stroke="#E1C3FF" stroke-opacity="0.35"/>
<rect x="1033.82" y="59.8196" width="121.207" height="50.6165" rx="11" fill="#E1C3FF" fill-opacity="0.35"/>
<rect x="1034.32" y="60.3196" width="120.207" height="49.6165" rx="10.5" stroke="#E1C3FF" stroke-opacity="0.35"/>
<rect x="1021.94" y="179.458" width="121.207" height="50.6165" rx="11" fill="#E1C3FF" fill-opacity="0.35"/>
<rect x="1022.44" y="179.958" width="120.207" height="49.6165" rx="10.5" stroke="#E1C3FF" stroke-opacity="0.35"/>
<rect x="1010.06" y="299.098" width="121.207" height="50.6165" rx="11" fill="#E1C3FF" fill-opacity="0.35"/>
<rect x="1010.56" y="299.598" width="120.207" height="49.6165" rx="10.5" stroke="#E1C3FF" stroke-opacity="0.35"/>
<rect x="1002.92" y="418.736" width="121.207" height="50.6165" rx="11" fill="#E1C3FF" fill-opacity="0.35"/>
<rect x="1003.42" y="419.236" width="120.207" height="49.6165" rx="10.5" stroke="#E1C3FF" stroke-opacity="0.35"/>
<rect x="1178.79" y="59.8196" width="121.207" height="50.6165" rx="11" fill="#E1C3FF" fill-opacity="0.35"/>
<rect x="1179.29" y="60.3196" width="120.207" height="49.6165" rx="10.5" stroke="#E1C3FF" stroke-opacity="0.35"/>
<rect x="1166.91" y="179.458" width="121.207" height="50.6165" rx="11" fill="#E1C3FF" fill-opacity="0.35"/>
<rect x="1167.41" y="179.958" width="120.207" height="49.6165" rx="10.5" stroke="#E1C3FF" stroke-opacity="0.35"/>
<rect x="1155.03" y="299.098" width="121.207" height="50.6165" rx="11" fill="#E1C3FF" fill-opacity="0.35"/>
<rect x="1155.53" y="299.598" width="120.207" height="49.6165" rx="10.5" stroke="#E1C3FF" stroke-opacity="0.35"/>
<rect x="1147.9" y="418.736" width="121.207" height="50.6165" rx="11" fill="#E1C3FF" fill-opacity="0.35"/>
<rect x="1148.4" y="419.236" width="120.207" height="49.6165" rx="10.5" stroke="#E1C3FF" stroke-opacity="0.35"/>
<rect x="90.9761" y="477.353" width="118.969" height="50.6165" rx="11" fill="#E1C3FF" fill-opacity="0.35"/>
<rect x="91.4761" y="477.853" width="117.969" height="49.6165" rx="10.5" stroke="#E1C3FF" stroke-opacity="0.35"/>
<rect x="79.3127" y="596.992" width="118.969" height="50.6165" rx="11" fill="#E1C3FF" fill-opacity="0.35"/>
<rect x="79.8127" y="597.492" width="117.969" height="49.6165" rx="10.5" stroke="#E1C3FF" stroke-opacity="0.35"/>
<rect x="79.3127" y="716.631" width="118.969" height="50.6165" rx="11" fill="#E1C3FF" fill-opacity="0.35"/>
<rect x="79.8127" y="717.131" width="117.969" height="49.6165" rx="10.5" stroke="#E1C3FF" stroke-opacity="0.35"/>
<rect x="76.98" y="836.27" width="118.969" height="50.6165" rx="11" fill="#E1C3FF" fill-opacity="0.35"/>
<rect x="77.48" y="836.77" width="117.969" height="49.6165" rx="10.5" stroke="#E1C3FF" stroke-opacity="0.35"/>
<rect x="18.6619" y="537.173" width="118.969" height="50.6165" rx="11" fill="#E1C3FF" fill-opacity="0.35"/>
<rect x="19.1619" y="537.673" width="117.969" height="49.6165" rx="10.5" stroke="#E1C3FF" stroke-opacity="0.35"/>
<rect x="6.99805" y="656.811" width="118.969" height="50.6165" rx="11" fill="#E1C3FF" fill-opacity="0.35"/>
<rect x="7.49805" y="657.311" width="117.969" height="49.6165" rx="10.5" stroke="#E1C3FF" stroke-opacity="0.35"/>
<rect x="6.99805" y="776.451" width="118.969" height="50.6165" rx="11" fill="#E1C3FF" fill-opacity="0.35"/>
<rect x="7.49805" y="776.951" width="117.969" height="49.6165" rx="10.5" stroke="#E1C3FF" stroke-opacity="0.35"/>
<rect y="896.09" width="118.969" height="50.6165" rx="11" fill="#E1C3FF" fill-opacity="0.35"/>
<rect x="0.5" y="896.59" width="117.969" height="49.6165" rx="10.5" stroke="#E1C3FF" stroke-opacity="0.35"/>
<rect x="517.865" y="477.353" width="118.969" height="50.6165" rx="11" fill="#E1C3FF" fill-opacity="0.35"/>
<rect x="518.365" y="477.853" width="117.969" height="49.6165" rx="10.5" stroke="#E1C3FF" stroke-opacity="0.35"/>
<rect x="506.201" y="596.992" width="118.969" height="50.6165" rx="11" fill="#E1C3FF" fill-opacity="0.35"/>
<rect x="506.701" y="597.492" width="117.969" height="49.6165" rx="10.5" stroke="#E1C3FF" stroke-opacity="0.35"/>
<rect x="506.201" y="716.631" width="118.969" height="50.6165" rx="11" fill="#E1C3FF" fill-opacity="0.35"/>
<rect x="506.701" y="717.131" width="117.969" height="49.6165" rx="10.5" stroke="#E1C3FF" stroke-opacity="0.35"/>
<rect x="503.868" y="836.27" width="118.969" height="50.6165" rx="11" fill="#E1C3FF" fill-opacity="0.35"/>
<rect x="504.368" y="836.77" width="117.969" height="49.6165" rx="10.5" stroke="#E1C3FF" stroke-opacity="0.35"/>
<rect x="445.55" y="537.173" width="118.969" height="50.6165" rx="11" fill="#E1C3FF" fill-opacity="0.35"/>
<rect x="446.05" y="537.673" width="117.969" height="49.6165" rx="10.5" stroke="#E1C3FF" stroke-opacity="0.35"/>
<rect x="433.887" y="656.811" width="118.969" height="50.6165" rx="11" fill="#E1C3FF" fill-opacity="0.35"/>
<rect x="434.387" y="657.311" width="117.969" height="49.6165" rx="10.5" stroke="#E1C3FF" stroke-opacity="0.35"/>
<rect x="433.887" y="776.451" width="118.969" height="50.6165" rx="11" fill="#E1C3FF" fill-opacity="0.35"/>
<rect x="434.387" y="776.951" width="117.969" height="49.6165" rx="10.5" stroke="#E1C3FF" stroke-opacity="0.35"/>
<rect x="426.889" y="896.09" width="118.969" height="50.6165" rx="11" fill="#E1C3FF" fill-opacity="0.35"/>
<rect x="427.389" y="896.59" width="117.969" height="49.6165" rx="10.5" stroke="#E1C3FF" stroke-opacity="0.35"/>
<rect x="233.272" y="477.353" width="118.969" height="50.6165" rx="11" fill="#E1C3FF" fill-opacity="0.35"/>
<rect x="233.772" y="477.853" width="117.969" height="49.6165" rx="10.5" stroke="#E1C3FF" stroke-opacity="0.35"/>
<rect x="221.609" y="596.992" width="118.969" height="50.6165" rx="11" fill="#E1C3FF" fill-opacity="0.35"/>
<rect x="222.109" y="597.492" width="117.969" height="49.6165" rx="10.5" stroke="#E1C3FF" stroke-opacity="0.35"/>
<rect x="221.609" y="716.631" width="118.969" height="50.6165" rx="11" fill="#E1C3FF" fill-opacity="0.35"/>
<rect x="222.109" y="717.131" width="117.969" height="49.6165" rx="10.5" stroke="#E1C3FF" stroke-opacity="0.35"/>
<rect x="219.276" y="836.27" width="118.969" height="50.6165" rx="11" fill="#E1C3FF" fill-opacity="0.35"/>
<rect x="219.776" y="836.77" width="117.969" height="49.6165" rx="10.5" stroke="#E1C3FF" stroke-opacity="0.35"/>
<rect x="160.958" y="537.173" width="118.969" height="50.6165" rx="11" fill="#E1C3FF" fill-opacity="0.35"/>
<rect x="161.458" y="537.673" width="117.969" height="49.6165" rx="10.5" stroke="#E1C3FF" stroke-opacity="0.35"/>
<rect x="149.294" y="656.811" width="118.969" height="50.6165" rx="11" fill="#E1C3FF" fill-opacity="0.35"/>
<rect x="149.794" y="657.311" width="117.969" height="49.6165" rx="10.5" stroke="#E1C3FF" stroke-opacity="0.35"/>
<rect x="149.294" y="776.451" width="118.969" height="50.6165" rx="11" fill="#E1C3FF" fill-opacity="0.35"/>
<rect x="149.794" y="776.951" width="117.969" height="49.6165" rx="10.5" stroke="#E1C3FF" stroke-opacity="0.35"/>
<rect x="142.296" y="896.09" width="118.969" height="50.6165" rx="11" fill="#E1C3FF" fill-opacity="0.35"/>
<rect x="142.796" y="896.59" width="117.969" height="49.6165" rx="10.5" stroke="#E1C3FF" stroke-opacity="0.35"/>
<rect x="660.161" y="477.353" width="118.969" height="50.6165" rx="11" fill="#E1C3FF" fill-opacity="0.35"/>
<rect x="660.661" y="477.853" width="117.969" height="49.6165" rx="10.5" stroke="#E1C3FF" stroke-opacity="0.35"/>
<rect x="648.497" y="596.992" width="118.969" height="50.6165" rx="11" fill="#E1C3FF" fill-opacity="0.35"/>
<rect x="648.997" y="597.492" width="117.969" height="49.6165" rx="10.5" stroke="#E1C3FF" stroke-opacity="0.35"/>
<rect x="648.497" y="716.631" width="118.969" height="50.6165" rx="11" fill="#E1C3FF" fill-opacity="0.35"/>
<rect x="648.997" y="717.131" width="117.969" height="49.6165" rx="10.5" stroke="#E1C3FF" stroke-opacity="0.35"/>
<rect x="646.165" y="836.27" width="118.969" height="50.6165" rx="11" fill="#E1C3FF" fill-opacity="0.35"/>
<rect x="646.665" y="836.77" width="117.969" height="49.6165" rx="10.5" stroke="#E1C3FF" stroke-opacity="0.35"/>
<rect x="587.846" y="537.173" width="118.969" height="50.6165" rx="11" fill="#E1C3FF" fill-opacity="0.35"/>
<rect x="588.346" y="537.673" width="117.969" height="49.6165" rx="10.5" stroke="#E1C3FF" stroke-opacity="0.35"/>
<rect x="576.183" y="656.811" width="118.969" height="50.6165" rx="11" fill="#E1C3FF" fill-opacity="0.35"/>
<rect x="576.683" y="657.311" width="117.969" height="49.6165" rx="10.5" stroke="#E1C3FF" stroke-opacity="0.35"/>
<rect x="576.183" y="776.451" width="118.969" height="50.6165" rx="11" fill="#E1C3FF" fill-opacity="0.35"/>
<rect x="576.683" y="776.951" width="117.969" height="49.6165" rx="10.5" stroke="#E1C3FF" stroke-opacity="0.35"/>
<rect x="569.185" y="896.09" width="118.969" height="50.6165" rx="11" fill="#E1C3FF" fill-opacity="0.35"/>
<rect x="569.685" y="896.59" width="117.969" height="49.6165" rx="10.5" stroke="#E1C3FF" stroke-opacity="0.35"/>
<rect x="944.753" y="477.353" width="118.969" height="50.6165" rx="11" fill="#E1C3FF" fill-opacity="0.35"/>
<rect x="945.253" y="477.853" width="117.969" height="49.6165" rx="10.5" stroke="#E1C3FF" stroke-opacity="0.35"/>
<rect x="933.089" y="596.992" width="118.969" height="50.6165" rx="11" fill="#E1C3FF" fill-opacity="0.35"/>
<rect x="933.589" y="597.492" width="117.969" height="49.6165" rx="10.5" stroke="#E1C3FF" stroke-opacity="0.35"/>
<rect x="933.089" y="716.631" width="118.969" height="50.6165" rx="11" fill="#E1C3FF" fill-opacity="0.35"/>
<rect x="933.589" y="717.131" width="117.969" height="49.6165" rx="10.5" stroke="#E1C3FF" stroke-opacity="0.35"/>
<rect x="930.757" y="836.27" width="118.969" height="50.6165" rx="11" fill="#E1C3FF" fill-opacity="0.35"/>
<rect x="931.257" y="836.77" width="117.969" height="49.6165" rx="10.5" stroke="#E1C3FF" stroke-opacity="0.35"/>
<rect x="872.438" y="537.173" width="118.969" height="50.6165" rx="11" fill="#E1C3FF" fill-opacity="0.35"/>
<rect x="872.938" y="537.673" width="117.969" height="49.6165" rx="10.5" stroke="#E1C3FF" stroke-opacity="0.35"/>
<rect x="860.775" y="656.811" width="118.969" height="50.6165" rx="11" fill="#E1C3FF" fill-opacity="0.35"/>
<rect x="861.275" y="657.311" width="117.969" height="49.6165" rx="10.5" stroke="#E1C3FF" stroke-opacity="0.35"/>
<rect x="849.111" y="776.451" width="118.969" height="50.6165" rx="11" fill="#E1C3FF" fill-opacity="0.35"/>
<rect x="849.611" y="776.951" width="117.969" height="49.6165" rx="10.5" stroke="#E1C3FF" stroke-opacity="0.35"/>
<rect x="842.113" y="896.09" width="118.969" height="50.6165" rx="11" fill="#E1C3FF" fill-opacity="0.35"/>
<rect x="842.613" y="896.59" width="117.969" height="49.6165" rx="10.5" stroke="#E1C3FF" stroke-opacity="0.35"/>
<rect x="375.569" y="477.353" width="118.969" height="50.6165" rx="11" fill="#E1C3FF" fill-opacity="0.35"/>
<rect x="376.069" y="477.853" width="117.969" height="49.6165" rx="10.5" stroke="#E1C3FF" stroke-opacity="0.35"/>
<rect x="363.905" y="596.992" width="118.969" height="50.6165" rx="11" fill="#E1C3FF" fill-opacity="0.35"/>
<rect x="364.405" y="597.492" width="117.969" height="49.6165" rx="10.5" stroke="#E1C3FF" stroke-opacity="0.35"/>
<rect x="363.905" y="716.631" width="118.969" height="50.6165" rx="11" fill="#E1C3FF" fill-opacity="0.35"/>
<rect x="364.405" y="717.131" width="117.969" height="49.6165" rx="10.5" stroke="#E1C3FF" stroke-opacity="0.35"/>
<rect x="361.572" y="836.27" width="118.969" height="50.6165" rx="11" fill="#E1C3FF" fill-opacity="0.35"/>
<rect x="362.072" y="836.77" width="117.969" height="49.6165" rx="10.5" stroke="#E1C3FF" stroke-opacity="0.35"/>
<rect x="303.254" y="537.173" width="118.969" height="50.6165" rx="11" fill="#E1C3FF" fill-opacity="0.35"/>
<rect x="303.754" y="537.673" width="117.969" height="49.6165" rx="10.5" stroke="#E1C3FF" stroke-opacity="0.35"/>
<rect x="291.591" y="656.811" width="118.969" height="50.6165" rx="11" fill="#E1C3FF" fill-opacity="0.35"/>
<rect x="292.091" y="657.311" width="117.969" height="49.6165" rx="10.5" stroke="#E1C3FF" stroke-opacity="0.35"/>
<rect x="291.591" y="776.451" width="118.969" height="50.6165" rx="11" fill="#E1C3FF" fill-opacity="0.35"/>
<rect x="292.091" y="776.951" width="117.969" height="49.6165" rx="10.5" stroke="#E1C3FF" stroke-opacity="0.35"/>
<rect x="284.593" y="896.09" width="118.969" height="50.6165" rx="11" fill="#E1C3FF" fill-opacity="0.35"/>
<rect x="285.093" y="896.59" width="117.969" height="49.6165" rx="10.5" stroke="#E1C3FF" stroke-opacity="0.35"/>
<rect x="802.457" y="477.353" width="118.969" height="50.6165" rx="11" fill="#E1C3FF" fill-opacity="0.35"/>
<rect x="802.957" y="477.853" width="117.969" height="49.6165" rx="10.5" stroke="#E1C3FF" stroke-opacity="0.35"/>
<rect x="790.793" y="596.992" width="118.969" height="50.6165" rx="11" fill="#E1C3FF" fill-opacity="0.35"/>
<rect x="791.293" y="597.492" width="117.969" height="49.6165" rx="10.5" stroke="#E1C3FF" stroke-opacity="0.35"/>
<rect x="790.793" y="716.631" width="118.969" height="50.6165" rx="11" fill="#E1C3FF" fill-opacity="0.35"/>
<rect x="791.293" y="717.131" width="117.969" height="49.6165" rx="10.5" stroke="#E1C3FF" stroke-opacity="0.35"/>
<rect x="788.461" y="836.27" width="118.969" height="50.6165" rx="11" fill="#E1C3FF" fill-opacity="0.35"/>
<rect x="788.961" y="836.77" width="117.969" height="49.6165" rx="10.5" stroke="#E1C3FF" stroke-opacity="0.35"/>
<rect x="730.143" y="537.173" width="118.969" height="50.6165" rx="11" fill="#E1C3FF" fill-opacity="0.35"/>
<rect x="730.643" y="537.673" width="117.969" height="49.6165" rx="10.5" stroke="#E1C3FF" stroke-opacity="0.35"/>
<rect x="718.479" y="656.811" width="118.969" height="50.6165" rx="11" fill="#E1C3FF" fill-opacity="0.35"/>
<rect x="718.979" y="657.311" width="117.969" height="49.6165" rx="10.5" stroke="#E1C3FF" stroke-opacity="0.35"/>
<rect x="706.815" y="776.451" width="118.969" height="50.6165" rx="11" fill="#E1C3FF" fill-opacity="0.35"/>
<rect x="707.315" y="776.951" width="117.969" height="49.6165" rx="10.5" stroke="#E1C3FF" stroke-opacity="0.35"/>
<rect x="699.816" y="896.09" width="118.969" height="50.6165" rx="11" fill="#E1C3FF" fill-opacity="0.35"/>
<rect x="700.316" y="896.59" width="117.969" height="49.6165" rx="10.5" stroke="#E1C3FF" stroke-opacity="0.35"/>
<rect x="1087.05" y="477.353" width="118.969" height="50.6165" rx="11" fill="#E1C3FF" fill-opacity="0.35"/>
<rect x="1087.55" y="477.853" width="117.969" height="49.6165" rx="10.5" stroke="#E1C3FF" stroke-opacity="0.35"/>
<rect x="1075.39" y="596.992" width="118.969" height="50.6165" rx="11" fill="#E1C3FF" fill-opacity="0.35"/>
<rect x="1075.89" y="597.492" width="117.969" height="49.6165" rx="10.5" stroke="#E1C3FF" stroke-opacity="0.35"/>
<rect x="1075.39" y="716.631" width="118.969" height="50.6165" rx="11" fill="#E1C3FF" fill-opacity="0.35"/>
<rect x="1075.89" y="717.131" width="117.969" height="49.6165" rx="10.5" stroke="#E1C3FF" stroke-opacity="0.35"/>
<rect x="1073.05" y="836.27" width="118.969" height="50.6165" rx="11" fill="#E1C3FF" fill-opacity="0.35"/>
<rect x="1073.55" y="836.77" width="117.969" height="49.6165" rx="10.5" stroke="#E1C3FF" stroke-opacity="0.35"/>
<rect x="1014.73" y="537.173" width="118.969" height="50.6165" rx="11" fill="#E1C3FF" fill-opacity="0.35"/>
<rect x="1015.23" y="537.673" width="117.969" height="49.6165" rx="10.5" stroke="#E1C3FF" stroke-opacity="0.35"/>
<rect x="1003.07" y="656.811" width="118.969" height="50.6165" rx="11" fill="#E1C3FF" fill-opacity="0.35"/>
<rect x="1003.57" y="657.311" width="117.969" height="49.6165" rx="10.5" stroke="#E1C3FF" stroke-opacity="0.35"/>
<rect x="991.408" y="776.451" width="118.969" height="50.6165" rx="11" fill="#E1C3FF" fill-opacity="0.35"/>
<rect x="991.908" y="776.951" width="117.969" height="49.6165" rx="10.5" stroke="#E1C3FF" stroke-opacity="0.35"/>
<rect x="984.409" y="896.09" width="118.969" height="50.6165" rx="11" fill="#E1C3FF" fill-opacity="0.35"/>
<rect x="984.909" y="896.59" width="117.969" height="49.6165" rx="10.5" stroke="#E1C3FF" stroke-opacity="0.35"/>
<rect x="1157.03" y="537.173" width="118.969" height="50.6165" rx="11" fill="#E1C3FF" fill-opacity="0.35"/>
<rect x="1157.53" y="537.673" width="117.969" height="49.6165" rx="10.5" stroke="#E1C3FF" stroke-opacity="0.35"/>
<rect x="1145.37" y="656.811" width="118.969" height="50.6165" rx="11" fill="#E1C3FF" fill-opacity="0.35"/>
<rect x="1145.87" y="657.311" width="117.969" height="49.6165" rx="10.5" stroke="#E1C3FF" stroke-opacity="0.35"/>
<rect x="1133.7" y="776.451" width="118.969" height="50.6165" rx="11" fill="#E1C3FF" fill-opacity="0.35"/>
<rect x="1134.2" y="776.951" width="117.969" height="49.6165" rx="10.5" stroke="#E1C3FF" stroke-opacity="0.35"/>
<rect x="1126.71" y="896.09" width="118.969" height="50.6165" rx="11" fill="#E1C3FF" fill-opacity="0.35"/>
<rect x="1127.21" y="896.59" width="117.969" height="49.6165" rx="10.5" stroke="#E1C3FF" stroke-opacity="0.35"/>
</g>
</svg>
