<svg width="53" height="113" viewBox="0 0 53 113" fill="none" xmlns="http://www.w3.org/2000/svg">
<g clip-path="url(#clip0_625_4727)">
<path d="M4.6875 0.5H48.3125C49.5239 0.5 50.5977 0.821961 51.3535 1.31543C52.1138 1.81185 52.5 2.43953 52.5 3.06055V109.939C52.5 110.56 52.1138 111.188 51.3535 111.685C50.5977 112.178 49.5239 112.5 48.3125 112.5H4.6875C3.4761 112.5 2.40226 112.178 1.64648 111.685C0.886203 111.188 0.5 110.56 0.5 109.939V3.06055C0.5 2.43953 0.886203 1.81185 1.64648 1.31543C2.40226 0.821961 3.4761 0.5 4.6875 0.5Z" fill="#0A8CBF" fill-opacity="0.8" stroke="#225FA0"/>
<path d="M42.5441 71.9865V41.0134C42.5441 41.0134 36.6806 40.6279 33.4932 39.4458C30.3058 38.2638 26.2201 34.9594 26.2201 34.9594C26.2201 34.9594 22.4894 38.2638 19.2705 39.4458C16.0514 40.6279 9.73462 41.0134 9.73462 41.0134V71.9865C9.73462 71.9865 15.9172 72.3096 19.2705 73.5541C22.5687 74.7782 26.2201 78.0406 26.2201 78.0406C26.2201 78.0406 30.3058 74.7362 33.4932 73.5541C36.6806 72.372 42.5441 71.9865 42.5441 71.9865Z" fill="#225FA0"/>
<path d="M44.7735 8.29358H10.3416C10.3416 8.29358 11.4712 12.8787 15.2916 14.8149C18.697 16.5406 22.2974 17.5621 27.3755 17.5916C32.5861 17.622 36.117 16.9316 39.8234 14.8149C43.2461 12.8601 44.7735 8.29358 44.7735 8.29358Z" fill="#225FA0"/>
<path d="M44.7735 103.638H10.3416C10.3416 103.638 11.4712 99.0534 15.2916 97.1172C18.697 95.3915 22.2974 94.37 27.3755 94.3404C32.5861 94.3101 36.117 95.0004 39.8234 97.1172C43.2461 99.072 44.7735 103.638 44.7735 103.638Z" fill="#225FA0"/>
</g>
<defs>
<clipPath id="clip0_625_4727">
<rect width="53" height="113" fill="white"/>
</clipPath>
</defs>
</svg>
