<svg width="2094" height="1591" viewBox="0 0 2094 1591" fill="none" xmlns="http://www.w3.org/2000/svg">
<rect x="385" y="760" width="1329" height="831" rx="391" fill="#393939"/>
<path d="M412.396 584.058C415.832 518.627 483.155 477.587 537.167 507.997L972.631 753.178C1029.74 785.331 1029.13 872.288 971.553 907.387L508.382 1189.74C450.805 1224.84 381.057 1180.77 384.69 1111.59L412.396 584.058Z" fill="#393939"/>
<path d="M1681.13 578.058C1677.7 512.627 1610.37 471.587 1556.36 501.997L1120.9 747.178C1063.79 779.331 1064.4 866.288 1121.98 901.387L1585.15 1183.74C1642.72 1218.84 1712.47 1174.77 1708.84 1105.59L1681.13 578.058Z" fill="#393939"/>
<path d="M1016.9 66.28C1030.53 38.9887 1069.47 38.9887 1083.1 66.28L1417.31 735.469C1429.59 760.069 1411.7 789 1384.21 789H715.795C688.297 789 670.407 760.069 682.693 735.469L1016.9 66.28Z" fill="#6B4DD1"/>
<rect x="330" y="695" width="1434" height="129" rx="64.5" fill="#6B4DD1"/>
<path d="M1240.77 527.781C1242.32 523.278 1248.68 523.278 1250.23 527.781L1269.25 583.196C1269.94 585.217 1271.84 586.574 1273.98 586.574H1334.91C1339.82 586.574 1341.79 592.91 1337.74 595.693L1288.93 629.275C1287.08 630.547 1286.3 632.895 1287.03 635.017L1305.79 689.673C1307.35 694.232 1302.19 698.147 1298.22 695.415L1248.33 661.096C1246.63 659.922 1244.37 659.922 1242.67 661.096L1192.78 695.415C1188.81 698.147 1183.65 694.232 1185.21 689.673L1203.97 635.017C1204.7 632.895 1203.92 630.547 1202.07 629.275L1153.26 595.693C1149.21 592.91 1151.18 586.574 1156.09 586.574H1217.02C1219.16 586.574 1221.06 585.217 1221.75 583.196L1240.77 527.781Z" fill="#FFD285"/>
<path d="M927.261 313.09C928.68 308.326 935.426 308.326 936.845 313.09L955.788 376.696C956.42 378.815 958.369 380.269 960.58 380.269H1022.75C1027.49 380.269 1029.57 386.244 1025.85 389.187L974.831 429.629C973.23 430.899 972.562 433.016 973.145 434.975L992.454 499.808C993.849 504.492 988.387 508.19 984.557 505.154L935.159 465.999C933.339 464.557 930.766 464.557 928.947 465.999L879.549 505.154C875.719 508.19 870.256 504.492 871.651 499.808L891.107 434.483C891.614 432.779 891.179 430.934 889.963 429.637L856.775 394.228C853.969 391.235 855.764 386.322 859.839 385.843L903.984 380.653C905.968 380.42 907.623 379.028 908.193 377.114L927.261 313.09Z" fill="#FFD285"/>
<path d="M969 1154C969 1176.46 964.512 1198.69 955.793 1219.44C947.074 1240.19 934.294 1259.04 918.183 1274.92C902.072 1290.79 882.946 1303.39 861.896 1311.98C840.846 1320.58 818.284 1325 795.5 1325C772.716 1325 750.154 1320.58 729.104 1311.98C708.054 1303.39 688.928 1290.79 672.817 1274.92C656.706 1259.04 643.926 1240.19 635.207 1219.44C626.488 1198.69 622 1176.46 622 1154L795.5 1154H969Z" fill="#E3B73E"/>
<path d="M1478 1154C1478 1176.46 1473.51 1198.69 1464.79 1219.44C1456.07 1240.19 1443.29 1259.04 1427.18 1274.92C1411.07 1290.79 1391.95 1303.39 1370.9 1311.98C1349.85 1320.58 1327.28 1325 1304.5 1325C1281.72 1325 1259.15 1320.58 1238.1 1311.98C1217.05 1303.39 1197.93 1290.79 1181.82 1274.92C1165.71 1259.04 1152.93 1240.19 1144.21 1219.44C1135.49 1198.69 1131 1176.46 1131 1154L1304.5 1154H1478Z" fill="#E3B73E"/>
<ellipse cx="769" cy="1165" rx="137" ry="135" fill="#393939"/>
<ellipse cx="1289" cy="1164.5" rx="137" ry="134.5" fill="#393939"/>
<ellipse cx="888.321" cy="1194.65" rx="41.3214" ry="40.6522" fill="#E1E1E1"/>
<ellipse cx="1402.32" cy="1194.65" rx="41.3214" ry="40.6522" fill="#E1E1E1"/>
<line x1="1587.81" y1="1331.81" x2="1738.81" y2="1328.19" stroke="#9A9696" stroke-width="16" stroke-linecap="round"/>
<line x1="1587.82" y1="1370.82" x2="1705.82" y2="1368.18" stroke="#9A9696" stroke-width="16" stroke-linecap="round"/>
<line x1="8" y1="-8" x2="159.048" y2="-8" transform="matrix(-0.999713 -0.0239452 -0.0239452 0.999713 497 1339)" stroke="#9A9696" stroke-width="16" stroke-linecap="round"/>
<line x1="8" y1="-8" x2="126.034" y2="-8" transform="matrix(-0.999749 -0.0223825 -0.0223825 0.999749 497 1378)" stroke="#9A9696" stroke-width="16" stroke-linecap="round"/>
</svg>
