<svg width="430" height="932" viewBox="0 0 430 932" fill="none" xmlns="http://www.w3.org/2000/svg">
<g clip-path="url(#clip0_456_1660)">
<rect width="430" height="932" fill="#FCFCFC"/>
<rect x="-57.5" y="-0.5" width="788.104" height="403" stroke="black"/>
<rect x="-1.73853" y="-1" width="73.5728" height="43.5686" rx="11" fill="#E1C3FF" fill-opacity="0.25"/>
<rect x="-1.23853" y="-0.5" width="72.5728" height="42.5686" rx="10.5" stroke="#E1C3FF" stroke-opacity="0.25"/>
<rect x="-8.95142" y="101.98" width="73.5728" height="43.5686" rx="11" fill="#E1C3FF" fill-opacity="0.05"/>
<rect x="-8.45142" y="102.48" width="72.5728" height="42.5686" rx="10.5" stroke="#E1C3FF" stroke-opacity="0.05"/>
<rect x="-8.95142" y="204.961" width="73.5728" height="43.5686" rx="11" fill="#E1C3FF" fill-opacity="0.05"/>
<rect x="-8.45142" y="205.461" width="72.5728" height="42.5686" rx="10.5" stroke="#E1C3FF" stroke-opacity="0.25"/>
<rect x="-10.394" y="307.941" width="73.5728" height="43.5686" rx="11" fill="#E1C3FF" fill-opacity="0.25"/>
<rect x="-9.89404" y="308.441" width="72.5728" height="42.5686" rx="10.5" stroke="#E1C3FF" stroke-opacity="0.25"/>
<rect x="-46.4592" y="50.4902" width="73.5728" height="43.5686" rx="11" fill="#E1C3FF" fill-opacity="0.25"/>
<rect x="-45.9592" y="50.9902" width="72.5728" height="42.5686" rx="10.5" stroke="#E1C3FF" stroke-opacity="0.25"/>
<rect x="-53.6721" y="153.47" width="73.5728" height="43.5686" rx="11" fill="#E1C3FF" fill-opacity="0.25"/>
<rect x="-53.1721" y="153.97" width="72.5728" height="42.5686" rx="10.5" stroke="#E1C3FF" stroke-opacity="0.25"/>
<rect x="-53.6721" y="256.451" width="73.5728" height="43.5686" rx="11" fill="#E1C3FF" fill-opacity="0.25"/>
<rect x="-53.1721" y="256.951" width="72.5728" height="42.5686" rx="10.5" stroke="#E1C3FF" stroke-opacity="0.25"/>
<rect x="-58" y="359.431" width="73.5728" height="43.5686" rx="11" fill="#E1C3FF" fill-opacity="0.25"/>
<rect x="-57.5" y="359.931" width="72.5728" height="42.5686" rx="10.5" stroke="#E1C3FF" stroke-opacity="0.25"/>
<rect x="262.258" y="-1" width="73.5728" height="43.5686" rx="11" fill="#E1C3FF" fill-opacity="0.25"/>
<rect x="262.758" y="-0.5" width="72.5728" height="42.5686" rx="10.5" stroke="#E1C3FF" stroke-opacity="0.25"/>
<rect x="255.045" y="101.98" width="73.5728" height="43.5686" rx="11" fill="#E1C3FF" fill-opacity="0.25"/>
<rect x="255.545" y="102.48" width="72.5728" height="42.5686" rx="10.5" stroke="#E1C3FF" stroke-opacity="0.25"/>
<rect x="255.045" y="204.961" width="73.5728" height="43.5686" rx="11" fill="#E1C3FF" fill-opacity="0.25"/>
<rect x="255.545" y="205.461" width="72.5728" height="42.5686" rx="10.5" stroke="#E1C3FF" stroke-opacity="0.25"/>
<rect x="253.602" y="307.941" width="73.5728" height="43.5686" rx="11" fill="#E1C3FF" fill-opacity="0.25"/>
<rect x="254.102" y="308.441" width="72.5728" height="42.5686" rx="10.5" stroke="#E1C3FF" stroke-opacity="0.25"/>
<rect x="217.537" y="50.4902" width="73.5728" height="43.5686" rx="11" fill="#E1C3FF" fill-opacity="0.25"/>
<rect x="218.037" y="50.9902" width="72.5728" height="42.5686" rx="10.5" stroke="#E1C3FF" stroke-opacity="0.25"/>
<rect x="210.324" y="153.47" width="73.5728" height="43.5686" rx="11" fill="#E1C3FF" fill-opacity="0.05"/>
<rect x="210.824" y="153.97" width="72.5728" height="42.5686" rx="10.5" stroke="#E1C3FF" stroke-opacity="0.25"/>
<rect x="210.324" y="256.451" width="73.5728" height="43.5686" rx="11" fill="#E1C3FF" fill-opacity="0.25"/>
<rect x="210.824" y="256.951" width="72.5728" height="42.5686" rx="10.5" stroke="#E1C3FF" stroke-opacity="0.25"/>
<rect x="205.997" y="359.431" width="73.5728" height="43.5686" rx="11" fill="#E1C3FF" fill-opacity="0.25"/>
<rect x="206.497" y="359.931" width="72.5728" height="42.5686" rx="10.5" stroke="#E1C3FF" stroke-opacity="0.25"/>
<rect x="86.2604" y="-1" width="73.5728" height="43.5686" rx="11" fill="#E1C3FF" fill-opacity="0.25"/>
<rect x="86.7604" y="-0.5" width="72.5728" height="42.5686" rx="10.5" stroke="#E1C3FF" stroke-opacity="0.25"/>
<rect x="79.0474" y="101.98" width="73.5728" height="43.5686" rx="11" fill="#E1C3FF" fill-opacity="0.05"/>
<rect x="79.5474" y="102.48" width="72.5728" height="42.5686" rx="10.5" stroke="#E1C3FF" stroke-opacity="0.25"/>
<rect x="79.0474" y="204.961" width="73.5728" height="43.5686" rx="11" fill="#E1C3FF" fill-opacity="0.25"/>
<rect x="79.5474" y="205.461" width="72.5728" height="42.5686" rx="10.5" stroke="#E1C3FF" stroke-opacity="0.25"/>
<rect x="77.6047" y="307.941" width="73.5728" height="43.5686" rx="11" fill="#E1C3FF" fill-opacity="0.05"/>
<rect x="78.1047" y="308.441" width="72.5728" height="42.5686" rx="10.5" stroke="#E1C3FF" stroke-opacity="0.25"/>
<rect x="41.5397" y="50.4902" width="73.5728" height="43.5686" rx="11" fill="#E1C3FF" fill-opacity="0.25"/>
<rect x="42.0397" y="50.9902" width="72.5728" height="42.5686" rx="10.5" stroke="#E1C3FF" stroke-opacity="0.25"/>
<rect x="34.3267" y="153.47" width="73.5728" height="43.5686" rx="11" fill="#E1C3FF" fill-opacity="0.25"/>
<rect x="34.8267" y="153.97" width="72.5728" height="42.5686" rx="10.5" stroke="#E1C3FF" stroke-opacity="0.25"/>
<rect x="34.3267" y="256.451" width="73.5728" height="43.5686" rx="11" fill="#E1C3FF" fill-opacity="0.05"/>
<rect x="34.8267" y="256.951" width="72.5728" height="42.5686" rx="10.5" stroke="#E1C3FF" stroke-opacity="0.25"/>
<rect x="29.9988" y="359.431" width="73.5728" height="43.5686" rx="11" fill="#E1C3FF" fill-opacity="0.05"/>
<rect x="30.4988" y="359.931" width="72.5728" height="42.5686" rx="10.5" stroke="#E1C3FF" stroke-opacity="0.25"/>
<rect x="350.257" y="-1" width="73.5728" height="43.5686" rx="11" fill="#E1C3FF" fill-opacity="0.25"/>
<rect x="350.757" y="-0.5" width="72.5728" height="42.5686" rx="10.5" stroke="#E1C3FF" stroke-opacity="0.25"/>
<rect x="343.044" y="101.98" width="73.5728" height="43.5686" rx="11" fill="#E1C3FF" fill-opacity="0.05"/>
<rect x="343.544" y="102.48" width="72.5728" height="42.5686" rx="10.5" stroke="#E1C3FF" stroke-opacity="0.25"/>
<rect x="343.044" y="204.961" width="73.5728" height="43.5686" rx="11" fill="#E1C3FF" fill-opacity="0.05"/>
<rect x="343.544" y="205.461" width="72.5728" height="42.5686" rx="10.5" stroke="#E1C3FF" stroke-opacity="0.25"/>
<rect x="341.601" y="307.941" width="73.5728" height="43.5686" rx="11" fill="#E1C3FF" fill-opacity="0.05"/>
<rect x="342.101" y="308.441" width="72.5728" height="42.5686" rx="10.5" stroke="#E1C3FF" stroke-opacity="0.25"/>
<rect x="305.536" y="50.4902" width="73.5728" height="43.5686" rx="11" fill="#E1C3FF" fill-opacity="0.25"/>
<rect x="306.036" y="50.9902" width="72.5728" height="42.5686" rx="10.5" stroke="#E1C3FF" stroke-opacity="0.25"/>
<rect x="298.323" y="153.47" width="73.5728" height="43.5686" rx="11" fill="#E1C3FF" fill-opacity="0.25"/>
<rect x="298.823" y="153.97" width="72.5728" height="42.5686" rx="10.5" stroke="#E1C3FF" stroke-opacity="0.25"/>
<rect x="298.323" y="256.451" width="73.5728" height="43.5686" rx="11" fill="#E1C3FF" fill-opacity="0.25"/>
<rect x="298.823" y="256.951" width="72.5728" height="42.5686" rx="10.5" stroke="#E1C3FF" stroke-opacity="0.25"/>
<rect x="293.995" y="359.431" width="73.5728" height="43.5686" rx="11" fill="#E1C3FF" fill-opacity="0.05"/>
<rect x="294.495" y="359.931" width="72.5728" height="42.5686" rx="10.5" stroke="#E1C3FF" stroke-opacity="0.25"/>
<rect x="174.259" y="-1" width="73.5728" height="43.5686" rx="11" fill="#E1C3FF" fill-opacity="0.25"/>
<rect x="174.759" y="-0.5" width="72.5728" height="42.5686" rx="10.5" stroke="#E1C3FF" stroke-opacity="0.25"/>
<rect x="167.046" y="101.98" width="73.5728" height="43.5686" rx="11" fill="#E1C3FF" fill-opacity="0.05"/>
<rect x="167.546" y="102.48" width="72.5728" height="42.5686" rx="10.5" stroke="#E1C3FF" stroke-opacity="0.25"/>
<rect x="167.046" y="204.961" width="73.5728" height="43.5686" rx="11" fill="#E1C3FF" fill-opacity="0.25"/>
<rect x="167.546" y="205.461" width="72.5728" height="42.5686" rx="10.5" stroke="#E1C3FF" stroke-opacity="0.25"/>
<rect x="165.604" y="307.941" width="73.5728" height="43.5686" rx="11" fill="#E1C3FF" fill-opacity="0.25"/>
<rect x="166.104" y="308.441" width="72.5728" height="42.5686" rx="10.5" stroke="#E1C3FF" stroke-opacity="0.25"/>
<rect x="129.538" y="50.4902" width="73.5728" height="43.5686" rx="11" fill="#E1C3FF" fill-opacity="0.05"/>
<rect x="130.038" y="50.9902" width="72.5728" height="42.5686" rx="10.5" stroke="#E1C3FF" stroke-opacity="0.25"/>
<rect x="122.325" y="153.47" width="73.5728" height="43.5686" rx="11" fill="#E1C3FF" fill-opacity="0.1"/>
<rect x="122.825" y="153.97" width="72.5728" height="42.5686" rx="10.5" stroke="#E1C3FF" stroke-opacity="0.25"/>
<rect x="122.325" y="256.451" width="73.5728" height="43.5686" rx="11" fill="#E1C3FF" fill-opacity="0.25"/>
<rect x="122.825" y="256.951" width="72.5728" height="42.5686" rx="10.5" stroke="#E1C3FF" stroke-opacity="0.25"/>
<rect x="117.998" y="359.431" width="73.5728" height="43.5686" rx="11" fill="#E1C3FF" fill-opacity="0.25"/>
<rect x="118.498" y="359.931" width="72.5728" height="42.5686" rx="10.5" stroke="#E1C3FF" stroke-opacity="0.25"/>
<rect x="429.6" y="307.941" width="73.5728" height="43.5686" rx="11" fill="#E1C3FF" fill-opacity="0.25"/>
<rect x="430.1" y="308.441" width="72.5728" height="42.5686" rx="10.5" stroke="#E1C3FF" stroke-opacity="0.25"/>
<rect x="393.535" y="50.4902" width="73.5728" height="43.5686" rx="11" fill="#E1C3FF" fill-opacity="0.25"/>
<rect x="394.035" y="50.9902" width="72.5728" height="42.5686" rx="10.5" stroke="#E1C3FF" stroke-opacity="0.25"/>
<rect x="386.322" y="153.47" width="73.5728" height="43.5686" rx="11" fill="#E1C3FF" fill-opacity="0.25"/>
<rect x="386.822" y="153.97" width="72.5728" height="42.5686" rx="10.5" stroke="#E1C3FF" stroke-opacity="0.25"/>
<rect x="379.109" y="256.451" width="73.5728" height="43.5686" rx="11" fill="#E1C3FF" fill-opacity="0.25"/>
<rect x="379.609" y="256.951" width="72.5728" height="42.5686" rx="10.5" stroke="#E1C3FF" stroke-opacity="0.25"/>
<rect x="374.781" y="359.431" width="73.5728" height="43.5686" rx="11" fill="#E1C3FF" fill-opacity="0.25"/>
<rect x="375.281" y="359.931" width="72.5728" height="42.5686" rx="10.5" stroke="#E1C3FF" stroke-opacity="0.25"/>
<rect x="-6" y="426" width="442" height="525" fill="#E1C3FF" fill-opacity="0.25"/>
<rect x="-5.5" y="426.5" width="441" height="524" stroke="#E1C3FF" stroke-opacity="0.25"/>
<rect x="-4.5" y="402.5" width="441" height="14" fill="#FCFCFC" stroke="#F5ECFC"/>
<rect x="-6.5" y="416.5" width="441" height="10" fill="#FCFCFC" stroke="#F5ECFC"/>
<path d="M440.048 357.177C454.545 380.964 437.999 426 437.999 426H337.6H336.917H335.096C324.621 361.982 392.694 385.971 392.694 385.971C392.694 385.971 425.551 333.39 440.048 357.177Z" fill="#F4CF43"/>
<path d="M461.048 377.177C475.545 400.964 458.999 446 458.999 446H358.6H357.917H356.096C345.621 381.982 413.694 405.971 413.694 405.971C413.694 405.971 446.551 353.39 461.048 377.177Z" fill="#AA82FF"/>
<path d="M-34.0483 449.26C-48.5454 473.364 -31.9993 519 -31.9993 519H68.4H69.083H70.9043C81.3789 454.129 13.3057 478.437 13.3057 478.437C13.3057 478.437 -19.5511 425.155 -34.0483 449.26Z" fill="#AA82FF"/>
<path d="M-12.0483 357.26C-26.5454 381.364 -9.99929 427 -9.99929 427H90.4H91.083H92.9043C103.379 362.129 35.3057 386.437 35.3057 386.437C35.3057 386.437 2.44892 333.155 -12.0483 357.26Z" fill="#6B4DD1"/>
<path d="M-4.04826 463.177C-18.5454 486.964 -1.99929 532 -1.99929 532H98.4H99.083H100.904C111.379 467.982 43.3057 491.971 43.3057 491.971C43.3057 491.971 10.4489 439.39 -4.04826 463.177Z" fill="#F4CF43"/>
</g>
<rect x="0.5" y="0.5" width="429" height="931" stroke="black"/>
<defs>
<clipPath id="clip0_456_1660">
<rect width="430" height="932" fill="white"/>
</clipPath>
</defs>
</svg>
