<svg width="2094" height="1672" viewBox="0 0 2094 1672" fill="none" xmlns="http://www.w3.org/2000/svg">
<rect x="385" y="760" width="1329" height="831" rx="391" fill="#393939"/>
<path d="M412.396 584.058C415.832 518.627 483.155 477.587 537.167 507.997L972.631 753.178C1029.74 785.331 1029.13 872.288 971.553 907.387L508.382 1189.74C450.805 1224.84 381.057 1180.77 384.69 1111.59L412.396 584.058Z" fill="#393939"/>
<path d="M1681.13 578.058C1677.7 512.627 1610.37 471.587 1556.36 501.997L1120.9 747.178C1063.79 779.331 1064.4 866.288 1121.98 901.387L1585.15 1183.74C1642.72 1218.84 1712.47 1174.77 1708.84 1105.59L1681.13 578.058Z" fill="#393939"/>
<path d="M1016.9 66.28C1030.53 38.9887 1069.47 38.9887 1083.1 66.28L1417.31 735.469C1429.59 760.069 1411.7 789 1384.21 789H715.795C688.297 789 670.407 760.069 682.693 735.469L1016.9 66.28Z" fill="#6B4DD1"/>
<rect x="330" y="695" width="1434" height="129" rx="64.5" fill="#6B4DD1"/>
<path d="M1240.77 527.781C1242.32 523.278 1248.68 523.278 1250.23 527.781L1269.25 583.196C1269.94 585.217 1271.84 586.574 1273.98 586.574H1334.91C1339.82 586.574 1341.79 592.91 1337.74 595.693L1288.93 629.275C1287.08 630.547 1286.3 632.895 1287.03 635.017L1305.79 689.673C1307.35 694.232 1302.19 698.147 1298.22 695.415L1248.33 661.096C1246.63 659.922 1244.37 659.922 1242.67 661.096L1192.78 695.415C1188.81 698.147 1183.65 694.232 1185.21 689.673L1203.97 635.017C1204.7 632.895 1203.92 630.547 1202.07 629.275L1153.26 595.693C1149.21 592.91 1151.18 586.574 1156.09 586.574H1217.02C1219.16 586.574 1221.06 585.217 1221.75 583.196L1240.77 527.781Z" fill="#FFD285"/>
<path d="M927.261 313.09C928.68 308.326 935.426 308.326 936.845 313.09L955.788 376.696C956.42 378.815 958.369 380.269 960.58 380.269H1022.75C1027.49 380.269 1029.57 386.244 1025.85 389.187L974.831 429.629C973.23 430.899 972.562 433.016 973.145 434.975L992.454 499.808C993.849 504.492 988.387 508.19 984.557 505.154L935.159 465.999C933.339 464.557 930.766 464.557 928.947 465.999L879.549 505.154C875.719 508.19 870.256 504.492 871.651 499.808L891.107 434.483C891.614 432.779 891.179 430.934 889.963 429.637L856.775 394.228C853.969 391.235 855.764 386.322 859.839 385.843L903.984 380.653C905.968 380.42 907.623 379.028 908.193 377.114L927.261 313.09Z" fill="#FFD285"/>
<ellipse cx="795.5" cy="1154" rx="173.5" ry="171" fill="#E3B73E"/>
<ellipse cx="1304.5" cy="1154" rx="173.5" ry="171" fill="#E3B73E"/>
<ellipse cx="809.5" cy="1153.5" rx="159.5" ry="156.5" fill="#393939"/>
<ellipse cx="1289.5" cy="1154" rx="158.5" ry="156" fill="#393939"/>
<path d="M815.899 1054.81C817.625 1050.76 823.375 1050.76 825.101 1054.81L853.772 1122.19C854.34 1123.52 855.46 1124.55 856.841 1124.99L932.208 1149.24C936.832 1150.73 936.832 1157.27 932.208 1158.76L856.841 1183.01C855.46 1183.45 854.34 1184.48 853.772 1185.81L825.101 1253.19C823.375 1257.24 817.625 1257.24 815.899 1253.19L787.228 1185.81C786.66 1184.48 785.54 1183.45 784.159 1183.01L708.792 1158.76C704.168 1157.27 704.168 1150.73 708.792 1149.24L784.159 1124.99C785.54 1124.55 786.66 1123.52 787.228 1122.19L815.899 1054.81Z" fill="white"/>
<path d="M1286.9 1054.81C1288.63 1050.76 1294.37 1050.76 1296.1 1054.81L1324.77 1122.19C1325.34 1123.52 1326.46 1124.55 1327.84 1124.99L1403.21 1149.24C1407.83 1150.73 1407.83 1157.27 1403.21 1158.76L1327.84 1183.01C1326.46 1183.45 1325.34 1184.48 1324.77 1185.81L1296.1 1253.19C1294.37 1257.24 1288.63 1257.24 1286.9 1253.19L1258.23 1185.81C1257.66 1184.48 1256.54 1183.45 1255.16 1183.01L1179.79 1158.76C1175.17 1157.27 1175.17 1150.73 1179.79 1149.24L1255.16 1124.99C1256.54 1124.55 1257.66 1123.52 1258.23 1122.19L1286.9 1054.81Z" fill="white"/>
<line x1="1587.81" y1="1331.81" x2="1738.81" y2="1328.19" stroke="#9A9696" stroke-width="16" stroke-linecap="round"/>
<line x1="1587.82" y1="1370.82" x2="1705.82" y2="1368.18" stroke="#9A9696" stroke-width="16" stroke-linecap="round"/>
<line x1="8" y1="-8" x2="159.048" y2="-8" transform="matrix(-0.999713 -0.0239452 -0.0239452 0.999713 497 1339)" stroke="#9A9696" stroke-width="16" stroke-linecap="round"/>
<line x1="8" y1="-8" x2="126.034" y2="-8" transform="matrix(-0.999749 -0.0223825 -0.0223825 0.999749 497 1378)" stroke="#9A9696" stroke-width="16" stroke-linecap="round"/>
</svg>
