<svg width="430" height="932" viewBox="0 0 430 932" fill="none" xmlns="http://www.w3.org/2000/svg">
<g clip-path="url(#clip0_700_2365)">
<rect width="430" height="932" fill="#FCFCFC"/>
<g opacity="0.8">
<rect x="126.281" width="87.362" height="50.6165" rx="11" fill="#E1C3FF" fill-opacity="0.35"/>
<rect x="126.781" y="0.5" width="86.362" height="49.6165" rx="10.5" stroke="#E1C3FF" stroke-opacity="0.35"/>
<rect x="117.717" y="119.639" width="87.362" height="50.6165" rx="11" fill="#E1C3FF" fill-opacity="0.35"/>
<rect x="118.217" y="120.139" width="86.362" height="49.6165" rx="10.5" stroke="#E1C3FF" stroke-opacity="0.35"/>
<rect x="117.717" y="239.278" width="87.362" height="50.6165" rx="11" fill="#E1C3FF" fill-opacity="0.35"/>
<rect x="118.217" y="239.778" width="86.362" height="49.6165" rx="10.5" stroke="#E1C3FF" stroke-opacity="0.35"/>
<rect x="116.003" y="358.917" width="87.362" height="50.6165" rx="11" fill="#E1C3FF" fill-opacity="0.35"/>
<rect x="116.503" y="359.417" width="86.362" height="49.6165" rx="10.5" stroke="#E1C3FF" stroke-opacity="0.35"/>
<rect x="73.179" y="59.8196" width="87.362" height="50.6165" rx="11" fill="#E1C3FF" fill-opacity="0.35"/>
<rect x="73.679" y="60.3196" width="86.362" height="49.6165" rx="10.5" stroke="#E1C3FF" stroke-opacity="0.35"/>
<rect x="64.6143" y="179.458" width="87.362" height="50.6165" rx="11" fill="#E1C3FF" fill-opacity="0.35"/>
<rect x="65.1143" y="179.958" width="86.362" height="49.6165" rx="10.5" stroke="#E1C3FF" stroke-opacity="0.35"/>
<rect x="64.6143" y="299.098" width="87.362" height="50.6165" rx="11" fill="#E1C3FF" fill-opacity="0.35"/>
<rect x="65.1143" y="299.598" width="86.362" height="49.6165" rx="10.5" stroke="#E1C3FF" stroke-opacity="0.35"/>
<rect x="59.4753" y="418.736" width="87.362" height="50.6165" rx="11" fill="#E1C3FF" fill-opacity="0.35"/>
<rect x="59.9753" y="419.236" width="86.362" height="49.6165" rx="10.5" stroke="#E1C3FF" stroke-opacity="0.35"/>
<rect x="-82.7019" width="87.362" height="50.6165" rx="11" fill="#E1C3FF" fill-opacity="0.35"/>
<rect x="-82.2019" y="0.5" width="86.362" height="49.6165" rx="10.5" stroke="#E1C3FF" stroke-opacity="0.35"/>
<rect x="230.773" width="87.362" height="50.6165" rx="11" fill="#E1C3FF" fill-opacity="0.35"/>
<rect x="231.273" y="0.5" width="86.362" height="49.6165" rx="10.5" stroke="#E1C3FF" stroke-opacity="0.35"/>
<rect x="222.208" y="119.639" width="87.362" height="50.6165" rx="11" fill="#E1C3FF" fill-opacity="0.35"/>
<rect x="222.708" y="120.139" width="86.362" height="49.6165" rx="10.5" stroke="#E1C3FF" stroke-opacity="0.35"/>
<rect x="222.208" y="239.278" width="87.362" height="50.6165" rx="11" fill="#E1C3FF" fill-opacity="0.35"/>
<rect x="222.708" y="239.778" width="86.362" height="49.6165" rx="10.5" stroke="#E1C3FF" stroke-opacity="0.35"/>
<rect x="220.495" y="358.917" width="87.362" height="50.6165" rx="11" fill="#E1C3FF" fill-opacity="0.35"/>
<rect x="220.995" y="359.417" width="86.362" height="49.6165" rx="10.5" stroke="#E1C3FF" stroke-opacity="0.35"/>
<rect x="177.671" y="59.8196" width="87.362" height="50.6165" rx="11" fill="#E1C3FF" fill-opacity="0.35"/>
<rect x="178.171" y="60.3196" width="86.362" height="49.6165" rx="10.5" stroke="#E1C3FF" stroke-opacity="0.35"/>
<rect x="169.106" y="179.458" width="87.362" height="50.6165" rx="11" fill="#E1C3FF" fill-opacity="0.35"/>
<rect x="169.606" y="179.958" width="86.362" height="49.6165" rx="10.5" stroke="#E1C3FF" stroke-opacity="0.35"/>
<rect x="169.106" y="299.098" width="87.362" height="50.6165" rx="11" fill="#E1C3FF" fill-opacity="0.35"/>
<rect x="169.606" y="299.598" width="86.362" height="49.6165" rx="10.5" stroke="#E1C3FF" stroke-opacity="0.35"/>
<rect x="163.967" y="418.736" width="87.362" height="50.6165" rx="11" fill="#E1C3FF" fill-opacity="0.35"/>
<rect x="164.467" y="419.236" width="86.362" height="49.6165" rx="10.5" stroke="#E1C3FF" stroke-opacity="0.35"/>
<rect x="429.479" y="358.917" width="87.362" height="50.6165" rx="11" fill="#E1C3FF" fill-opacity="0.35"/>
<rect x="429.979" y="359.417" width="86.362" height="49.6165" rx="10.5" stroke="#E1C3FF" stroke-opacity="0.35"/>
<rect x="386.654" y="59.8196" width="87.362" height="50.6165" rx="11" fill="#E1C3FF" fill-opacity="0.35"/>
<rect x="387.154" y="60.3196" width="86.362" height="49.6165" rx="10.5" stroke="#E1C3FF" stroke-opacity="0.35"/>
<rect x="378.09" y="179.458" width="87.362" height="50.6165" rx="11" fill="#E1C3FF" fill-opacity="0.35"/>
<rect x="378.59" y="179.958" width="86.362" height="49.6165" rx="10.5" stroke="#E1C3FF" stroke-opacity="0.35"/>
<rect x="369.524" y="299.098" width="87.362" height="50.6165" rx="11" fill="#E1C3FF" fill-opacity="0.35"/>
<rect x="370.024" y="299.598" width="86.362" height="49.6165" rx="10.5" stroke="#E1C3FF" stroke-opacity="0.35"/>
<rect x="364.385" y="418.736" width="87.362" height="50.6165" rx="11" fill="#E1C3FF" fill-opacity="0.35"/>
<rect x="364.885" y="419.236" width="86.362" height="49.6165" rx="10.5" stroke="#E1C3FF" stroke-opacity="0.35"/>
<rect x="21.7898" width="87.362" height="50.6165" rx="11" fill="#E1C3FF" fill-opacity="0.35"/>
<rect x="22.2898" y="0.5" width="86.362" height="49.6165" rx="10.5" stroke="#E1C3FF" stroke-opacity="0.35"/>
<rect x="13.2249" y="119.639" width="87.362" height="50.6165" rx="11" fill="#E1C3FF" fill-opacity="0.35"/>
<rect x="13.7249" y="120.139" width="86.362" height="49.6165" rx="10.5" stroke="#E1C3FF" stroke-opacity="0.35"/>
<rect x="13.2249" y="239.278" width="87.362" height="50.6165" rx="11" fill="#E1C3FF" fill-opacity="0.35"/>
<rect x="13.7249" y="239.778" width="86.362" height="49.6165" rx="10.5" stroke="#E1C3FF" stroke-opacity="0.35"/>
<rect x="11.5117" y="358.917" width="87.362" height="50.6165" rx="11" fill="#E1C3FF" fill-opacity="0.35"/>
<rect x="12.0117" y="359.417" width="86.362" height="49.6165" rx="10.5" stroke="#E1C3FF" stroke-opacity="0.35"/>
<rect x="-31.3127" y="59.8196" width="87.362" height="50.6165" rx="11" fill="#E1C3FF" fill-opacity="0.35"/>
<rect x="-30.8127" y="60.3196" width="86.362" height="49.6165" rx="10.5" stroke="#E1C3FF" stroke-opacity="0.35"/>
<rect x="-39.8774" y="179.458" width="87.362" height="50.6165" rx="11" fill="#E1C3FF" fill-opacity="0.35"/>
<rect x="-39.3774" y="179.958" width="86.362" height="49.6165" rx="10.5" stroke="#E1C3FF" stroke-opacity="0.35"/>
<rect x="-39.8774" y="299.098" width="87.362" height="50.6165" rx="11" fill="#E1C3FF" fill-opacity="0.35"/>
<rect x="-39.3774" y="299.598" width="86.362" height="49.6165" rx="10.5" stroke="#E1C3FF" stroke-opacity="0.35"/>
<rect x="-45.0164" y="418.736" width="87.362" height="50.6165" rx="11" fill="#E1C3FF" fill-opacity="0.35"/>
<rect x="-44.5164" y="419.236" width="86.362" height="49.6165" rx="10.5" stroke="#E1C3FF" stroke-opacity="0.35"/>
<rect x="335.265" width="87.362" height="50.6165" rx="11" fill="#E1C3FF" fill-opacity="0.35"/>
<rect x="335.765" y="0.5" width="86.362" height="49.6165" rx="10.5" stroke="#E1C3FF" stroke-opacity="0.35"/>
<rect x="326.7" y="119.639" width="87.362" height="50.6165" rx="11" fill="#E1C3FF" fill-opacity="0.35"/>
<rect x="327.2" y="120.139" width="86.362" height="49.6165" rx="10.5" stroke="#E1C3FF" stroke-opacity="0.35"/>
<rect x="326.7" y="239.278" width="87.362" height="50.6165" rx="11" fill="#E1C3FF" fill-opacity="0.35"/>
<rect x="327.2" y="239.778" width="86.362" height="49.6165" rx="10.5" stroke="#E1C3FF" stroke-opacity="0.35"/>
<rect x="324.987" y="358.917" width="87.362" height="50.6165" rx="11" fill="#E1C3FF" fill-opacity="0.35"/>
<rect x="325.487" y="359.417" width="86.362" height="49.6165" rx="10.5" stroke="#E1C3FF" stroke-opacity="0.35"/>
<rect x="282.163" y="59.8196" width="87.362" height="50.6165" rx="11" fill="#E1C3FF" fill-opacity="0.35"/>
<rect x="282.663" y="60.3196" width="86.362" height="49.6165" rx="10.5" stroke="#E1C3FF" stroke-opacity="0.35"/>
<rect x="273.598" y="179.458" width="87.362" height="50.6165" rx="11" fill="#E1C3FF" fill-opacity="0.35"/>
<rect x="274.098" y="179.958" width="86.362" height="49.6165" rx="10.5" stroke="#E1C3FF" stroke-opacity="0.35"/>
<rect x="265.033" y="299.098" width="87.362" height="50.6165" rx="11" fill="#E1C3FF" fill-opacity="0.35"/>
<rect x="265.533" y="299.598" width="86.362" height="49.6165" rx="10.5" stroke="#E1C3FF" stroke-opacity="0.35"/>
<rect x="259.894" y="418.736" width="87.362" height="50.6165" rx="11" fill="#E1C3FF" fill-opacity="0.35"/>
<rect x="260.394" y="419.236" width="86.362" height="49.6165" rx="10.5" stroke="#E1C3FF" stroke-opacity="0.35"/>
<rect x="126.281" y="477.353" width="87.362" height="50.6165" rx="11" fill="#E1C3FF" fill-opacity="0.35"/>
<rect x="126.781" y="477.853" width="86.362" height="49.6165" rx="10.5" stroke="#E1C3FF" stroke-opacity="0.35"/>
<rect x="117.717" y="596.992" width="87.362" height="50.6165" rx="11" fill="#E1C3FF" fill-opacity="0.35"/>
<rect x="118.217" y="597.492" width="86.362" height="49.6165" rx="10.5" stroke="#E1C3FF" stroke-opacity="0.35"/>
<rect x="117.717" y="716.631" width="87.362" height="50.6165" rx="11" fill="#E1C3FF" fill-opacity="0.35"/>
<rect x="118.217" y="717.131" width="86.362" height="49.6165" rx="10.5" stroke="#E1C3FF" stroke-opacity="0.35"/>
<rect x="116.003" y="836.27" width="87.362" height="50.6165" rx="11" fill="#E1C3FF" fill-opacity="0.35"/>
<rect x="116.503" y="836.77" width="86.362" height="49.6165" rx="10.5" stroke="#E1C3FF" stroke-opacity="0.35"/>
<rect x="73.179" y="537.173" width="87.362" height="50.6165" rx="11" fill="#E1C3FF" fill-opacity="0.35"/>
<rect x="73.679" y="537.673" width="86.362" height="49.6165" rx="10.5" stroke="#E1C3FF" stroke-opacity="0.35"/>
<rect x="64.6143" y="656.811" width="87.362" height="50.6165" rx="11" fill="#E1C3FF" fill-opacity="0.35"/>
<rect x="65.1143" y="657.311" width="86.362" height="49.6165" rx="10.5" stroke="#E1C3FF" stroke-opacity="0.35"/>
<rect x="64.6143" y="776.451" width="87.362" height="50.6165" rx="11" fill="#E1C3FF" fill-opacity="0.35"/>
<rect x="65.1143" y="776.951" width="86.362" height="49.6165" rx="10.5" stroke="#E1C3FF" stroke-opacity="0.35"/>
<rect x="59.4753" y="896.09" width="87.362" height="50.6165" rx="11" fill="#E1C3FF" fill-opacity="0.35"/>
<rect x="59.9753" y="896.59" width="86.362" height="49.6165" rx="10.5" stroke="#E1C3FF" stroke-opacity="0.35"/>
<rect x="-82.7019" y="477.353" width="87.362" height="50.6165" rx="11" fill="#E1C3FF" fill-opacity="0.35"/>
<rect x="-82.2019" y="477.853" width="86.362" height="49.6165" rx="10.5" stroke="#E1C3FF" stroke-opacity="0.35"/>
<rect x="230.773" y="477.353" width="87.362" height="50.6165" rx="11" fill="#E1C3FF" fill-opacity="0.35"/>
<rect x="231.273" y="477.853" width="86.362" height="49.6165" rx="10.5" stroke="#E1C3FF" stroke-opacity="0.35"/>
<rect x="222.208" y="596.992" width="87.362" height="50.6165" rx="11" fill="#E1C3FF" fill-opacity="0.35"/>
<rect x="222.708" y="597.492" width="86.362" height="49.6165" rx="10.5" stroke="#E1C3FF" stroke-opacity="0.35"/>
<rect x="222.208" y="716.631" width="87.362" height="50.6165" rx="11" fill="#E1C3FF" fill-opacity="0.35"/>
<rect x="222.708" y="717.131" width="86.362" height="49.6165" rx="10.5" stroke="#E1C3FF" stroke-opacity="0.35"/>
<rect x="220.495" y="836.27" width="87.362" height="50.6165" rx="11" fill="#E1C3FF" fill-opacity="0.35"/>
<rect x="220.995" y="836.77" width="86.362" height="49.6165" rx="10.5" stroke="#E1C3FF" stroke-opacity="0.35"/>
<rect x="177.671" y="537.173" width="87.362" height="50.6165" rx="11" fill="#E1C3FF" fill-opacity="0.35"/>
<rect x="178.171" y="537.673" width="86.362" height="49.6165" rx="10.5" stroke="#E1C3FF" stroke-opacity="0.35"/>
<rect x="169.106" y="656.811" width="87.362" height="50.6165" rx="11" fill="#E1C3FF" fill-opacity="0.35"/>
<rect x="169.606" y="657.311" width="86.362" height="49.6165" rx="10.5" stroke="#E1C3FF" stroke-opacity="0.35"/>
<rect x="169.106" y="776.451" width="87.362" height="50.6165" rx="11" fill="#E1C3FF" fill-opacity="0.35"/>
<rect x="169.606" y="776.951" width="86.362" height="49.6165" rx="10.5" stroke="#E1C3FF" stroke-opacity="0.35"/>
<rect x="163.967" y="896.09" width="87.362" height="50.6165" rx="11" fill="#E1C3FF" fill-opacity="0.35"/>
<rect x="164.467" y="896.59" width="86.362" height="49.6165" rx="10.5" stroke="#E1C3FF" stroke-opacity="0.35"/>
<rect x="429.479" y="836.27" width="87.362" height="50.6165" rx="11" fill="#E1C3FF" fill-opacity="0.35"/>
<rect x="429.979" y="836.77" width="86.362" height="49.6165" rx="10.5" stroke="#E1C3FF" stroke-opacity="0.35"/>
<rect x="386.654" y="537.173" width="87.362" height="50.6165" rx="11" fill="#E1C3FF" fill-opacity="0.35"/>
<rect x="387.154" y="537.673" width="86.362" height="49.6165" rx="10.5" stroke="#E1C3FF" stroke-opacity="0.35"/>
<rect x="378.09" y="656.811" width="87.362" height="50.6165" rx="11" fill="#E1C3FF" fill-opacity="0.35"/>
<rect x="378.59" y="657.311" width="86.362" height="49.6165" rx="10.5" stroke="#E1C3FF" stroke-opacity="0.35"/>
<rect x="369.524" y="776.451" width="87.362" height="50.6165" rx="11" fill="#E1C3FF" fill-opacity="0.35"/>
<rect x="370.024" y="776.951" width="86.362" height="49.6165" rx="10.5" stroke="#E1C3FF" stroke-opacity="0.35"/>
<rect x="364.385" y="896.09" width="87.362" height="50.6165" rx="11" fill="#E1C3FF" fill-opacity="0.35"/>
<rect x="364.885" y="896.59" width="86.362" height="49.6165" rx="10.5" stroke="#E1C3FF" stroke-opacity="0.35"/>
<rect x="21.7898" y="477.353" width="87.362" height="50.6165" rx="11" fill="#E1C3FF" fill-opacity="0.35"/>
<rect x="22.2898" y="477.853" width="86.362" height="49.6165" rx="10.5" stroke="#E1C3FF" stroke-opacity="0.35"/>
<rect x="13.2249" y="596.992" width="87.362" height="50.6165" rx="11" fill="#E1C3FF" fill-opacity="0.35"/>
<rect x="13.7249" y="597.492" width="86.362" height="49.6165" rx="10.5" stroke="#E1C3FF" stroke-opacity="0.35"/>
<rect x="13.2249" y="716.631" width="87.362" height="50.6165" rx="11" fill="#E1C3FF" fill-opacity="0.35"/>
<rect x="13.7249" y="717.131" width="86.362" height="49.6165" rx="10.5" stroke="#E1C3FF" stroke-opacity="0.35"/>
<rect x="11.5117" y="836.27" width="87.362" height="50.6165" rx="11" fill="#E1C3FF" fill-opacity="0.35"/>
<rect x="12.0117" y="836.77" width="86.362" height="49.6165" rx="10.5" stroke="#E1C3FF" stroke-opacity="0.35"/>
<rect x="-31.3127" y="537.173" width="87.362" height="50.6165" rx="11" fill="#E1C3FF" fill-opacity="0.35"/>
<rect x="-30.8127" y="537.673" width="86.362" height="49.6165" rx="10.5" stroke="#E1C3FF" stroke-opacity="0.35"/>
<rect x="-39.8774" y="656.811" width="87.362" height="50.6165" rx="11" fill="#E1C3FF" fill-opacity="0.35"/>
<rect x="-39.3774" y="657.311" width="86.362" height="49.6165" rx="10.5" stroke="#E1C3FF" stroke-opacity="0.35"/>
<rect x="-39.8774" y="776.451" width="87.362" height="50.6165" rx="11" fill="#E1C3FF" fill-opacity="0.35"/>
<rect x="-39.3774" y="776.951" width="86.362" height="49.6165" rx="10.5" stroke="#E1C3FF" stroke-opacity="0.35"/>
<rect x="-45.0164" y="896.09" width="87.362" height="50.6165" rx="11" fill="#E1C3FF" fill-opacity="0.35"/>
<rect x="-44.5164" y="896.59" width="86.362" height="49.6165" rx="10.5" stroke="#E1C3FF" stroke-opacity="0.35"/>
<rect x="335.265" y="477.353" width="87.362" height="50.6165" rx="11" fill="#E1C3FF" fill-opacity="0.35"/>
<rect x="335.765" y="477.853" width="86.362" height="49.6165" rx="10.5" stroke="#E1C3FF" stroke-opacity="0.35"/>
<rect x="326.7" y="596.992" width="87.362" height="50.6165" rx="11" fill="#E1C3FF" fill-opacity="0.35"/>
<rect x="327.2" y="597.492" width="86.362" height="49.6165" rx="10.5" stroke="#E1C3FF" stroke-opacity="0.35"/>
<rect x="326.7" y="716.631" width="87.362" height="50.6165" rx="11" fill="#E1C3FF" fill-opacity="0.35"/>
<rect x="327.2" y="717.131" width="86.362" height="49.6165" rx="10.5" stroke="#E1C3FF" stroke-opacity="0.35"/>
<rect x="324.987" y="836.27" width="87.362" height="50.6165" rx="11" fill="#E1C3FF" fill-opacity="0.35"/>
<rect x="325.487" y="836.77" width="86.362" height="49.6165" rx="10.5" stroke="#E1C3FF" stroke-opacity="0.35"/>
<rect x="282.163" y="537.173" width="87.362" height="50.6165" rx="11" fill="#E1C3FF" fill-opacity="0.35"/>
<rect x="282.663" y="537.673" width="86.362" height="49.6165" rx="10.5" stroke="#E1C3FF" stroke-opacity="0.35"/>
<rect x="273.598" y="656.811" width="87.362" height="50.6165" rx="11" fill="#E1C3FF" fill-opacity="0.35"/>
<rect x="274.098" y="657.311" width="86.362" height="49.6165" rx="10.5" stroke="#E1C3FF" stroke-opacity="0.35"/>
<rect x="265.033" y="776.451" width="87.362" height="50.6165" rx="11" fill="#E1C3FF" fill-opacity="0.35"/>
<rect x="265.533" y="776.951" width="86.362" height="49.6165" rx="10.5" stroke="#E1C3FF" stroke-opacity="0.35"/>
<rect x="259.894" y="896.09" width="87.362" height="50.6165" rx="11" fill="#E1C3FF" fill-opacity="0.35"/>
<rect x="260.394" y="896.59" width="86.362" height="49.6165" rx="10.5" stroke="#E1C3FF" stroke-opacity="0.35"/>
</g>
<rect x="39.5" y="182.5" width="350" height="547" fill="#F8F3FC" stroke="#AB8EC9"/>
<rect x="14.5" y="99.5" width="401" height="70" rx="16.5" fill="#B7A1CE" stroke="#AB8EC9"/>
<rect x="22" y="106" width="385" height="54" rx="17" fill="#C8B3DE"/>
<path d="M394.5 169.5V176C394.5 179.59 391.59 182.5 388 182.5H42C38.4102 182.5 35.5 179.59 35.5 176V169.5H394.5Z" fill="#C8B3DE" stroke="#AB8EC9"/>
<rect x="57.5" y="356.5" width="314" height="45" rx="7.5" fill="#D8C8EA" stroke="#CDBACC"/>
<rect x="57.5" y="610.5" width="314" height="45" rx="7.5" fill="#D8C8EA" stroke="#CDBACC"/>
<path d="M136.598 140V138.047H140.758C141.689 138.047 142.396 137.858 142.877 137.48C143.359 137.103 143.6 136.556 143.6 135.84V135.82C143.6 135.345 143.489 134.945 143.268 134.619C143.047 134.294 142.715 134.049 142.272 133.887C141.836 133.724 141.295 133.643 140.651 133.643H136.598V131.855H140.25C141.149 131.855 141.832 131.683 142.301 131.338C142.77 130.993 143.004 130.498 143.004 129.854V129.834C143.004 129.209 142.793 128.724 142.37 128.379C141.946 128.034 141.354 127.861 140.592 127.861H136.598V125.908H141.207C142.099 125.908 142.864 126.051 143.502 126.338C144.14 126.624 144.629 127.031 144.967 127.559C145.312 128.079 145.485 128.701 145.485 129.424V129.443C145.485 129.938 145.371 130.4 145.143 130.83C144.922 131.26 144.619 131.621 144.235 131.914C143.857 132.207 143.427 132.389 142.946 132.461V132.607C143.584 132.666 144.144 132.848 144.625 133.154C145.114 133.454 145.495 133.848 145.768 134.336C146.041 134.824 146.178 135.374 146.178 135.986V136.006C146.178 136.826 145.983 137.536 145.592 138.135C145.202 138.734 144.645 139.196 143.922 139.521C143.2 139.84 142.337 140 141.334 140H136.598ZM135.338 140V125.908H137.858V140H135.338ZM148.033 140V129.404H150.464V140H148.033ZM149.254 127.686C148.863 127.686 148.528 127.549 148.248 127.275C147.968 126.995 147.828 126.663 147.828 126.279C147.828 125.889 147.968 125.557 148.248 125.283C148.528 125.01 148.863 124.873 149.254 124.873C149.644 124.873 149.979 125.01 150.259 125.283C150.539 125.557 150.679 125.889 150.679 126.279C150.679 126.663 150.539 126.995 150.259 127.275C149.979 127.549 149.644 127.686 149.254 127.686ZM158.677 140.186C158.182 140.186 157.723 140.111 157.3 139.961C156.883 139.811 156.518 139.596 156.206 139.316C155.893 139.036 155.639 138.701 155.444 138.311H155.298V140H152.866V125.361H155.298V131.123H155.444C155.633 130.726 155.887 130.387 156.206 130.107C156.525 129.827 156.893 129.609 157.309 129.453C157.733 129.297 158.188 129.219 158.677 129.219C159.575 129.219 160.35 129.44 161.001 129.883C161.652 130.326 162.153 130.957 162.505 131.777C162.856 132.591 163.032 133.564 163.032 134.697V134.707C163.032 135.827 162.853 136.797 162.495 137.617C162.143 138.438 161.642 139.072 160.991 139.521C160.34 139.964 159.568 140.186 158.677 140.186ZM157.925 138.135C158.471 138.135 158.94 137.998 159.331 137.725C159.728 137.451 160.031 137.057 160.239 136.543C160.454 136.029 160.561 135.417 160.561 134.707V134.697C160.561 133.981 160.454 133.369 160.239 132.861C160.031 132.354 159.728 131.963 159.331 131.689C158.94 131.41 158.471 131.27 157.925 131.27C157.391 131.27 156.922 131.41 156.518 131.689C156.121 131.963 155.812 132.357 155.591 132.871C155.376 133.379 155.268 133.988 155.268 134.697V134.717C155.268 135.413 155.376 136.019 155.591 136.533C155.812 137.048 156.121 137.445 156.518 137.725C156.915 137.998 157.384 138.135 157.925 138.135ZM164.916 140V125.361H167.348V140H164.916ZM169.769 140V129.404H172.2V140H169.769ZM170.989 127.686C170.599 127.686 170.264 127.549 169.984 127.275C169.704 126.995 169.564 126.663 169.564 126.279C169.564 125.889 169.704 125.557 169.984 125.283C170.264 125.01 170.599 124.873 170.989 124.873C171.38 124.873 171.715 125.01 171.995 125.283C172.275 125.557 172.415 125.889 172.415 126.279C172.415 126.663 172.275 126.995 171.995 127.275C171.715 127.549 171.38 127.686 170.989 127.686ZM179.114 140.215C178.066 140.215 177.157 139.993 176.389 139.551C175.627 139.108 175.038 138.477 174.621 137.656C174.211 136.829 174.006 135.846 174.006 134.707V134.688C174.006 133.555 174.215 132.578 174.631 131.758C175.048 130.931 175.637 130.296 176.399 129.854C177.167 129.411 178.072 129.189 179.114 129.189C180.162 129.189 181.067 129.411 181.829 129.854C182.59 130.296 183.179 130.928 183.596 131.748C184.013 132.568 184.221 133.548 184.221 134.688V134.707C184.221 135.846 184.013 136.829 183.596 137.656C183.186 138.477 182.6 139.108 181.838 139.551C181.077 139.993 180.168 140.215 179.114 140.215ZM179.114 138.242C179.667 138.242 180.139 138.102 180.53 137.822C180.92 137.542 181.22 137.139 181.428 136.611C181.636 136.084 181.741 135.449 181.741 134.707V134.688C181.741 133.945 181.636 133.314 181.428 132.793C181.22 132.266 180.92 131.862 180.53 131.582C180.139 131.302 179.667 131.162 179.114 131.162C178.567 131.162 178.098 131.302 177.707 131.582C177.317 131.862 177.017 132.266 176.809 132.793C176.601 133.314 176.496 133.945 176.496 134.688V134.707C176.496 135.456 176.601 136.094 176.809 136.621C177.017 137.148 177.317 137.552 177.707 137.832C178.098 138.105 178.567 138.242 179.114 138.242ZM190.109 140.088C188.924 140.088 188.061 139.863 187.521 139.414C186.987 138.958 186.72 138.21 186.72 137.168V131.279H185.109V129.404H186.72V126.777H189.191V129.404H191.359V131.279H189.191V136.689C189.191 137.21 189.302 137.588 189.523 137.822C189.751 138.05 190.109 138.164 190.597 138.164C190.754 138.164 190.887 138.161 190.998 138.154C191.115 138.141 191.235 138.132 191.359 138.125V139.98C191.196 140.007 191.007 140.029 190.793 140.049C190.578 140.075 190.35 140.088 190.109 140.088ZM197.608 140.215C196.56 140.215 195.655 139.993 194.893 139.551C194.138 139.102 193.555 138.467 193.145 137.646C192.742 136.826 192.54 135.853 192.54 134.727V134.717C192.54 133.604 192.742 132.633 193.145 131.807C193.555 130.98 194.132 130.339 194.874 129.883C195.616 129.421 196.492 129.189 197.501 129.189C198.503 129.189 199.369 129.411 200.098 129.854C200.834 130.296 201.397 130.918 201.788 131.719C202.185 132.513 202.384 133.444 202.384 134.512V135.312H193.761V133.682H201.202L200.04 135.205V134.238C200.04 133.535 199.932 132.952 199.718 132.49C199.503 132.028 199.207 131.68 198.829 131.445C198.458 131.211 198.025 131.094 197.53 131.094C197.035 131.094 196.596 131.214 196.212 131.455C195.828 131.696 195.522 132.051 195.294 132.52C195.072 132.988 194.962 133.561 194.962 134.238V135.205C194.962 135.856 195.069 136.413 195.284 136.875C195.505 137.337 195.818 137.692 196.221 137.939C196.632 138.187 197.113 138.311 197.667 138.311C198.096 138.311 198.468 138.249 198.78 138.125C199.093 137.995 199.346 137.839 199.542 137.656C199.737 137.467 199.874 137.285 199.952 137.109L199.981 137.041H202.276L202.257 137.129C202.172 137.487 202.016 137.848 201.788 138.213C201.56 138.571 201.257 138.903 200.88 139.209C200.502 139.508 200.04 139.753 199.493 139.941C198.953 140.124 198.324 140.215 197.608 140.215ZM208.74 140.215C207.679 140.215 206.768 139.993 206.006 139.551C205.251 139.108 204.668 138.473 204.258 137.646C203.854 136.82 203.652 135.833 203.652 134.688V134.668C203.652 133.529 203.854 132.552 204.258 131.738C204.668 130.918 205.251 130.29 206.006 129.854C206.768 129.411 207.676 129.189 208.73 129.189C209.642 129.189 210.426 129.352 211.084 129.678C211.748 130.003 212.272 130.446 212.656 131.006C213.04 131.566 213.275 132.21 213.359 132.939V132.988H211.064L211.055 132.949C210.951 132.435 210.703 132.008 210.312 131.67C209.922 131.331 209.398 131.162 208.74 131.162C208.193 131.162 207.725 131.302 207.334 131.582C206.95 131.862 206.654 132.262 206.445 132.783C206.237 133.304 206.133 133.932 206.133 134.668V134.688C206.133 135.436 206.237 136.077 206.445 136.611C206.654 137.139 206.953 137.542 207.344 137.822C207.734 138.102 208.2 138.242 208.74 138.242C209.372 138.242 209.88 138.096 210.264 137.803C210.648 137.503 210.911 137.077 211.055 136.523L211.074 136.465H213.359L213.35 136.533C213.245 137.256 212.998 137.894 212.607 138.447C212.223 139.001 211.706 139.434 211.055 139.746C210.404 140.059 209.632 140.215 208.74 140.215ZM217.987 140.176C217.31 140.176 216.708 140.046 216.181 139.785C215.654 139.525 215.24 139.157 214.941 138.682C214.641 138.2 214.491 137.64 214.491 137.002V136.982C214.491 136.351 214.648 135.811 214.96 135.361C215.273 134.906 215.728 134.548 216.327 134.287C216.926 134.027 217.652 133.87 218.505 133.818L222.46 133.584V135.186L218.857 135.42C218.193 135.452 217.698 135.596 217.372 135.85C217.053 136.097 216.894 136.436 216.894 136.865V136.885C216.894 137.334 217.063 137.686 217.402 137.939C217.747 138.193 218.186 138.32 218.72 138.32C219.208 138.32 219.641 138.223 220.019 138.027C220.396 137.832 220.696 137.568 220.917 137.236C221.139 136.898 221.249 136.52 221.249 136.104V132.793C221.249 132.259 221.08 131.849 220.741 131.562C220.403 131.27 219.911 131.123 219.267 131.123C218.7 131.123 218.241 131.227 217.89 131.436C217.545 131.637 217.314 131.917 217.196 132.275L217.187 132.324H214.902L214.911 132.236C214.989 131.631 215.217 131.1 215.595 130.645C215.979 130.189 216.49 129.834 217.128 129.58C217.773 129.32 218.521 129.189 219.374 129.189C220.279 129.189 221.051 129.333 221.689 129.619C222.327 129.906 222.815 130.316 223.154 130.85C223.492 131.377 223.661 132.012 223.661 132.754V140H221.249V138.506H221.103C220.907 138.851 220.654 139.15 220.341 139.404C220.035 139.652 219.683 139.844 219.286 139.98C218.889 140.111 218.456 140.176 217.987 140.176ZM230.466 140V129.404H232.898V131.064H233.035C233.263 130.479 233.63 130.02 234.138 129.688C234.653 129.355 235.258 129.189 235.955 129.189C236.436 129.189 236.869 129.271 237.254 129.434C237.644 129.59 237.976 129.814 238.25 130.107C238.53 130.4 238.741 130.752 238.884 131.162H239.031C239.2 130.765 239.444 130.42 239.763 130.127C240.082 129.827 240.453 129.596 240.877 129.434C241.306 129.271 241.768 129.189 242.263 129.189C242.973 129.189 243.582 129.333 244.089 129.619C244.597 129.906 244.988 130.312 245.261 130.84C245.541 131.361 245.681 131.986 245.681 132.715V140H243.25V133.311C243.25 132.855 243.178 132.474 243.035 132.168C242.898 131.862 242.686 131.631 242.4 131.475C242.12 131.318 241.765 131.24 241.336 131.24C240.925 131.24 240.564 131.335 240.252 131.523C239.946 131.712 239.705 131.969 239.529 132.295C239.36 132.614 239.275 132.982 239.275 133.398V140H236.863V133.145C236.863 132.747 236.785 132.409 236.629 132.129C236.479 131.842 236.261 131.624 235.974 131.475C235.694 131.318 235.356 131.24 234.959 131.24C234.561 131.24 234.207 131.341 233.894 131.543C233.582 131.745 233.337 132.018 233.162 132.363C232.986 132.708 232.898 133.099 232.898 133.535V140H230.466ZM250.837 140.176C250.16 140.176 249.557 140.046 249.03 139.785C248.503 139.525 248.089 139.157 247.79 138.682C247.49 138.2 247.341 137.64 247.341 137.002V136.982C247.341 136.351 247.497 135.811 247.809 135.361C248.122 134.906 248.578 134.548 249.177 134.287C249.776 134.027 250.501 133.87 251.354 133.818L255.309 133.584V135.186L251.706 135.42C251.042 135.452 250.547 135.596 250.221 135.85C249.902 136.097 249.743 136.436 249.743 136.865V136.885C249.743 137.334 249.912 137.686 250.251 137.939C250.596 138.193 251.035 138.32 251.569 138.32C252.057 138.32 252.49 138.223 252.868 138.027C253.246 137.832 253.545 137.568 253.766 137.236C253.988 136.898 254.098 136.52 254.098 136.104V132.793C254.098 132.259 253.929 131.849 253.591 131.562C253.252 131.27 252.761 131.123 252.116 131.123C251.55 131.123 251.091 131.227 250.739 131.436C250.394 131.637 250.163 131.917 250.046 132.275L250.036 132.324H247.751L247.761 132.236C247.839 131.631 248.067 131.1 248.444 130.645C248.828 130.189 249.339 129.834 249.977 129.58C250.622 129.32 251.371 129.189 252.223 129.189C253.128 129.189 253.9 129.333 254.538 129.619C255.176 129.906 255.664 130.316 256.003 130.85C256.341 131.377 256.511 132.012 256.511 132.754V140H254.098V138.506H253.952C253.757 138.851 253.503 139.15 253.19 139.404C252.884 139.652 252.533 139.844 252.136 139.98C251.738 140.111 251.305 140.176 250.837 140.176ZM252.946 128.018H251.159L252.878 124.668H255.28L252.946 128.018ZM263.355 143.721C262.424 143.721 261.617 143.594 260.934 143.34C260.257 143.092 259.719 142.744 259.322 142.295C258.932 141.852 258.691 141.338 258.6 140.752L258.609 140.713H261.021L261.041 140.752C261.139 141.077 261.386 141.348 261.783 141.562C262.187 141.777 262.721 141.885 263.385 141.885C264.205 141.885 264.84 141.696 265.289 141.318C265.745 140.941 265.973 140.417 265.973 139.746V137.822H265.836C265.634 138.2 265.374 138.522 265.055 138.789C264.736 139.056 264.368 139.261 263.951 139.404C263.535 139.541 263.079 139.609 262.584 139.609C261.692 139.609 260.921 139.395 260.27 138.965C259.618 138.529 259.114 137.926 258.756 137.158C258.404 136.39 258.229 135.495 258.229 134.473V134.453C258.229 133.411 258.408 132.5 258.766 131.719C259.124 130.931 259.628 130.319 260.279 129.883C260.937 129.44 261.721 129.219 262.633 129.219C263.128 129.219 263.58 129.3 263.99 129.463C264.4 129.619 264.762 129.84 265.074 130.127C265.393 130.413 265.654 130.758 265.855 131.162H265.963V129.404H268.395V139.727C268.395 140.54 268.189 141.247 267.779 141.846C267.369 142.445 266.786 142.907 266.031 143.232C265.276 143.558 264.384 143.721 263.355 143.721ZM263.336 137.686C263.889 137.686 264.365 137.552 264.762 137.285C265.159 137.012 265.465 136.634 265.68 136.152C265.895 135.671 266.002 135.111 266.002 134.473V134.463C266.002 133.825 265.895 133.265 265.68 132.783C265.465 132.295 265.159 131.917 264.762 131.65C264.365 131.377 263.889 131.24 263.336 131.24C262.783 131.24 262.311 131.377 261.92 131.65C261.529 131.917 261.23 132.292 261.021 132.773C260.813 133.255 260.709 133.815 260.709 134.453V134.473C260.709 135.117 260.813 135.68 261.021 136.162C261.23 136.637 261.529 137.012 261.92 137.285C262.311 137.552 262.783 137.686 263.336 137.686ZM270.718 140V129.404H273.15V140H270.718ZM271.939 127.686C271.548 127.686 271.213 127.549 270.933 127.275C270.653 126.995 270.513 126.663 270.513 126.279C270.513 125.889 270.653 125.557 270.933 125.283C271.213 125.01 271.548 124.873 271.939 124.873C272.329 124.873 272.665 125.01 272.945 125.283C273.224 125.557 273.364 125.889 273.364 126.279C273.364 126.663 273.224 126.995 272.945 127.275C272.665 127.549 272.329 127.686 271.939 127.686ZM280.043 140.215C278.982 140.215 278.071 139.993 277.309 139.551C276.554 139.108 275.971 138.473 275.561 137.646C275.157 136.82 274.955 135.833 274.955 134.688V134.668C274.955 133.529 275.157 132.552 275.561 131.738C275.971 130.918 276.554 130.29 277.309 129.854C278.071 129.411 278.979 129.189 280.034 129.189C280.945 129.189 281.73 129.352 282.387 129.678C283.051 130.003 283.575 130.446 283.959 131.006C284.343 131.566 284.578 132.21 284.663 132.939V132.988H282.368L282.358 132.949C282.254 132.435 282.006 132.008 281.616 131.67C281.225 131.331 280.701 131.162 280.043 131.162C279.496 131.162 279.028 131.302 278.637 131.582C278.253 131.862 277.957 132.262 277.748 132.783C277.54 133.304 277.436 133.932 277.436 134.668V134.688C277.436 135.436 277.54 136.077 277.748 136.611C277.957 137.139 278.256 137.542 278.647 137.822C279.038 138.102 279.503 138.242 280.043 138.242C280.675 138.242 281.183 138.096 281.567 137.803C281.951 137.503 282.215 137.077 282.358 136.523L282.377 136.465H284.663L284.653 136.533C284.549 137.256 284.301 137.894 283.911 138.447C283.526 139.001 283.009 139.434 282.358 139.746C281.707 140.059 280.935 140.215 280.043 140.215ZM289.291 140.176C288.614 140.176 288.011 140.046 287.484 139.785C286.957 139.525 286.543 139.157 286.244 138.682C285.944 138.2 285.795 137.64 285.795 137.002V136.982C285.795 136.351 285.951 135.811 286.263 135.361C286.576 134.906 287.032 134.548 287.63 134.287C288.229 134.027 288.955 133.87 289.808 133.818L293.763 133.584V135.186L290.16 135.42C289.496 135.452 289.001 135.596 288.675 135.85C288.356 136.097 288.197 136.436 288.197 136.865V136.885C288.197 137.334 288.366 137.686 288.705 137.939C289.05 138.193 289.489 138.32 290.023 138.32C290.511 138.32 290.944 138.223 291.322 138.027C291.699 137.832 291.999 137.568 292.22 137.236C292.442 136.898 292.552 136.52 292.552 136.104V132.793C292.552 132.259 292.383 131.849 292.045 131.562C291.706 131.27 291.214 131.123 290.57 131.123C290.004 131.123 289.545 131.227 289.193 131.436C288.848 131.637 288.617 131.917 288.5 132.275L288.49 132.324H286.205L286.214 132.236C286.293 131.631 286.52 131.1 286.898 130.645C287.282 130.189 287.793 129.834 288.431 129.58C289.076 129.32 289.824 129.189 290.677 129.189C291.582 129.189 292.354 129.333 292.992 129.619C293.63 129.906 294.118 130.316 294.457 130.85C294.795 131.377 294.964 132.012 294.964 132.754V140H292.552V138.506H292.406C292.211 138.851 291.957 139.15 291.644 139.404C291.338 139.652 290.987 139.844 290.589 139.98C290.192 140.111 289.759 140.176 289.291 140.176Z" fill="#5C128A"/>
<rect width="402" height="71" rx="17" transform="matrix(1 0 0 -1 14 812)" fill="#B7A1CE"/>
<rect x="0.5" y="-0.5" width="401" height="70" rx="16.5" transform="matrix(1 0 0 -1 14 811)" stroke="#BCA3BC" stroke-opacity="0.74"/>
<rect width="385" height="54" rx="17" transform="matrix(1 0 0 -1 22 804)" fill="#C8B3DE"/>
<path d="M35 742H395V736C395 732.134 391.866 729 388 729H42C38.134 729 35 732.134 35 736V742Z" fill="#C8B3DE"/>
<path d="M394.5 741.5V736C394.5 732.41 391.59 729.5 388 729.5H42C38.4102 729.5 35.5 732.41 35.5 736V741.5H394.5Z" stroke="#BCA3BC" stroke-opacity="0.74"/>
</g>
<rect x="0.5" y="0.5" width="429" height="931" stroke="black"/>
<defs>
<clipPath id="clip0_700_2365">
<rect width="430" height="932" fill="white"/>
</clipPath>
</defs>
</svg>
