<svg width="52" height="113" viewBox="0 0 52 113" fill="none" xmlns="http://www.w3.org/2000/svg">
<rect x="0.500004" y="0.5" width="51" height="112" rx="3.08621" fill="#FFD285" stroke="#A07822"/>
<path d="M24.9377 6.67175C25.3866 6.23316 26.1031 6.23314 26.552 6.67175L35.2043 15.1259C35.945 15.8496 35.4323 17.1073 34.3967 17.1073L17.093 17.1073C16.0574 17.1073 15.5447 15.8496 16.2854 15.1259L24.9377 6.67175Z" fill="#A07822" stroke="#A07822"/>
<path d="M24.9338 105.267C25.3846 105.707 26.1052 105.707 26.5559 105.267L35.1956 96.8235C35.9393 96.0967 35.4249 94.8342 34.385 94.8342L17.1047 94.8342C16.0648 94.8342 15.5504 96.0967 16.2942 96.8235L24.9338 105.267Z" fill="#A07822" stroke="#A07822"/>
<path d="M24.894 32.2069C29.294 32.2071 33.2855 34.8577 36.1802 39.16C39.0746 43.462 40.8676 49.409 40.8677 55.9813C40.8677 62.5538 39.0747 68.5015 36.1802 72.8036C33.2855 77.1059 29.2939 79.7565 24.894 79.7567C20.494 79.7567 16.5017 77.106 13.6069 72.8036C10.7124 68.5015 8.92041 62.5538 8.92041 55.9813C8.92046 49.409 10.7126 43.462 13.6069 39.16C16.5017 34.8575 20.494 32.2069 24.894 32.2069Z" fill="#A07822" stroke="#A07822" stroke-width="0.137931"/>
</svg>
