<svg width="53" height="113" viewBox="0 0 53 113" fill="none" xmlns="http://www.w3.org/2000/svg">
<rect x="52.5" y="0.5" width="112" height="52" rx="2.80669" transform="rotate(90 52.5 0.5)" fill="#38BC59" fill-opacity="0.5" stroke="#1F9958"/>
<rect x="42.7342" y="10.3499" width="4.03058" height="29.7154" rx="2.01529" transform="rotate(90 42.7342 10.3499)" fill="#1F9958" stroke="#1F9958" stroke-width="0.495448"/>
<rect x="42.7342" y="93.0765" width="4.03058" height="29.7154" rx="2.01529" transform="rotate(90 42.7342 93.0765)" fill="#1F9958" stroke="#1F9958" stroke-width="0.495448"/>
<path d="M37.6122 51.4404C38.0867 51.4377 38.2931 52.0387 37.917 52.328L33.0807 56.0483C32.5752 56.4373 32.3743 57.1063 32.5814 57.7096L34.6029 63.5979C34.7602 64.0559 34.2352 64.4438 33.8436 64.159L28.9321 60.5866C28.399 60.1988 27.6745 60.2085 27.1519 60.6103L22.3997 64.2656C22.0206 64.5572 21.4886 64.1955 21.621 63.7358L23.3492 57.7352C23.5222 57.1345 23.3007 56.4894 22.7952 56.1216L17.7457 52.448C17.3589 52.1666 17.5564 51.5544 18.0347 51.5516L24.03 51.517C24.6892 51.5132 25.2669 51.0758 25.4493 50.4423L27.1308 44.6064C27.2649 44.1411 27.9174 44.1248 28.0747 44.5828L30.0962 50.471C30.3034 51.0743 30.8729 51.4788 31.5107 51.4753L37.6122 51.4404Z" fill="#1F9958" stroke="#1F9958" stroke-width="0.990895"/>
</svg>
