<svg width="212" height="129" viewBox="0 0 212 129" fill="none" xmlns="http://www.w3.org/2000/svg">
<path d="M196.492 75.0482C193.386 75.0203 136.618 85.6026 136.618 85.6026L103.122 35.1856C133.724 4.91739 205.239 -2.10891 205.85 6.01402C205.85 6.01402 204.42 75.1196 196.492 75.0482Z" fill="#FFF7DF"/>
<path d="M196.492 75.0482C193.386 75.0203 136.618 85.6026 136.618 85.6026L103.122 35.1856C133.724 4.91739 205.239 -2.10891 205.85 6.01402C205.85 6.01402 204.42 75.1196 196.492 75.0482Z" fill="#FFF7DF"/>
<path d="M18.3959 74.7714C21.7354 74.7434 138.546 73.2357 138.546 73.2357L103.122 35.1857C70.2092 4.91755 8.98856 -2.38578 8.33085 5.73715C8.33085 5.73715 9.86941 74.8428 18.3959 74.7714Z" fill="#FFF7DF"/>
<path d="M18.3959 74.7714C21.7354 74.7434 138.546 73.2357 138.546 73.2357L103.122 35.1857C70.2092 4.91755 8.98856 -2.38578 8.33085 5.73715C8.33085 5.73715 9.86941 74.8428 18.3959 74.7714Z" fill="#FFF7DF"/>
<path d="M120.07 37.811H85.0753L89.563 120.213C93.3346 130.716 113.386 131.432 116.632 120.213L120.07 37.811Z" fill="#7D4CC2" stroke="#7D4CC2" stroke-width="0.0954829"/>
<path d="M123.65 120.213L116.632 120.165L119.934 31.0359C119.985 29.6515 121.019 28.5022 122.391 28.3062L130.048 27.2124L123.65 120.213Z" fill="#5422A0" stroke="#5422A0" stroke-width="0.0954829"/>
<path d="M82.1153 120.261H89.563L85.6572 31.4959C85.5966 30.1194 84.5646 28.981 83.2005 28.7862L75.527 27.6899L82.1153 120.261Z" fill="#5422A0" stroke="#5422A0" stroke-width="0.0954829"/>
<path d="M75.5748 27.6423L67.5542 24.3959L71.8987 116.68L82.0199 120.213L75.5748 27.6423Z" fill="#7D4CC2"/>
<path d="M140.599 23.9185L130.096 27.4513M67.5542 24.3959L75.5748 27.6423L82.0199 120.213L71.8987 116.68L67.5542 24.3959Z" stroke="#7D4CC2" stroke-width="0.0954829"/>
<path d="M130.143 27.2292L138.164 23.9683L133.819 116.664L123.698 120.213L130.143 27.2292Z" fill="#7D4CC2" stroke="#7D4CC2" stroke-width="0.0954829"/>
<path d="M211.787 8.95357C211.925 5.66231 138.217 23.8955 138.217 23.8955L133.867 116.68C191.056 105.721 207.401 100.973 207.681 97.7991C210.271 68.4394 210.736 33.9223 211.787 8.95357Z" fill="#622FD2"/>
<path d="M0.00051739 8.92788C-0.137925 5.63662 67.5068 24.3223 67.5068 24.3223L71.8509 116.68C14.6621 105.721 4.3863 100.947 4.10629 97.7734C1.51607 68.4137 1.0508 33.8967 0.00051739 8.92788Z" fill="#622FD2"/>
</svg>
