<svg width="53" height="113" viewBox="0 0 53 113" fill="none" xmlns="http://www.w3.org/2000/svg">
<g clip-path="url(#clip0_625_3238)">
<path d="M6.17383 0V0.25H7.16602V0H8.15723V0.25H9.14844V0H10.1406V0.25H11.1318V0H12.123V0.25H13.1152V0H14.1064V0.25H15.0977V0H16.0889V0.25H17.0811V0H18.0723V0.25H19.0635V0H20.0557V0.25H21.0469V0H22.0381V0.25H23.0293V0H24.0215V0.25H25.0127V0H26.0039V0.25H26.9961V0H27.9873V0.25H28.9785V0H29.9707V0.25H30.9619V0H31.9531V0.25H32.9443V0H33.9365V0.25H34.9277V0H35.9189V0.25H36.9111V0H37.9023V0.25H38.8936V0H39.8848V0.25H40.877V0H41.8682V0.25H42.8594V0H43.8516V0.25H44.8428V0H45.834V0.25H46.8252V0H47.8174V0.25H48.3125C48.4798 0.25 48.6452 0.25605 48.8076 0.267578L48.8252 0.0185547V0.0175781C49.1762 0.042489 49.5155 0.0933493 49.8389 0.166016L49.7842 0.410156C50.1167 0.484898 50.4306 0.584217 50.7207 0.704102L50.8154 0.472656C51.1464 0.609395 51.4488 0.773131 51.7168 0.958008L51.5762 1.16309C51.8561 1.35628 52.0917 1.57246 52.2764 1.80371L52.4707 1.64746C52.6938 1.92676 52.8523 2.23117 52.9346 2.55273L52.6934 2.61523C52.7304 2.76042 52.75 2.90911 52.75 3.06055V3.56445H53V4.57324H52.75V5.58105H53V6.58984H52.75V7.59766H53V8.60645H52.75V9.61426H53V10.623H52.75V11.6309H53V12.6396H52.75V13.6475H53V14.6562H52.75V15.6641H53V16.6729H52.75V17.6807H53V18.6895H52.75V19.6973H53V20.7061H52.75V21.7139H53V22.7227H52.75V23.7305H53V24.7393H52.75V25.7471H53V26.7559H52.75V27.7637H53V28.7715H52.75V29.7803H53V30.7881H52.75V31.7969H53V32.8047H52.75V33.8135H53V34.8213H52.75V35.8301H53V36.8379H52.75V37.8467H53V38.8545H52.75V39.8633H53V40.8711H52.75V41.8799H53V42.8877H52.75V43.8965H53V44.9043H52.75V45.9131H53V46.9209H52.75V47.9297H53V48.9375H52.75V49.9463H53V50.9541H52.75V51.9629H53V52.9707H52.75V53.9795H53V54.9873H52.75V55.9961H53V57.0039H52.75V58.0127H53V59.0205H52.75V60.0293H53V61.0371H52.75V62.0459H53V63.0537H52.75V64.0625H53V65.0703H52.75V66.0791H53V67.0869H52.75V68.0957H53V69.1035H52.75V70.1123H53V71.1201H52.75V72.1289H53V73.1367H52.75V74.1455H53V75.1533H52.75V76.1621H53V77.1699H52.75V78.1787H53V79.1865H52.75V80.1953H53V81.2031H52.75V82.2119H53V83.2197H52.75V84.2285H53V85.2363H52.75V86.2451H53V87.2529H52.75V88.2617H53V89.2695H52.75V90.2783H53V91.2861H52.75V92.2949H53V93.3027H52.75V94.3105H53V95.3193H52.75V96.3271H53V97.3359H52.75V98.3438H53V99.3525H52.75V100.36H53V101.369H52.75V102.377H53V103.386H52.75V104.394H53V105.402H52.75V106.41H53V107.419H52.75V108.427H53V109.436H52.75V109.939C52.75 110.091 52.7304 110.24 52.6934 110.385L52.9346 110.446C52.8524 110.768 52.6938 111.072 52.4707 111.352L52.2764 111.196C52.0917 111.428 51.8561 111.644 51.5762 111.837L51.7168 112.041C51.4488 112.226 51.1465 112.39 50.8154 112.526L50.7207 112.296C50.4306 112.416 50.1167 112.515 49.7842 112.59L49.8389 112.833C49.5155 112.906 49.1762 112.957 48.8252 112.981L48.8076 112.732C48.6452 112.744 48.4798 112.75 48.3125 112.75H47.8174V113H46.8262V112.75H45.834V113H44.8428V112.75H43.8516V113H42.8594V112.75H41.8682V113H40.877V112.75H39.8848V113H38.8936V112.75H37.9023V113H36.9111V112.75H35.9189V113H34.9277V112.75H33.9365V113H32.9443V112.75H31.9531V113H30.9619V112.75H29.9707V113H28.9785V112.75H27.9873V113H26.9961V112.75H26.0039V113H25.0127V112.75H24.0215V113H23.0293V112.75H22.0381V113H21.0469V112.75H20.0557V113H19.0635V112.75H18.0723V113H17.0811V112.75H16.0889V113H15.0977V112.75H14.1064V113H13.1152V112.75H12.123V113H11.1318V112.75H10.1406V113H9.14844V112.75H8.15723V113H7.16602V112.75H6.1748V113H5.18262V112.75H4.6875C4.52024 112.75 4.35477 112.744 4.19238 112.732L4.1748 112.981H4.17383C3.82278 112.956 3.48355 112.906 3.16016 112.833L3.21582 112.59C2.88333 112.515 2.56935 112.416 2.2793 112.296L2.18359 112.526C1.85261 112.39 1.55019 112.226 1.28223 112.041L1.42383 111.837C1.14388 111.644 0.908294 111.428 0.723633 111.196L0.52832 111.352C0.305382 111.072 0.146532 110.768 0.0644531 110.446L0.306641 110.385C0.269558 110.24 0.25 110.091 0.25 109.939V109.436H0V108.427H0.25V107.419H0V106.41H0.25V105.402H0V104.394H0.25V103.386H0V102.377H0.25V101.369H0V100.36H0.25V99.3525H0V98.3438H0.25V97.3359H0V96.3271H0.25V95.3193H0V94.3105H0.25V93.3027H0V92.2939H0.25V91.2861H0V90.2773H0.25V89.2695H0V88.2607H0.25V87.2529H0V86.2441H0.25V85.2363H0V84.2285H0.25V83.2197H0V82.2119H0.25V81.2031H0V80.1953H0.25V79.1865H0V78.1787H0.25V77.1699H0V76.1621H0.25V75.1533H0V74.1455H0.25V73.1367H0V72.1289H0.25V71.1201H0V70.1123H0.25V69.1035H0V68.0957H0.25V67.0869H0V66.0791H0.25V65.0703H0V64.0625H0.25V63.0537H0V62.0459H0.25V61.0371H0V60.0293H0.25V59.0205H0V58.0127H0.25V57.0039H0V55.9961H0.25V54.9873H0V53.9795H0.25V52.9707H0V51.9629H0.25V50.9541H0V49.9463H0.25V48.9375H0V47.9297H0.25V46.9209H0V45.9131H0.25V44.9043H0V43.8965H0.25V42.8877H0V41.8799H0.25V40.8711H0V39.8633H0.25V38.8545H0V37.8467H0.25V36.8379H0V35.8301H0.25V34.8213H0V33.8135H0.25V32.8047H0V31.7969H0.25V30.7881H0V29.7803H0.25V28.7715H0V27.7637H0.25V26.7549H0V25.7471H0.25V24.7383H0V23.7305H0.25V22.7217H0V21.7139H0.25V20.7051H0V19.6973H0.25V18.6895H0V17.6807H0.25V16.6729H0V15.6641H0.25V14.6562H0V13.6475H0.25V12.6396H0V11.6309H0.25V10.623H0V9.61426H0.25V8.60645H0V7.59766H0.25V6.58984H0V5.58105H0.25V4.57324H0V3.56445H0.25V3.06055C0.25 2.90911 0.269558 2.76042 0.306641 2.61523L0.0644531 2.55273C0.146659 2.23127 0.305344 1.92669 0.52832 1.64746L0.723633 1.80371C0.908294 1.57246 1.14388 1.35628 1.42383 1.16309L1.28223 0.958008C1.55017 0.773098 1.85266 0.609437 2.18359 0.472656L2.2793 0.704102C2.56935 0.584218 2.88333 0.484898 3.21582 0.410156L3.16016 0.166016C3.48351 0.0933037 3.82283 0.0425365 4.17383 0.0175781L4.1748 0.0185547L4.19238 0.267578C4.35477 0.25605 4.52024 0.25 4.6875 0.25H5.18262V0H6.17383Z" fill="#F8F3FC" stroke="#5C128A" stroke-width="0.5" stroke-dasharray="1 1"/>
<path d="M48.4932 7.28882H5.13775C5.13775 7.28882 2.74077 8.88727 2.79422 10.1727C2.84518 11.3982 5.13775 12.88 5.13775 12.88H48.4932C48.4932 12.88 49.9909 11.2996 50.0255 10.1727C50.0621 8.98084 48.4932 7.28882 48.4932 7.28882Z" fill="#F8F3FC" stroke="#F8F3FC" stroke-width="0.5"/>
<path d="M44.6173 73.3912V39.6677C44.6173 39.6677 38.0772 39.2481 34.5221 37.9609C30.9669 36.6738 26.4098 33.076 26.4098 33.076C26.4098 33.076 22.2486 36.6738 18.6581 37.9609C15.0677 39.2481 8.02209 39.6677 8.02209 39.6677V73.3912C8.02209 73.3912 14.918 73.743 18.6581 75.0979C22.337 76.4307 26.4098 79.9828 26.4098 79.9828C26.4098 79.9828 30.9669 76.3851 34.5221 75.0979C38.0772 73.8108 44.6173 73.3912 44.6173 73.3912Z" fill="#F8F3FC"/>
<path d="M42.5443 71.9865V41.0134C42.5443 41.0134 36.6807 40.6279 33.4933 39.4458C30.306 38.2638 26.2203 34.9594 26.2203 34.9594C26.2203 34.9594 22.4895 38.2638 19.2706 39.4458C16.0515 40.6279 9.73474 41.0134 9.73474 41.0134V71.9865C9.73474 71.9865 15.9173 72.3096 19.2706 73.5541C22.5689 74.7782 26.2203 78.0406 26.2203 78.0406C26.2203 78.0406 30.306 74.7362 33.4933 73.5541C36.6807 72.372 42.5443 71.9865 42.5443 71.9865Z" fill="#F8F3FC"/>
<path d="M44.1667 16.9998H9.73474C9.73474 16.9998 10.8644 21.5848 14.6848 23.521C18.0902 25.2468 21.6906 26.2682 26.7687 26.2978C31.9792 26.3281 35.5102 25.6378 39.2166 23.521C42.6393 21.5662 44.1667 16.9998 44.1667 16.9998Z" fill="#F8F3FC" stroke="#F8F3FC"/>
<path d="M48.912 105.963H5.55658C5.55658 105.963 3.15959 104.364 3.21304 103.079C3.264 101.853 5.55658 100.372 5.55658 100.372H48.912C48.912 100.372 50.4097 101.952 50.4443 103.079C50.4809 104.271 48.912 105.963 48.912 105.963Z" fill="#F8F3FC"/>
<path d="M44.5855 96.2517H10.1536C10.1536 96.2517 11.2832 91.6666 15.1036 89.7305C18.509 88.0047 22.1094 86.9833 27.1875 86.9537C32.3981 86.9233 35.929 87.6137 39.6354 89.7305C43.0581 91.6852 44.5855 96.2517 44.5855 96.2517Z" fill="#F8F3FC" stroke="#F8F3FC"/>
<path d="M20.4524 71.465C19.7727 71.465 19.2571 71.2833 18.9055 70.92C18.554 70.5568 18.3782 70.0031 18.3782 69.2589V62.9044C18.3782 62.172 18.554 61.6241 18.9055 61.2609C19.2571 60.8976 19.7727 60.7159 20.4524 60.7159H28.8284C29.5139 60.7159 30.0295 60.8976 30.3752 61.2609C30.7268 61.6241 30.9026 62.172 30.9026 62.9044V69.2589C30.9026 70.0031 30.7268 70.5568 30.3752 70.92C30.0295 71.2833 29.5139 71.465 28.8284 71.465H20.4524ZM20.8655 69.6984H28.4241C28.6057 69.6984 28.7434 69.6456 28.8372 69.5402C28.9309 69.4406 28.9778 69.2882 28.9778 69.0831V63.0802C28.9778 62.881 28.9309 62.7316 28.8372 62.632C28.7434 62.5265 28.6057 62.4738 28.4241 62.4738H20.8655C20.6838 62.4738 20.5432 62.5265 20.4436 62.632C20.3499 62.7316 20.303 62.881 20.303 63.0802V69.0831C20.303 69.2882 20.3499 69.4406 20.4436 69.5402C20.5432 69.6456 20.6838 69.6984 20.8655 69.6984ZM20.0393 61.4982V58.6769C20.0393 57.6105 20.2502 56.7111 20.6721 55.9786C21.0999 55.2462 21.6624 54.6925 22.3596 54.3175C23.0569 53.9425 23.8157 53.755 24.636 53.755C25.4622 53.755 26.2239 53.9425 26.9211 54.3175C27.6243 54.6925 28.1868 55.2462 28.6086 55.9786C29.0364 56.7111 29.2502 57.6105 29.2502 58.6769V61.4982H27.4221V58.545C27.4221 57.9005 27.2932 57.3527 27.0354 56.9015C26.7834 56.4503 26.4465 56.1075 26.0247 55.8732C25.6086 55.6329 25.1458 55.5128 24.636 55.5128C24.1321 55.5128 23.6692 55.6329 23.2473 55.8732C22.8313 56.1075 22.4973 56.4503 22.2454 56.9015C21.9993 57.3527 21.8762 57.9005 21.8762 58.545V61.4982H20.0393Z" fill="#7D4CC2"/>
</g>
<defs>
<clipPath id="clip0_625_3238">
<rect width="53" height="113" fill="white"/>
</clipPath>
</defs>
</svg>
