<svg width="430" height="932" viewBox="0 0 430 932" fill="none" xmlns="http://www.w3.org/2000/svg">
<g clip-path="url(#clip0_672_2345)">
<rect width="430" height="932" fill="#FCFCFC"/>
<g opacity="0.8">
<rect x="126.281" width="87.362" height="50.6165" rx="11" fill="#E1C3FF" fill-opacity="0.35"/>
<rect x="126.781" y="0.5" width="86.362" height="49.6165" rx="10.5" stroke="#E1C3FF" stroke-opacity="0.35"/>
<rect x="117.717" y="119.639" width="87.362" height="50.6165" rx="11" fill="#E1C3FF" fill-opacity="0.35"/>
<rect x="118.217" y="120.139" width="86.362" height="49.6165" rx="10.5" stroke="#E1C3FF" stroke-opacity="0.35"/>
<rect x="117.717" y="239.278" width="87.362" height="50.6165" rx="11" fill="#E1C3FF" fill-opacity="0.35"/>
<rect x="118.217" y="239.778" width="86.362" height="49.6165" rx="10.5" stroke="#E1C3FF" stroke-opacity="0.35"/>
<rect x="116.004" y="358.917" width="87.362" height="50.6165" rx="11" fill="#E1C3FF" fill-opacity="0.35"/>
<rect x="116.504" y="359.417" width="86.362" height="49.6165" rx="10.5" stroke="#E1C3FF" stroke-opacity="0.35"/>
<rect x="73.179" y="59.8196" width="87.362" height="50.6165" rx="11" fill="#E1C3FF" fill-opacity="0.35"/>
<rect x="73.679" y="60.3196" width="86.362" height="49.6165" rx="10.5" stroke="#E1C3FF" stroke-opacity="0.35"/>
<rect x="64.6143" y="179.458" width="87.362" height="50.6165" rx="11" fill="#E1C3FF" fill-opacity="0.35"/>
<rect x="65.1143" y="179.958" width="86.362" height="49.6165" rx="10.5" stroke="#E1C3FF" stroke-opacity="0.35"/>
<rect x="64.6143" y="299.098" width="87.362" height="50.6165" rx="11" fill="#E1C3FF" fill-opacity="0.35"/>
<rect x="65.1143" y="299.598" width="86.362" height="49.6165" rx="10.5" stroke="#E1C3FF" stroke-opacity="0.35"/>
<rect x="59.4755" y="418.736" width="87.362" height="50.6165" rx="11" fill="#E1C3FF" fill-opacity="0.35"/>
<rect x="59.9755" y="419.236" width="86.362" height="49.6165" rx="10.5" stroke="#E1C3FF" stroke-opacity="0.35"/>
<rect x="-82.702" width="87.362" height="50.6165" rx="11" fill="#E1C3FF" fill-opacity="0.35"/>
<rect x="-82.202" y="0.5" width="86.362" height="49.6165" rx="10.5" stroke="#E1C3FF" stroke-opacity="0.35"/>
<rect x="230.773" width="87.362" height="50.6165" rx="11" fill="#E1C3FF" fill-opacity="0.35"/>
<rect x="231.273" y="0.5" width="86.362" height="49.6165" rx="10.5" stroke="#E1C3FF" stroke-opacity="0.35"/>
<rect x="222.208" y="119.639" width="87.362" height="50.6165" rx="11" fill="#E1C3FF" fill-opacity="0.35"/>
<rect x="222.708" y="120.139" width="86.362" height="49.6165" rx="10.5" stroke="#E1C3FF" stroke-opacity="0.35"/>
<rect x="222.208" y="239.278" width="87.362" height="50.6165" rx="11" fill="#E1C3FF" fill-opacity="0.35"/>
<rect x="222.708" y="239.778" width="86.362" height="49.6165" rx="10.5" stroke="#E1C3FF" stroke-opacity="0.35"/>
<rect x="220.495" y="358.917" width="87.362" height="50.6165" rx="11" fill="#E1C3FF" fill-opacity="0.35"/>
<rect x="220.995" y="359.417" width="86.362" height="49.6165" rx="10.5" stroke="#E1C3FF" stroke-opacity="0.35"/>
<rect x="177.671" y="59.8196" width="87.362" height="50.6165" rx="11" fill="#E1C3FF" fill-opacity="0.35"/>
<rect x="178.171" y="60.3196" width="86.362" height="49.6165" rx="10.5" stroke="#E1C3FF" stroke-opacity="0.35"/>
<rect x="169.106" y="179.458" width="87.362" height="50.6165" rx="11" fill="#E1C3FF" fill-opacity="0.35"/>
<rect x="169.606" y="179.958" width="86.362" height="49.6165" rx="10.5" stroke="#E1C3FF" stroke-opacity="0.35"/>
<rect x="169.106" y="299.098" width="87.362" height="50.6165" rx="11" fill="#E1C3FF" fill-opacity="0.35"/>
<rect x="169.606" y="299.598" width="86.362" height="49.6165" rx="10.5" stroke="#E1C3FF" stroke-opacity="0.35"/>
<rect x="163.967" y="418.736" width="87.362" height="50.6165" rx="11" fill="#E1C3FF" fill-opacity="0.35"/>
<rect x="164.467" y="419.236" width="86.362" height="49.6165" rx="10.5" stroke="#E1C3FF" stroke-opacity="0.35"/>
<rect x="429.479" y="358.917" width="87.362" height="50.6165" rx="11" fill="#E1C3FF" fill-opacity="0.35"/>
<rect x="429.979" y="359.417" width="86.362" height="49.6165" rx="10.5" stroke="#E1C3FF" stroke-opacity="0.35"/>
<rect x="386.654" y="59.8196" width="87.362" height="50.6165" rx="11" fill="#E1C3FF" fill-opacity="0.35"/>
<rect x="387.154" y="60.3196" width="86.362" height="49.6165" rx="10.5" stroke="#E1C3FF" stroke-opacity="0.35"/>
<rect x="378.09" y="179.458" width="87.362" height="50.6165" rx="11" fill="#E1C3FF" fill-opacity="0.35"/>
<rect x="378.59" y="179.958" width="86.362" height="49.6165" rx="10.5" stroke="#E1C3FF" stroke-opacity="0.35"/>
<rect x="369.525" y="299.098" width="87.362" height="50.6165" rx="11" fill="#E1C3FF" fill-opacity="0.35"/>
<rect x="370.025" y="299.598" width="86.362" height="49.6165" rx="10.5" stroke="#E1C3FF" stroke-opacity="0.35"/>
<rect x="364.386" y="418.736" width="87.362" height="50.6165" rx="11" fill="#E1C3FF" fill-opacity="0.35"/>
<rect x="364.886" y="419.236" width="86.362" height="49.6165" rx="10.5" stroke="#E1C3FF" stroke-opacity="0.35"/>
<rect x="21.7897" width="87.362" height="50.6165" rx="11" fill="#E1C3FF" fill-opacity="0.35"/>
<rect x="22.2897" y="0.5" width="86.362" height="49.6165" rx="10.5" stroke="#E1C3FF" stroke-opacity="0.35"/>
<rect x="13.2249" y="119.639" width="87.362" height="50.6165" rx="11" fill="#E1C3FF" fill-opacity="0.35"/>
<rect x="13.7249" y="120.139" width="86.362" height="49.6165" rx="10.5" stroke="#E1C3FF" stroke-opacity="0.35"/>
<rect x="13.2249" y="239.278" width="87.362" height="50.6165" rx="11" fill="#E1C3FF" fill-opacity="0.35"/>
<rect x="13.7249" y="239.778" width="86.362" height="49.6165" rx="10.5" stroke="#E1C3FF" stroke-opacity="0.35"/>
<rect x="11.5118" y="358.917" width="87.362" height="50.6165" rx="11" fill="#E1C3FF" fill-opacity="0.35"/>
<rect x="12.0118" y="359.417" width="86.362" height="49.6165" rx="10.5" stroke="#E1C3FF" stroke-opacity="0.35"/>
<rect x="-31.3126" y="59.8196" width="87.362" height="50.6165" rx="11" fill="#E1C3FF" fill-opacity="0.35"/>
<rect x="-30.8126" y="60.3196" width="86.362" height="49.6165" rx="10.5" stroke="#E1C3FF" stroke-opacity="0.35"/>
<rect x="-39.8776" y="179.458" width="87.362" height="50.6165" rx="11" fill="#E1C3FF" fill-opacity="0.35"/>
<rect x="-39.3776" y="179.958" width="86.362" height="49.6165" rx="10.5" stroke="#E1C3FF" stroke-opacity="0.35"/>
<rect x="-39.8776" y="299.098" width="87.362" height="50.6165" rx="11" fill="#E1C3FF" fill-opacity="0.35"/>
<rect x="-39.3776" y="299.598" width="86.362" height="49.6165" rx="10.5" stroke="#E1C3FF" stroke-opacity="0.35"/>
<rect x="-45.0164" y="418.736" width="87.362" height="50.6165" rx="11" fill="#E1C3FF" fill-opacity="0.35"/>
<rect x="-44.5164" y="419.236" width="86.362" height="49.6165" rx="10.5" stroke="#E1C3FF" stroke-opacity="0.35"/>
<rect x="335.265" width="87.362" height="50.6165" rx="11" fill="#E1C3FF" fill-opacity="0.35"/>
<rect x="335.765" y="0.5" width="86.362" height="49.6165" rx="10.5" stroke="#E1C3FF" stroke-opacity="0.35"/>
<rect x="326.7" y="119.639" width="87.362" height="50.6165" rx="11" fill="#E1C3FF" fill-opacity="0.35"/>
<rect x="327.2" y="120.139" width="86.362" height="49.6165" rx="10.5" stroke="#E1C3FF" stroke-opacity="0.35"/>
<rect x="326.7" y="239.278" width="87.362" height="50.6165" rx="11" fill="#E1C3FF" fill-opacity="0.35"/>
<rect x="327.2" y="239.778" width="86.362" height="49.6165" rx="10.5" stroke="#E1C3FF" stroke-opacity="0.35"/>
<rect x="324.987" y="358.917" width="87.362" height="50.6165" rx="11" fill="#E1C3FF" fill-opacity="0.35"/>
<rect x="325.487" y="359.417" width="86.362" height="49.6165" rx="10.5" stroke="#E1C3FF" stroke-opacity="0.35"/>
<rect x="282.163" y="59.8196" width="87.362" height="50.6165" rx="11" fill="#E1C3FF" fill-opacity="0.35"/>
<rect x="282.663" y="60.3196" width="86.362" height="49.6165" rx="10.5" stroke="#E1C3FF" stroke-opacity="0.35"/>
<rect x="273.598" y="179.458" width="87.362" height="50.6165" rx="11" fill="#E1C3FF" fill-opacity="0.35"/>
<rect x="274.098" y="179.958" width="86.362" height="49.6165" rx="10.5" stroke="#E1C3FF" stroke-opacity="0.35"/>
<rect x="265.033" y="299.098" width="87.362" height="50.6165" rx="11" fill="#E1C3FF" fill-opacity="0.35"/>
<rect x="265.533" y="299.598" width="86.362" height="49.6165" rx="10.5" stroke="#E1C3FF" stroke-opacity="0.35"/>
<rect x="259.894" y="418.736" width="87.362" height="50.6165" rx="11" fill="#E1C3FF" fill-opacity="0.35"/>
<rect x="260.394" y="419.236" width="86.362" height="49.6165" rx="10.5" stroke="#E1C3FF" stroke-opacity="0.35"/>
<rect x="126.281" y="477.353" width="87.362" height="50.6165" rx="11" fill="#E1C3FF" fill-opacity="0.35"/>
<rect x="126.781" y="477.853" width="86.362" height="49.6165" rx="10.5" stroke="#E1C3FF" stroke-opacity="0.35"/>
<rect x="117.717" y="596.992" width="87.362" height="50.6165" rx="11" fill="#E1C3FF" fill-opacity="0.35"/>
<rect x="118.217" y="597.492" width="86.362" height="49.6165" rx="10.5" stroke="#E1C3FF" stroke-opacity="0.35"/>
<rect x="117.717" y="716.631" width="87.362" height="50.6165" rx="11" fill="#E1C3FF" fill-opacity="0.35"/>
<rect x="118.217" y="717.131" width="86.362" height="49.6165" rx="10.5" stroke="#E1C3FF" stroke-opacity="0.35"/>
<rect x="116.004" y="836.27" width="87.362" height="50.6165" rx="11" fill="#E1C3FF" fill-opacity="0.35"/>
<rect x="116.504" y="836.77" width="86.362" height="49.6165" rx="10.5" stroke="#E1C3FF" stroke-opacity="0.35"/>
<rect x="73.179" y="537.173" width="87.362" height="50.6165" rx="11" fill="#E1C3FF" fill-opacity="0.35"/>
<rect x="73.679" y="537.673" width="86.362" height="49.6165" rx="10.5" stroke="#E1C3FF" stroke-opacity="0.35"/>
<rect x="64.6143" y="656.811" width="87.362" height="50.6165" rx="11" fill="#E1C3FF" fill-opacity="0.35"/>
<rect x="65.1143" y="657.311" width="86.362" height="49.6165" rx="10.5" stroke="#E1C3FF" stroke-opacity="0.35"/>
<rect x="64.6143" y="776.451" width="87.362" height="50.6165" rx="11" fill="#E1C3FF" fill-opacity="0.35"/>
<rect x="65.1143" y="776.951" width="86.362" height="49.6165" rx="10.5" stroke="#E1C3FF" stroke-opacity="0.35"/>
<rect x="59.4755" y="896.09" width="87.362" height="50.6165" rx="11" fill="#E1C3FF" fill-opacity="0.35"/>
<rect x="59.9755" y="896.59" width="86.362" height="49.6165" rx="10.5" stroke="#E1C3FF" stroke-opacity="0.35"/>
<rect x="-82.702" y="477.353" width="87.362" height="50.6165" rx="11" fill="#E1C3FF" fill-opacity="0.35"/>
<rect x="-82.202" y="477.853" width="86.362" height="49.6165" rx="10.5" stroke="#E1C3FF" stroke-opacity="0.35"/>
<rect x="230.773" y="477.353" width="87.362" height="50.6165" rx="11" fill="#E1C3FF" fill-opacity="0.35"/>
<rect x="231.273" y="477.853" width="86.362" height="49.6165" rx="10.5" stroke="#E1C3FF" stroke-opacity="0.35"/>
<rect x="222.208" y="596.992" width="87.362" height="50.6165" rx="11" fill="#E1C3FF" fill-opacity="0.35"/>
<rect x="222.708" y="597.492" width="86.362" height="49.6165" rx="10.5" stroke="#E1C3FF" stroke-opacity="0.35"/>
<rect x="222.208" y="716.631" width="87.362" height="50.6165" rx="11" fill="#E1C3FF" fill-opacity="0.35"/>
<rect x="222.708" y="717.131" width="86.362" height="49.6165" rx="10.5" stroke="#E1C3FF" stroke-opacity="0.35"/>
<rect x="220.495" y="836.27" width="87.362" height="50.6165" rx="11" fill="#E1C3FF" fill-opacity="0.35"/>
<rect x="220.995" y="836.77" width="86.362" height="49.6165" rx="10.5" stroke="#E1C3FF" stroke-opacity="0.35"/>
<rect x="177.671" y="537.173" width="87.362" height="50.6165" rx="11" fill="#E1C3FF" fill-opacity="0.35"/>
<rect x="178.171" y="537.673" width="86.362" height="49.6165" rx="10.5" stroke="#E1C3FF" stroke-opacity="0.35"/>
<rect x="169.106" y="656.811" width="87.362" height="50.6165" rx="11" fill="#E1C3FF" fill-opacity="0.35"/>
<rect x="169.606" y="657.311" width="86.362" height="49.6165" rx="10.5" stroke="#E1C3FF" stroke-opacity="0.35"/>
<rect x="169.106" y="776.451" width="87.362" height="50.6165" rx="11" fill="#E1C3FF" fill-opacity="0.35"/>
<rect x="169.606" y="776.951" width="86.362" height="49.6165" rx="10.5" stroke="#E1C3FF" stroke-opacity="0.35"/>
<rect x="163.967" y="896.09" width="87.362" height="50.6165" rx="11" fill="#E1C3FF" fill-opacity="0.35"/>
<rect x="164.467" y="896.59" width="86.362" height="49.6165" rx="10.5" stroke="#E1C3FF" stroke-opacity="0.35"/>
<rect x="429.479" y="836.27" width="87.362" height="50.6165" rx="11" fill="#E1C3FF" fill-opacity="0.35"/>
<rect x="429.979" y="836.77" width="86.362" height="49.6165" rx="10.5" stroke="#E1C3FF" stroke-opacity="0.35"/>
<rect x="386.654" y="537.173" width="87.362" height="50.6165" rx="11" fill="#E1C3FF" fill-opacity="0.35"/>
<rect x="387.154" y="537.673" width="86.362" height="49.6165" rx="10.5" stroke="#E1C3FF" stroke-opacity="0.35"/>
<rect x="378.09" y="656.811" width="87.362" height="50.6165" rx="11" fill="#E1C3FF" fill-opacity="0.35"/>
<rect x="378.59" y="657.311" width="86.362" height="49.6165" rx="10.5" stroke="#E1C3FF" stroke-opacity="0.35"/>
<rect x="369.525" y="776.451" width="87.362" height="50.6165" rx="11" fill="#E1C3FF" fill-opacity="0.35"/>
<rect x="370.025" y="776.951" width="86.362" height="49.6165" rx="10.5" stroke="#E1C3FF" stroke-opacity="0.35"/>
<rect x="364.386" y="896.09" width="87.362" height="50.6165" rx="11" fill="#E1C3FF" fill-opacity="0.35"/>
<rect x="364.886" y="896.59" width="86.362" height="49.6165" rx="10.5" stroke="#E1C3FF" stroke-opacity="0.35"/>
<rect x="21.7897" y="477.353" width="87.362" height="50.6165" rx="11" fill="#E1C3FF" fill-opacity="0.35"/>
<rect x="22.2897" y="477.853" width="86.362" height="49.6165" rx="10.5" stroke="#E1C3FF" stroke-opacity="0.35"/>
<rect x="13.2249" y="596.992" width="87.362" height="50.6165" rx="11" fill="#E1C3FF" fill-opacity="0.35"/>
<rect x="13.7249" y="597.492" width="86.362" height="49.6165" rx="10.5" stroke="#E1C3FF" stroke-opacity="0.35"/>
<rect x="13.2249" y="716.631" width="87.362" height="50.6165" rx="11" fill="#E1C3FF" fill-opacity="0.35"/>
<rect x="13.7249" y="717.131" width="86.362" height="49.6165" rx="10.5" stroke="#E1C3FF" stroke-opacity="0.35"/>
<rect x="11.5118" y="836.27" width="87.362" height="50.6165" rx="11" fill="#E1C3FF" fill-opacity="0.35"/>
<rect x="12.0118" y="836.77" width="86.362" height="49.6165" rx="10.5" stroke="#E1C3FF" stroke-opacity="0.35"/>
<rect x="-31.3126" y="537.173" width="87.362" height="50.6165" rx="11" fill="#E1C3FF" fill-opacity="0.35"/>
<rect x="-30.8126" y="537.673" width="86.362" height="49.6165" rx="10.5" stroke="#E1C3FF" stroke-opacity="0.35"/>
<rect x="-39.8776" y="656.811" width="87.362" height="50.6165" rx="11" fill="#E1C3FF" fill-opacity="0.35"/>
<rect x="-39.3776" y="657.311" width="86.362" height="49.6165" rx="10.5" stroke="#E1C3FF" stroke-opacity="0.35"/>
<rect x="-39.8776" y="776.451" width="87.362" height="50.6165" rx="11" fill="#E1C3FF" fill-opacity="0.35"/>
<rect x="-39.3776" y="776.951" width="86.362" height="49.6165" rx="10.5" stroke="#E1C3FF" stroke-opacity="0.35"/>
<rect x="-45.0164" y="896.09" width="87.362" height="50.6165" rx="11" fill="#E1C3FF" fill-opacity="0.35"/>
<rect x="-44.5164" y="896.59" width="86.362" height="49.6165" rx="10.5" stroke="#E1C3FF" stroke-opacity="0.35"/>
<rect x="335.265" y="477.353" width="87.362" height="50.6165" rx="11" fill="#E1C3FF" fill-opacity="0.35"/>
<rect x="335.765" y="477.853" width="86.362" height="49.6165" rx="10.5" stroke="#E1C3FF" stroke-opacity="0.35"/>
<rect x="326.7" y="596.992" width="87.362" height="50.6165" rx="11" fill="#E1C3FF" fill-opacity="0.35"/>
<rect x="327.2" y="597.492" width="86.362" height="49.6165" rx="10.5" stroke="#E1C3FF" stroke-opacity="0.35"/>
<rect x="326.7" y="716.631" width="87.362" height="50.6165" rx="11" fill="#E1C3FF" fill-opacity="0.35"/>
<rect x="327.2" y="717.131" width="86.362" height="49.6165" rx="10.5" stroke="#E1C3FF" stroke-opacity="0.35"/>
<rect x="324.987" y="836.27" width="87.362" height="50.6165" rx="11" fill="#E1C3FF" fill-opacity="0.35"/>
<rect x="325.487" y="836.77" width="86.362" height="49.6165" rx="10.5" stroke="#E1C3FF" stroke-opacity="0.35"/>
<rect x="282.163" y="537.173" width="87.362" height="50.6165" rx="11" fill="#E1C3FF" fill-opacity="0.35"/>
<rect x="282.663" y="537.673" width="86.362" height="49.6165" rx="10.5" stroke="#E1C3FF" stroke-opacity="0.35"/>
<rect x="273.598" y="656.811" width="87.362" height="50.6165" rx="11" fill="#E1C3FF" fill-opacity="0.35"/>
<rect x="274.098" y="657.311" width="86.362" height="49.6165" rx="10.5" stroke="#E1C3FF" stroke-opacity="0.35"/>
<rect x="265.033" y="776.451" width="87.362" height="50.6165" rx="11" fill="#E1C3FF" fill-opacity="0.35"/>
<rect x="265.533" y="776.951" width="86.362" height="49.6165" rx="10.5" stroke="#E1C3FF" stroke-opacity="0.35"/>
<rect x="259.894" y="896.09" width="87.362" height="50.6165" rx="11" fill="#E1C3FF" fill-opacity="0.35"/>
<rect x="260.394" y="896.59" width="86.362" height="49.6165" rx="10.5" stroke="#E1C3FF" stroke-opacity="0.35"/>
</g>
<rect x="39.5" y="182.5" width="350" height="547" fill="#F8F3FC" stroke="#AB8EC9"/>
<rect x="14.5" y="99.5" width="401" height="70" rx="16.5" fill="#B7A1CE" stroke="#AB8EC9"/>
<rect x="22" y="106" width="385" height="54" rx="17" fill="#C8B3DE"/>
<path d="M394.5 169.5V176C394.5 179.59 391.59 182.5 388 182.5H42C38.4102 182.5 35.5 179.59 35.5 176V169.5H394.5Z" fill="#C8B3DE" stroke="#AB8EC9"/>
<rect x="57.5" y="356.5" width="314" height="45" rx="7.5" fill="#D8C8EA" stroke="#CDBACC"/>
<rect x="57.5" y="610.5" width="314" height="45" rx="7.5" fill="#D8C8EA" stroke="#CDBACC"/>
<path d="M136.598 140V138.047H140.758C141.689 138.047 142.396 137.858 142.877 137.48C143.359 137.103 143.6 136.556 143.6 135.84V135.82C143.6 135.345 143.489 134.945 143.268 134.619C143.047 134.294 142.715 134.049 142.272 133.887C141.836 133.724 141.295 133.643 140.651 133.643H136.598V131.855H140.25C141.149 131.855 141.832 131.683 142.301 131.338C142.77 130.993 143.004 130.498 143.004 129.854V129.834C143.004 129.209 142.793 128.724 142.37 128.379C141.946 128.034 141.354 127.861 140.592 127.861H136.598V125.908H141.207C142.099 125.908 142.864 126.051 143.502 126.338C144.14 126.624 144.629 127.031 144.967 127.559C145.312 128.079 145.485 128.701 145.485 129.424V129.443C145.485 129.938 145.371 130.4 145.143 130.83C144.922 131.26 144.619 131.621 144.235 131.914C143.857 132.207 143.427 132.389 142.946 132.461V132.607C143.584 132.666 144.144 132.848 144.625 133.154C145.114 133.454 145.495 133.848 145.768 134.336C146.041 134.824 146.178 135.374 146.178 135.986V136.006C146.178 136.826 145.983 137.536 145.592 138.135C145.202 138.734 144.645 139.196 143.922 139.521C143.2 139.84 142.337 140 141.334 140H136.598ZM135.338 140V125.908H137.858V140H135.338ZM148.033 140V129.404H150.464V140H148.033ZM149.254 127.686C148.863 127.686 148.528 127.549 148.248 127.275C147.968 126.995 147.828 126.663 147.828 126.279C147.828 125.889 147.968 125.557 148.248 125.283C148.528 125.01 148.863 124.873 149.254 124.873C149.644 124.873 149.979 125.01 150.259 125.283C150.539 125.557 150.679 125.889 150.679 126.279C150.679 126.663 150.539 126.995 150.259 127.275C149.979 127.549 149.644 127.686 149.254 127.686ZM158.677 140.186C158.182 140.186 157.723 140.111 157.3 139.961C156.883 139.811 156.518 139.596 156.206 139.316C155.893 139.036 155.639 138.701 155.444 138.311H155.298V140H152.866V125.361H155.298V131.123H155.444C155.633 130.726 155.887 130.387 156.206 130.107C156.525 129.827 156.893 129.609 157.309 129.453C157.733 129.297 158.188 129.219 158.677 129.219C159.575 129.219 160.35 129.44 161.001 129.883C161.652 130.326 162.153 130.957 162.505 131.777C162.856 132.591 163.032 133.564 163.032 134.697V134.707C163.032 135.827 162.853 136.797 162.495 137.617C162.143 138.438 161.642 139.072 160.991 139.521C160.34 139.964 159.568 140.186 158.677 140.186ZM157.925 138.135C158.471 138.135 158.94 137.998 159.331 137.725C159.728 137.451 160.031 137.057 160.239 136.543C160.454 136.029 160.561 135.417 160.561 134.707V134.697C160.561 133.981 160.454 133.369 160.239 132.861C160.031 132.354 159.728 131.963 159.331 131.689C158.94 131.41 158.471 131.27 157.925 131.27C157.391 131.27 156.922 131.41 156.518 131.689C156.121 131.963 155.812 132.357 155.591 132.871C155.376 133.379 155.268 133.988 155.268 134.697V134.717C155.268 135.413 155.376 136.019 155.591 136.533C155.812 137.048 156.121 137.445 156.518 137.725C156.915 137.998 157.384 138.135 157.925 138.135ZM164.916 140V125.361H167.348V140H164.916ZM169.769 140V129.404H172.2V140H169.769ZM170.989 127.686C170.599 127.686 170.264 127.549 169.984 127.275C169.704 126.995 169.564 126.663 169.564 126.279C169.564 125.889 169.704 125.557 169.984 125.283C170.264 125.01 170.599 124.873 170.989 124.873C171.38 124.873 171.715 125.01 171.995 125.283C172.275 125.557 172.415 125.889 172.415 126.279C172.415 126.663 172.275 126.995 171.995 127.275C171.715 127.549 171.38 127.686 170.989 127.686ZM179.114 140.215C178.066 140.215 177.157 139.993 176.389 139.551C175.627 139.108 175.038 138.477 174.621 137.656C174.211 136.829 174.006 135.846 174.006 134.707V134.688C174.006 133.555 174.215 132.578 174.631 131.758C175.048 130.931 175.637 130.296 176.399 129.854C177.167 129.411 178.072 129.189 179.114 129.189C180.162 129.189 181.067 129.411 181.829 129.854C182.59 130.296 183.179 130.928 183.596 131.748C184.013 132.568 184.221 133.548 184.221 134.688V134.707C184.221 135.846 184.013 136.829 183.596 137.656C183.186 138.477 182.6 139.108 181.838 139.551C181.077 139.993 180.168 140.215 179.114 140.215ZM179.114 138.242C179.667 138.242 180.139 138.102 180.53 137.822C180.92 137.542 181.22 137.139 181.428 136.611C181.636 136.084 181.741 135.449 181.741 134.707V134.688C181.741 133.945 181.636 133.314 181.428 132.793C181.22 132.266 180.92 131.862 180.53 131.582C180.139 131.302 179.667 131.162 179.114 131.162C178.567 131.162 178.098 131.302 177.707 131.582C177.317 131.862 177.017 132.266 176.809 132.793C176.601 133.314 176.496 133.945 176.496 134.688V134.707C176.496 135.456 176.601 136.094 176.809 136.621C177.017 137.148 177.317 137.552 177.707 137.832C178.098 138.105 178.567 138.242 179.114 138.242ZM190.109 140.088C188.924 140.088 188.061 139.863 187.521 139.414C186.987 138.958 186.72 138.21 186.72 137.168V131.279H185.109V129.404H186.72V126.777H189.191V129.404H191.359V131.279H189.191V136.689C189.191 137.21 189.302 137.588 189.523 137.822C189.751 138.05 190.109 138.164 190.597 138.164C190.754 138.164 190.887 138.161 190.998 138.154C191.115 138.141 191.235 138.132 191.359 138.125V139.98C191.196 140.007 191.007 140.029 190.793 140.049C190.578 140.075 190.35 140.088 190.109 140.088ZM197.608 140.215C196.56 140.215 195.655 139.993 194.893 139.551C194.138 139.102 193.555 138.467 193.145 137.646C192.742 136.826 192.54 135.853 192.54 134.727V134.717C192.54 133.604 192.742 132.633 193.145 131.807C193.555 130.98 194.132 130.339 194.874 129.883C195.616 129.421 196.492 129.189 197.501 129.189C198.503 129.189 199.369 129.411 200.098 129.854C200.834 130.296 201.397 130.918 201.788 131.719C202.185 132.513 202.384 133.444 202.384 134.512V135.312H193.761V133.682H201.202L200.04 135.205V134.238C200.04 133.535 199.932 132.952 199.718 132.49C199.503 132.028 199.207 131.68 198.829 131.445C198.458 131.211 198.025 131.094 197.53 131.094C197.035 131.094 196.596 131.214 196.212 131.455C195.828 131.696 195.522 132.051 195.294 132.52C195.072 132.988 194.962 133.561 194.962 134.238V135.205C194.962 135.856 195.069 136.413 195.284 136.875C195.505 137.337 195.818 137.692 196.221 137.939C196.632 138.187 197.113 138.311 197.667 138.311C198.096 138.311 198.468 138.249 198.78 138.125C199.093 137.995 199.346 137.839 199.542 137.656C199.737 137.467 199.874 137.285 199.952 137.109L199.981 137.041H202.276L202.257 137.129C202.172 137.487 202.016 137.848 201.788 138.213C201.56 138.571 201.257 138.903 200.88 139.209C200.502 139.508 200.04 139.753 199.493 139.941C198.953 140.124 198.324 140.215 197.608 140.215ZM208.74 140.215C207.679 140.215 206.768 139.993 206.006 139.551C205.251 139.108 204.668 138.473 204.258 137.646C203.854 136.82 203.652 135.833 203.652 134.688V134.668C203.652 133.529 203.854 132.552 204.258 131.738C204.668 130.918 205.251 130.29 206.006 129.854C206.768 129.411 207.676 129.189 208.73 129.189C209.642 129.189 210.426 129.352 211.084 129.678C211.748 130.003 212.272 130.446 212.656 131.006C213.04 131.566 213.275 132.21 213.359 132.939V132.988H211.064L211.055 132.949C210.951 132.435 210.703 132.008 210.312 131.67C209.922 131.331 209.398 131.162 208.74 131.162C208.193 131.162 207.725 131.302 207.334 131.582C206.95 131.862 206.654 132.262 206.445 132.783C206.237 133.304 206.133 133.932 206.133 134.668V134.688C206.133 135.436 206.237 136.077 206.445 136.611C206.654 137.139 206.953 137.542 207.344 137.822C207.734 138.102 208.2 138.242 208.74 138.242C209.372 138.242 209.88 138.096 210.264 137.803C210.648 137.503 210.911 137.077 211.055 136.523L211.074 136.465H213.359L213.35 136.533C213.245 137.256 212.998 137.894 212.607 138.447C212.223 139.001 211.706 139.434 211.055 139.746C210.404 140.059 209.632 140.215 208.74 140.215ZM217.987 140.176C217.31 140.176 216.708 140.046 216.181 139.785C215.654 139.525 215.24 139.157 214.941 138.682C214.641 138.2 214.491 137.64 214.491 137.002V136.982C214.491 136.351 214.648 135.811 214.96 135.361C215.273 134.906 215.728 134.548 216.327 134.287C216.926 134.027 217.652 133.87 218.505 133.818L222.46 133.584V135.186L218.857 135.42C218.193 135.452 217.698 135.596 217.372 135.85C217.053 136.097 216.894 136.436 216.894 136.865V136.885C216.894 137.334 217.063 137.686 217.402 137.939C217.747 138.193 218.186 138.32 218.72 138.32C219.208 138.32 219.641 138.223 220.019 138.027C220.396 137.832 220.696 137.568 220.917 137.236C221.139 136.898 221.249 136.52 221.249 136.104V132.793C221.249 132.259 221.08 131.849 220.741 131.562C220.403 131.27 219.911 131.123 219.267 131.123C218.7 131.123 218.241 131.227 217.89 131.436C217.545 131.637 217.314 131.917 217.196 132.275L217.187 132.324H214.902L214.911 132.236C214.989 131.631 215.217 131.1 215.595 130.645C215.979 130.189 216.49 129.834 217.128 129.58C217.773 129.32 218.521 129.189 219.374 129.189C220.279 129.189 221.051 129.333 221.689 129.619C222.327 129.906 222.815 130.316 223.154 130.85C223.492 131.377 223.661 132.012 223.661 132.754V140H221.249V138.506H221.103C220.907 138.851 220.654 139.15 220.341 139.404C220.035 139.652 219.683 139.844 219.286 139.98C218.889 140.111 218.456 140.176 217.987 140.176ZM230.466 140V129.404H232.898V131.064H233.035C233.263 130.479 233.63 130.02 234.138 129.688C234.653 129.355 235.258 129.189 235.955 129.189C236.436 129.189 236.869 129.271 237.254 129.434C237.644 129.59 237.976 129.814 238.25 130.107C238.53 130.4 238.741 130.752 238.884 131.162H239.031C239.2 130.765 239.444 130.42 239.763 130.127C240.082 129.827 240.453 129.596 240.877 129.434C241.306 129.271 241.768 129.189 242.263 129.189C242.973 129.189 243.582 129.333 244.089 129.619C244.597 129.906 244.988 130.312 245.261 130.84C245.541 131.361 245.681 131.986 245.681 132.715V140H243.25V133.311C243.25 132.855 243.178 132.474 243.035 132.168C242.898 131.862 242.686 131.631 242.4 131.475C242.12 131.318 241.765 131.24 241.336 131.24C240.925 131.24 240.564 131.335 240.252 131.523C239.946 131.712 239.705 131.969 239.529 132.295C239.36 132.614 239.275 132.982 239.275 133.398V140H236.863V133.145C236.863 132.747 236.785 132.409 236.629 132.129C236.479 131.842 236.261 131.624 235.974 131.475C235.694 131.318 235.356 131.24 234.959 131.24C234.561 131.24 234.207 131.341 233.894 131.543C233.582 131.745 233.337 132.018 233.162 132.363C232.986 132.708 232.898 133.099 232.898 133.535V140H230.466ZM250.837 140.176C250.16 140.176 249.557 140.046 249.03 139.785C248.503 139.525 248.089 139.157 247.79 138.682C247.49 138.2 247.341 137.64 247.341 137.002V136.982C247.341 136.351 247.497 135.811 247.809 135.361C248.122 134.906 248.578 134.548 249.177 134.287C249.776 134.027 250.501 133.87 251.354 133.818L255.309 133.584V135.186L251.706 135.42C251.042 135.452 250.547 135.596 250.221 135.85C249.902 136.097 249.743 136.436 249.743 136.865V136.885C249.743 137.334 249.912 137.686 250.251 137.939C250.596 138.193 251.035 138.32 251.569 138.32C252.057 138.32 252.49 138.223 252.868 138.027C253.246 137.832 253.545 137.568 253.766 137.236C253.988 136.898 254.098 136.52 254.098 136.104V132.793C254.098 132.259 253.929 131.849 253.591 131.562C253.252 131.27 252.761 131.123 252.116 131.123C251.55 131.123 251.091 131.227 250.739 131.436C250.394 131.637 250.163 131.917 250.046 132.275L250.036 132.324H247.751L247.761 132.236C247.839 131.631 248.067 131.1 248.444 130.645C248.828 130.189 249.339 129.834 249.977 129.58C250.622 129.32 251.371 129.189 252.223 129.189C253.128 129.189 253.9 129.333 254.538 129.619C255.176 129.906 255.664 130.316 256.003 130.85C256.341 131.377 256.511 132.012 256.511 132.754V140H254.098V138.506H253.952C253.757 138.851 253.503 139.15 253.19 139.404C252.884 139.652 252.533 139.844 252.136 139.98C251.738 140.111 251.305 140.176 250.837 140.176ZM252.946 128.018H251.159L252.878 124.668H255.28L252.946 128.018ZM263.355 143.721C262.424 143.721 261.617 143.594 260.934 143.34C260.257 143.092 259.719 142.744 259.322 142.295C258.932 141.852 258.691 141.338 258.6 140.752L258.609 140.713H261.021L261.041 140.752C261.139 141.077 261.386 141.348 261.783 141.562C262.187 141.777 262.721 141.885 263.385 141.885C264.205 141.885 264.84 141.696 265.289 141.318C265.745 140.941 265.973 140.417 265.973 139.746V137.822H265.836C265.634 138.2 265.374 138.522 265.055 138.789C264.736 139.056 264.368 139.261 263.951 139.404C263.535 139.541 263.079 139.609 262.584 139.609C261.692 139.609 260.921 139.395 260.27 138.965C259.618 138.529 259.114 137.926 258.756 137.158C258.404 136.39 258.229 135.495 258.229 134.473V134.453C258.229 133.411 258.408 132.5 258.766 131.719C259.124 130.931 259.628 130.319 260.279 129.883C260.937 129.44 261.721 129.219 262.633 129.219C263.128 129.219 263.58 129.3 263.99 129.463C264.4 129.619 264.762 129.84 265.074 130.127C265.393 130.413 265.654 130.758 265.855 131.162H265.963V129.404H268.395V139.727C268.395 140.54 268.189 141.247 267.779 141.846C267.369 142.445 266.786 142.907 266.031 143.232C265.276 143.558 264.384 143.721 263.355 143.721ZM263.336 137.686C263.889 137.686 264.365 137.552 264.762 137.285C265.159 137.012 265.465 136.634 265.68 136.152C265.895 135.671 266.002 135.111 266.002 134.473V134.463C266.002 133.825 265.895 133.265 265.68 132.783C265.465 132.295 265.159 131.917 264.762 131.65C264.365 131.377 263.889 131.24 263.336 131.24C262.783 131.24 262.311 131.377 261.92 131.65C261.529 131.917 261.23 132.292 261.021 132.773C260.813 133.255 260.709 133.815 260.709 134.453V134.473C260.709 135.117 260.813 135.68 261.021 136.162C261.23 136.637 261.529 137.012 261.92 137.285C262.311 137.552 262.783 137.686 263.336 137.686ZM270.718 140V129.404H273.15V140H270.718ZM271.939 127.686C271.548 127.686 271.213 127.549 270.933 127.275C270.653 126.995 270.513 126.663 270.513 126.279C270.513 125.889 270.653 125.557 270.933 125.283C271.213 125.01 271.548 124.873 271.939 124.873C272.329 124.873 272.665 125.01 272.945 125.283C273.224 125.557 273.364 125.889 273.364 126.279C273.364 126.663 273.224 126.995 272.945 127.275C272.665 127.549 272.329 127.686 271.939 127.686ZM280.043 140.215C278.982 140.215 278.071 139.993 277.309 139.551C276.554 139.108 275.971 138.473 275.561 137.646C275.157 136.82 274.955 135.833 274.955 134.688V134.668C274.955 133.529 275.157 132.552 275.561 131.738C275.971 130.918 276.554 130.29 277.309 129.854C278.071 129.411 278.979 129.189 280.034 129.189C280.945 129.189 281.73 129.352 282.387 129.678C283.051 130.003 283.575 130.446 283.959 131.006C284.343 131.566 284.578 132.21 284.663 132.939V132.988H282.368L282.358 132.949C282.254 132.435 282.006 132.008 281.616 131.67C281.225 131.331 280.701 131.162 280.043 131.162C279.496 131.162 279.028 131.302 278.637 131.582C278.253 131.862 277.957 132.262 277.748 132.783C277.54 133.304 277.436 133.932 277.436 134.668V134.688C277.436 135.436 277.54 136.077 277.748 136.611C277.957 137.139 278.256 137.542 278.647 137.822C279.038 138.102 279.503 138.242 280.043 138.242C280.675 138.242 281.183 138.096 281.567 137.803C281.951 137.503 282.215 137.077 282.358 136.523L282.377 136.465H284.663L284.653 136.533C284.549 137.256 284.301 137.894 283.911 138.447C283.526 139.001 283.009 139.434 282.358 139.746C281.707 140.059 280.935 140.215 280.043 140.215ZM289.291 140.176C288.614 140.176 288.011 140.046 287.484 139.785C286.957 139.525 286.543 139.157 286.244 138.682C285.944 138.2 285.795 137.64 285.795 137.002V136.982C285.795 136.351 285.951 135.811 286.263 135.361C286.576 134.906 287.032 134.548 287.63 134.287C288.229 134.027 288.955 133.87 289.808 133.818L293.763 133.584V135.186L290.16 135.42C289.496 135.452 289.001 135.596 288.675 135.85C288.356 136.097 288.197 136.436 288.197 136.865V136.885C288.197 137.334 288.366 137.686 288.705 137.939C289.05 138.193 289.489 138.32 290.023 138.32C290.511 138.32 290.944 138.223 291.322 138.027C291.699 137.832 291.999 137.568 292.22 137.236C292.442 136.898 292.552 136.52 292.552 136.104V132.793C292.552 132.259 292.383 131.849 292.045 131.562C291.706 131.27 291.214 131.123 290.57 131.123C290.004 131.123 289.545 131.227 289.193 131.436C288.848 131.637 288.617 131.917 288.5 132.275L288.49 132.324H286.205L286.214 132.236C286.293 131.631 286.52 131.1 286.898 130.645C287.282 130.189 287.793 129.834 288.431 129.58C289.076 129.32 289.824 129.189 290.677 129.189C291.582 129.189 292.354 129.333 292.992 129.619C293.63 129.906 294.118 130.316 294.457 130.85C294.795 131.377 294.964 132.012 294.964 132.754V140H292.552V138.506H292.406C292.211 138.851 291.957 139.15 291.644 139.404C291.338 139.652 290.987 139.844 290.589 139.98C290.192 140.111 289.759 140.176 289.291 140.176Z" fill="#5C128A"/>
<rect width="402" height="71" rx="17" transform="matrix(1 0 0 -1 14 812)" fill="#B7A1CE"/>
<rect x="0.5" y="-0.5" width="401" height="70" rx="16.5" transform="matrix(1 0 0 -1 14 811)" stroke="#BCA3BC" stroke-opacity="0.74"/>
<rect width="385" height="54" rx="17" transform="matrix(1 0 0 -1 22 804)" fill="#C8B3DE"/>
<path d="M35 742H395V736C395 732.134 391.866 729 388 729H42C38.134 729 35 732.134 35 736V742Z" fill="#C8B3DE"/>
<path d="M394.5 741.5V736C394.5 732.41 391.59 729.5 388 729.5H42C38.4102 729.5 35.5 732.41 35.5 736V741.5H394.5Z" stroke="#BCA3BC" stroke-opacity="0.74"/>
<g clip-path="url(#clip1_672_2345)">
<path d="M79.1875 243.5H122.812C124.024 243.5 125.098 243.822 125.854 244.315C126.614 244.812 127 245.44 127 246.061V352.939C127 353.56 126.614 354.188 125.854 354.685C125.098 355.178 124.024 355.5 122.812 355.5H79.1875C77.9761 355.5 76.9023 355.178 76.1465 354.685C75.3862 354.188 75 353.56 75 352.939V246.061C75 245.44 75.3862 244.812 76.1465 244.315C76.9023 243.822 77.9761 243.5 79.1875 243.5Z" fill="#0A8CBF" fill-opacity="0.8" stroke="#225FA0"/>
<path d="M117.044 314.987V284.013C117.044 284.013 111.181 283.628 107.993 282.446C104.806 281.264 100.72 277.959 100.72 277.959C100.72 277.959 96.9895 281.264 93.7705 282.446C90.5515 283.628 84.2347 284.013 84.2347 284.013V314.987C84.2347 314.987 90.4172 315.31 93.7705 316.554C97.0688 317.778 100.72 321.041 100.72 321.041C100.72 321.041 104.806 317.736 107.993 316.554C111.181 315.372 117.044 314.987 117.044 314.987Z" fill="#225FA0"/>
<path d="M119.273 251.294H84.8415C84.8415 251.294 85.9711 255.879 89.7915 257.815C93.1969 259.541 96.7973 260.562 101.875 260.592C107.086 260.622 110.617 259.932 114.323 257.815C117.746 255.86 119.273 251.294 119.273 251.294Z" fill="#225FA0"/>
<path d="M119.273 346.638H84.8415C84.8415 346.638 85.9711 342.053 89.7915 340.117C93.1969 338.391 96.7973 337.37 101.875 337.34C107.086 337.31 110.617 338 114.323 340.117C117.746 342.072 119.273 346.638 119.273 346.638Z" fill="#225FA0"/>
</g>
<g clip-path="url(#clip2_672_2345)">
<path d="M193.674 243V243.25H194.666V243H195.657V243.25H196.648V243H197.641V243.25H198.632V243H199.623V243.25H200.615V243H201.606V243.25H202.598V243H203.589V243.25H204.581V243H205.572V243.25H206.563V243H207.556V243.25H208.547V243H209.538V243.25H210.529V243H211.521V243.25H212.513V243H213.504V243.25H214.496V243H215.487V243.25H216.479V243H217.471V243.25H218.462V243H219.453V243.25H220.444V243H221.437V243.25H222.428V243H223.419V243.25H224.411V243H225.402V243.25H226.394V243H227.385V243.25H228.377V243H229.368V243.25H230.359V243H231.352V243.25H232.343V243H233.334V243.25H234.325V243H235.317V243.25H235.812C235.98 243.25 236.145 243.256 236.308 243.268L236.325 243.019V243.018C236.676 243.042 237.015 243.093 237.339 243.166L237.284 243.41C237.617 243.485 237.931 243.584 238.221 243.704L238.315 243.473C238.646 243.609 238.949 243.773 239.217 243.958L239.076 244.163C239.356 244.356 239.592 244.572 239.776 244.804L239.971 244.647C240.194 244.927 240.352 245.231 240.435 245.553L240.193 245.615C240.23 245.76 240.25 245.909 240.25 246.061V246.564H240.5V247.573H240.25V248.581H240.5V249.59H240.25V250.598H240.5V251.606H240.25V252.614H240.5V253.623H240.25V254.631H240.5V255.64H240.25V256.647H240.5V257.656H240.25V258.664H240.5V259.673H240.25V260.681H240.5V261.689H240.25V262.697H240.5V263.706H240.25V264.714H240.5V265.723H240.25V266.73H240.5V267.739H240.25V268.747H240.5V269.756H240.25V270.764H240.5V271.771H240.25V272.78H240.5V273.788H240.25V274.797H240.5V275.805H240.25V276.813H240.5V277.821H240.25V278.83H240.5V279.838H240.25V280.847H240.5V281.854H240.25V282.863H240.5V283.871H240.25V284.88H240.5V285.888H240.25V286.896H240.5V287.904H240.25V288.913H240.5V289.921H240.25V290.93H240.5V291.938H240.25V292.946H240.5V293.954H240.25V294.963H240.5V295.971H240.25V296.979H240.5V297.987H240.25V298.996H240.5V300.004H240.25V301.013H240.5V302.021H240.25V303.029H240.5V304.037H240.25V305.046H240.5V306.054H240.25V307.062H240.5V308.07H240.25V309.079H240.5V310.087H240.25V311.096H240.5V312.104H240.25V313.112H240.5V314.12H240.25V315.129H240.5V316.137H240.25V317.146H240.5V318.153H240.25V319.162H240.5V320.17H240.25V321.179H240.5V322.187H240.25V323.195H240.5V324.203H240.25V325.212H240.5V326.22H240.25V327.229H240.5V328.236H240.25V329.245H240.5V330.253H240.25V331.262H240.5V332.27H240.25V333.278H240.5V334.286H240.25V335.295H240.5V336.303H240.25V337.311H240.5V338.319H240.25V339.327H240.5V340.336H240.25V341.344H240.5V342.353H240.25V343.36H240.5V344.369H240.25V345.377H240.5V346.386H240.25V347.394H240.5V348.402H240.25V349.41H240.5V350.419H240.25V351.427H240.5V352.436H240.25V352.939C240.25 353.091 240.23 353.24 240.193 353.385L240.435 353.446C240.352 353.768 240.194 354.072 239.971 354.352L239.776 354.196C239.592 354.428 239.356 354.644 239.076 354.837L239.217 355.041C238.949 355.226 238.646 355.39 238.315 355.526L238.221 355.296C237.931 355.416 237.617 355.515 237.284 355.59L237.339 355.833C237.015 355.906 236.676 355.957 236.325 355.981L236.308 355.732C236.145 355.744 235.98 355.75 235.812 355.75H235.317V356H234.326V355.75H233.334V356H232.343V355.75H231.352V356H230.359V355.75H229.368V356H228.377V355.75H227.385V356H226.394V355.75H225.402V356H224.411V355.75H223.419V356H222.428V355.75H221.437V356H220.444V355.75H219.453V356H218.462V355.75H217.471V356H216.479V355.75H215.487V356H214.496V355.75H213.504V356H212.513V355.75H211.521V356H210.529V355.75H209.538V356H208.547V355.75H207.556V356H206.563V355.75H205.572V356H204.581V355.75H203.589V356H202.598V355.75H201.606V356H200.615V355.75H199.623V356H198.632V355.75H197.641V356H196.648V355.75H195.657V356H194.666V355.75H193.675V356H192.683V355.75H192.188C192.02 355.75 191.855 355.744 191.692 355.732L191.675 355.981H191.674C191.323 355.956 190.984 355.906 190.66 355.833L190.716 355.59C190.383 355.515 190.069 355.416 189.779 355.296L189.684 355.526C189.353 355.39 189.05 355.226 188.782 355.041L188.924 354.837C188.644 354.644 188.408 354.428 188.224 354.196L188.028 354.352C187.805 354.072 187.647 353.768 187.564 353.446L187.807 353.385C187.77 353.24 187.75 353.091 187.75 352.939V352.436H187.5V351.427H187.75V350.419H187.5V349.41H187.75V348.402H187.5V347.394H187.75V346.386H187.5V345.377H187.75V344.369H187.5V343.36H187.75V342.353H187.5V341.344H187.75V340.336H187.5V339.327H187.75V338.319H187.5V337.311H187.75V336.303H187.5V335.294H187.75V334.286H187.5V333.277H187.75V332.27H187.5V331.261H187.75V330.253H187.5V329.244H187.75V328.236H187.5V327.229H187.75V326.22H187.5V325.212H187.75V324.203H187.5V323.195H187.75V322.187H187.5V321.179H187.75V320.17H187.5V319.162H187.75V318.153H187.5V317.146H187.75V316.137H187.5V315.129H187.75V314.12H187.5V313.112H187.75V312.104H187.5V311.096H187.75V310.087H187.5V309.079H187.75V308.07H187.5V307.062H187.75V306.054H187.5V305.046H187.75V304.037H187.5V303.029H187.75V302.021H187.5V301.013H187.75V300.004H187.5V298.996H187.75V297.987H187.5V296.979H187.75V295.971H187.5V294.963H187.75V293.954H187.5V292.946H187.75V291.938H187.5V290.93H187.75V289.921H187.5V288.913H187.75V287.904H187.5V286.896H187.75V285.888H187.5V284.88H187.75V283.871H187.5V282.863H187.75V281.854H187.5V280.847H187.75V279.838H187.5V278.83H187.75V277.821H187.5V276.813H187.75V275.805H187.5V274.797H187.75V273.788H187.5V272.78H187.75V271.771H187.5V270.764H187.75V269.755H187.5V268.747H187.75V267.738H187.5V266.73H187.75V265.722H187.5V264.714H187.75V263.705H187.5V262.697H187.75V261.689H187.5V260.681H187.75V259.673H187.5V258.664H187.75V257.656H187.5V256.647H187.75V255.64H187.5V254.631H187.75V253.623H187.5V252.614H187.75V251.606H187.5V250.598H187.75V249.59H187.5V248.581H187.75V247.573H187.5V246.564H187.75V246.061C187.75 245.909 187.77 245.76 187.807 245.615L187.564 245.553C187.647 245.231 187.805 244.927 188.028 244.647L188.224 244.804C188.408 244.572 188.644 244.356 188.924 244.163L188.782 243.958C189.05 243.773 189.353 243.609 189.684 243.473L189.779 243.704C190.069 243.584 190.383 243.485 190.716 243.41L190.66 243.166C190.984 243.093 191.323 243.043 191.674 243.018L191.675 243.019L191.692 243.268C191.855 243.256 192.02 243.25 192.188 243.25H192.683V243H193.674Z" fill="#F8F3FC" stroke="#5C128A" stroke-width="0.5" stroke-dasharray="1 1"/>
<path d="M235.993 250.289H192.638C192.638 250.289 190.241 251.887 190.294 253.173C190.345 254.398 192.638 255.88 192.638 255.88H235.993C235.993 255.88 237.491 254.3 237.526 253.173C237.562 251.981 235.993 250.289 235.993 250.289Z" fill="#F8F3FC" stroke="#F8F3FC" stroke-width="0.5"/>
<path d="M232.117 316.391V282.668C232.117 282.668 225.577 282.248 222.022 280.961C218.467 279.674 213.91 276.076 213.91 276.076C213.91 276.076 209.749 279.674 206.158 280.961C202.568 282.248 195.522 282.668 195.522 282.668V316.391C195.522 316.391 202.418 316.743 206.158 318.098C209.837 319.431 213.91 322.983 213.91 322.983C213.91 322.983 218.467 319.385 222.022 318.098C225.577 316.811 232.117 316.391 232.117 316.391Z" fill="#F8F3FC"/>
<path d="M230.044 314.987V284.013C230.044 284.013 224.181 283.628 220.993 282.446C217.806 281.264 213.72 277.959 213.72 277.959C213.72 277.959 209.989 281.264 206.771 282.446C203.551 283.628 197.235 284.013 197.235 284.013V314.987C197.235 314.987 203.417 315.31 206.771 316.554C210.069 317.778 213.72 321.041 213.72 321.041C213.72 321.041 217.806 317.736 220.993 316.554C224.181 315.372 230.044 314.987 230.044 314.987Z" fill="#F8F3FC"/>
<path d="M231.667 260H197.235C197.235 260 198.364 264.585 202.185 266.521C205.59 268.247 209.191 269.268 214.269 269.298C219.479 269.328 223.01 268.638 226.717 266.521C230.139 264.566 231.667 260 231.667 260Z" fill="#F8F3FC" stroke="#F8F3FC"/>
<path d="M236.412 348.963H193.057C193.057 348.963 190.66 347.364 190.713 346.079C190.764 344.853 193.057 343.372 193.057 343.372H236.412C236.412 343.372 237.91 344.952 237.944 346.079C237.981 347.271 236.412 348.963 236.412 348.963Z" fill="#F8F3FC"/>
<path d="M232.086 339.252H197.654C197.654 339.252 198.783 334.667 202.604 332.73C206.009 331.005 209.609 329.983 214.687 329.954C219.898 329.923 223.429 330.614 227.135 332.73C230.558 334.685 232.086 339.252 232.086 339.252Z" fill="#F8F3FC" stroke="#F8F3FC"/>
<path d="M207.952 314.465C207.273 314.465 206.757 314.283 206.406 313.92C206.054 313.557 205.878 313.003 205.878 312.259V305.904C205.878 305.172 206.054 304.624 206.406 304.261C206.757 303.898 207.273 303.716 207.952 303.716H216.328C217.014 303.716 217.53 303.898 217.875 304.261C218.227 304.624 218.403 305.172 218.403 305.904V312.259C218.403 313.003 218.227 313.557 217.875 313.92C217.53 314.283 217.014 314.465 216.328 314.465H207.952ZM208.365 312.698H215.924C216.106 312.698 216.243 312.646 216.337 312.54C216.431 312.441 216.478 312.288 216.478 312.083V306.08C216.478 305.881 216.431 305.732 216.337 305.632C216.243 305.526 216.106 305.474 215.924 305.474H208.365C208.184 305.474 208.043 305.526 207.944 305.632C207.85 305.732 207.803 305.881 207.803 306.08V312.083C207.803 312.288 207.85 312.441 207.944 312.54C208.043 312.646 208.184 312.698 208.365 312.698ZM207.539 304.498V301.677C207.539 300.61 207.75 299.711 208.172 298.979C208.6 298.246 209.162 297.693 209.86 297.318C210.557 296.943 211.316 296.755 212.136 296.755C212.962 296.755 213.724 296.943 214.421 297.318C215.124 297.693 215.687 298.246 216.109 298.979C216.536 299.711 216.75 300.61 216.75 301.677V304.498H214.922V301.545C214.922 300.901 214.793 300.353 214.535 299.901C214.283 299.45 213.947 299.108 213.525 298.873C213.109 298.633 212.646 298.513 212.136 298.513C211.632 298.513 211.169 298.633 210.747 298.873C210.331 299.108 209.997 299.45 209.745 299.901C209.499 300.353 209.376 300.901 209.376 301.545V304.498H207.539Z" fill="#7D4CC2"/>
</g>
<g clip-path="url(#clip3_672_2345)">
<path d="M306.674 243V243.25H307.666V243H308.657V243.25H309.648V243H310.641V243.25H311.632V243H312.623V243.25H313.615V243H314.606V243.25H315.598V243H316.589V243.25H317.581V243H318.572V243.25H319.563V243H320.556V243.25H321.547V243H322.538V243.25H323.529V243H324.521V243.25H325.513V243H326.504V243.25H327.496V243H328.487V243.25H329.479V243H330.471V243.25H331.462V243H332.453V243.25H333.444V243H334.437V243.25H335.428V243H336.419V243.25H337.411V243H338.402V243.25H339.394V243H340.385V243.25H341.377V243H342.368V243.25H343.359V243H344.352V243.25H345.343V243H346.334V243.25H347.325V243H348.317V243.25H348.812C348.98 243.25 349.145 243.256 349.308 243.268L349.325 243.019V243.018C349.676 243.042 350.015 243.093 350.339 243.166L350.284 243.41C350.617 243.485 350.931 243.584 351.221 243.704L351.315 243.473C351.646 243.609 351.949 243.773 352.217 243.958L352.076 244.163C352.356 244.356 352.592 244.572 352.776 244.804L352.971 244.647C353.194 244.927 353.352 245.231 353.435 245.553L353.193 245.615C353.23 245.76 353.25 245.909 353.25 246.061V246.564H353.5V247.573H353.25V248.581H353.5V249.59H353.25V250.598H353.5V251.606H353.25V252.614H353.5V253.623H353.25V254.631H353.5V255.64H353.25V256.647H353.5V257.656H353.25V258.664H353.5V259.673H353.25V260.681H353.5V261.689H353.25V262.697H353.5V263.706H353.25V264.714H353.5V265.723H353.25V266.73H353.5V267.739H353.25V268.747H353.5V269.756H353.25V270.764H353.5V271.771H353.25V272.78H353.5V273.788H353.25V274.797H353.5V275.805H353.25V276.813H353.5V277.821H353.25V278.83H353.5V279.838H353.25V280.847H353.5V281.854H353.25V282.863H353.5V283.871H353.25V284.88H353.5V285.888H353.25V286.896H353.5V287.904H353.25V288.913H353.5V289.921H353.25V290.93H353.5V291.938H353.25V292.946H353.5V293.954H353.25V294.963H353.5V295.971H353.25V296.979H353.5V297.987H353.25V298.996H353.5V300.004H353.25V301.013H353.5V302.021H353.25V303.029H353.5V304.037H353.25V305.046H353.5V306.054H353.25V307.062H353.5V308.07H353.25V309.079H353.5V310.087H353.25V311.096H353.5V312.104H353.25V313.112H353.5V314.12H353.25V315.129H353.5V316.137H353.25V317.146H353.5V318.153H353.25V319.162H353.5V320.17H353.25V321.179H353.5V322.187H353.25V323.195H353.5V324.203H353.25V325.212H353.5V326.22H353.25V327.229H353.5V328.236H353.25V329.245H353.5V330.253H353.25V331.262H353.5V332.27H353.25V333.278H353.5V334.286H353.25V335.295H353.5V336.303H353.25V337.311H353.5V338.319H353.25V339.327H353.5V340.336H353.25V341.344H353.5V342.353H353.25V343.36H353.5V344.369H353.25V345.377H353.5V346.386H353.25V347.394H353.5V348.402H353.25V349.41H353.5V350.419H353.25V351.427H353.5V352.436H353.25V352.939C353.25 353.091 353.23 353.24 353.193 353.385L353.435 353.446C353.352 353.768 353.194 354.072 352.971 354.352L352.776 354.196C352.592 354.428 352.356 354.644 352.076 354.837L352.217 355.041C351.949 355.226 351.646 355.39 351.315 355.526L351.221 355.296C350.931 355.416 350.617 355.515 350.284 355.59L350.339 355.833C350.015 355.906 349.676 355.957 349.325 355.981L349.308 355.732C349.145 355.744 348.98 355.75 348.812 355.75H348.317V356H347.326V355.75H346.334V356H345.343V355.75H344.352V356H343.359V355.75H342.368V356H341.377V355.75H340.385V356H339.394V355.75H338.402V356H337.411V355.75H336.419V356H335.428V355.75H334.437V356H333.444V355.75H332.453V356H331.462V355.75H330.471V356H329.479V355.75H328.487V356H327.496V355.75H326.504V356H325.513V355.75H324.521V356H323.529V355.75H322.538V356H321.547V355.75H320.556V356H319.563V355.75H318.572V356H317.581V355.75H316.589V356H315.598V355.75H314.606V356H313.615V355.75H312.623V356H311.632V355.75H310.641V356H309.648V355.75H308.657V356H307.666V355.75H306.675V356H305.683V355.75H305.188C305.02 355.75 304.855 355.744 304.692 355.732L304.675 355.981H304.674C304.323 355.956 303.984 355.906 303.66 355.833L303.716 355.59C303.383 355.515 303.069 355.416 302.779 355.296L302.684 355.526C302.353 355.39 302.05 355.226 301.782 355.041L301.924 354.837C301.644 354.644 301.408 354.428 301.224 354.196L301.028 354.352C300.805 354.072 300.647 353.768 300.564 353.446L300.807 353.385C300.77 353.24 300.75 353.091 300.75 352.939V352.436H300.5V351.427H300.75V350.419H300.5V349.41H300.75V348.402H300.5V347.394H300.75V346.386H300.5V345.377H300.75V344.369H300.5V343.36H300.75V342.353H300.5V341.344H300.75V340.336H300.5V339.327H300.75V338.319H300.5V337.311H300.75V336.303H300.5V335.294H300.75V334.286H300.5V333.277H300.75V332.27H300.5V331.261H300.75V330.253H300.5V329.244H300.75V328.236H300.5V327.229H300.75V326.22H300.5V325.212H300.75V324.203H300.5V323.195H300.75V322.187H300.5V321.179H300.75V320.17H300.5V319.162H300.75V318.153H300.5V317.146H300.75V316.137H300.5V315.129H300.75V314.12H300.5V313.112H300.75V312.104H300.5V311.096H300.75V310.087H300.5V309.079H300.75V308.07H300.5V307.062H300.75V306.054H300.5V305.046H300.75V304.037H300.5V303.029H300.75V302.021H300.5V301.013H300.75V300.004H300.5V298.996H300.75V297.987H300.5V296.979H300.75V295.971H300.5V294.963H300.75V293.954H300.5V292.946H300.75V291.938H300.5V290.93H300.75V289.921H300.5V288.913H300.75V287.904H300.5V286.896H300.75V285.888H300.5V284.88H300.75V283.871H300.5V282.863H300.75V281.854H300.5V280.847H300.75V279.838H300.5V278.83H300.75V277.821H300.5V276.813H300.75V275.805H300.5V274.797H300.75V273.788H300.5V272.78H300.75V271.771H300.5V270.764H300.75V269.755H300.5V268.747H300.75V267.738H300.5V266.73H300.75V265.722H300.5V264.714H300.75V263.705H300.5V262.697H300.75V261.689H300.5V260.681H300.75V259.673H300.5V258.664H300.75V257.656H300.5V256.647H300.75V255.64H300.5V254.631H300.75V253.623H300.5V252.614H300.75V251.606H300.5V250.598H300.75V249.59H300.5V248.581H300.75V247.573H300.5V246.564H300.75V246.061C300.75 245.909 300.77 245.76 300.807 245.615L300.564 245.553C300.647 245.231 300.805 244.927 301.028 244.647L301.224 244.804C301.408 244.572 301.644 244.356 301.924 244.163L301.782 243.958C302.05 243.773 302.353 243.609 302.684 243.473L302.779 243.704C303.069 243.584 303.383 243.485 303.716 243.41L303.66 243.166C303.984 243.093 304.323 243.043 304.674 243.018L304.675 243.019L304.692 243.268C304.855 243.256 305.02 243.25 305.188 243.25H305.683V243H306.674Z" fill="#F8F3FC" stroke="#5C128A" stroke-width="0.5" stroke-dasharray="1 1"/>
<path d="M348.993 250.289H305.638C305.638 250.289 303.241 251.887 303.294 253.173C303.345 254.398 305.638 255.88 305.638 255.88H348.993C348.993 255.88 350.491 254.3 350.526 253.173C350.562 251.981 348.993 250.289 348.993 250.289Z" fill="#F8F3FC" stroke="#F8F3FC" stroke-width="0.5"/>
<path d="M345.117 316.391V282.668C345.117 282.668 338.577 282.248 335.022 280.961C331.467 279.674 326.91 276.076 326.91 276.076C326.91 276.076 322.749 279.674 319.158 280.961C315.568 282.248 308.522 282.668 308.522 282.668V316.391C308.522 316.391 315.418 316.743 319.158 318.098C322.837 319.431 326.91 322.983 326.91 322.983C326.91 322.983 331.467 319.385 335.022 318.098C338.577 316.811 345.117 316.391 345.117 316.391Z" fill="#F8F3FC"/>
<path d="M343.044 314.987V284.013C343.044 284.013 337.181 283.628 333.993 282.446C330.806 281.264 326.72 277.959 326.72 277.959C326.72 277.959 322.989 281.264 319.771 282.446C316.551 283.628 310.235 284.013 310.235 284.013V314.987C310.235 314.987 316.417 315.31 319.771 316.554C323.069 317.778 326.72 321.041 326.72 321.041C326.72 321.041 330.806 317.736 333.993 316.554C337.181 315.372 343.044 314.987 343.044 314.987Z" fill="#F8F3FC"/>
<path d="M344.667 260H310.235C310.235 260 311.364 264.585 315.185 266.521C318.59 268.247 322.191 269.268 327.269 269.298C332.479 269.328 336.01 268.638 339.717 266.521C343.139 264.566 344.667 260 344.667 260Z" fill="#F8F3FC" stroke="#F8F3FC"/>
<path d="M349.412 348.963H306.057C306.057 348.963 303.66 347.364 303.713 346.079C303.764 344.853 306.057 343.372 306.057 343.372H349.412C349.412 343.372 350.91 344.952 350.944 346.079C350.981 347.271 349.412 348.963 349.412 348.963Z" fill="#F8F3FC"/>
<path d="M345.086 339.252H310.654C310.654 339.252 311.783 334.667 315.604 332.73C319.009 331.005 322.609 329.983 327.687 329.954C332.898 329.923 336.429 330.614 340.135 332.73C343.558 334.685 345.086 339.252 345.086 339.252Z" fill="#F8F3FC" stroke="#F8F3FC"/>
<path d="M320.952 314.465C320.273 314.465 319.757 314.283 319.406 313.92C319.054 313.557 318.878 313.003 318.878 312.259V305.904C318.878 305.172 319.054 304.624 319.406 304.261C319.757 303.898 320.273 303.716 320.952 303.716H329.328C330.014 303.716 330.53 303.898 330.875 304.261C331.227 304.624 331.403 305.172 331.403 305.904V312.259C331.403 313.003 331.227 313.557 330.875 313.92C330.53 314.283 330.014 314.465 329.328 314.465H320.952ZM321.365 312.698H328.924C329.106 312.698 329.243 312.646 329.337 312.54C329.431 312.441 329.478 312.288 329.478 312.083V306.08C329.478 305.881 329.431 305.732 329.337 305.632C329.243 305.526 329.106 305.474 328.924 305.474H321.365C321.184 305.474 321.043 305.526 320.944 305.632C320.85 305.732 320.803 305.881 320.803 306.08V312.083C320.803 312.288 320.85 312.441 320.944 312.54C321.043 312.646 321.184 312.698 321.365 312.698ZM320.539 304.498V301.677C320.539 300.61 320.75 299.711 321.172 298.979C321.6 298.246 322.162 297.693 322.86 297.318C323.557 296.943 324.316 296.755 325.136 296.755C325.962 296.755 326.724 296.943 327.421 297.318C328.124 297.693 328.687 298.246 329.109 298.979C329.536 299.711 329.75 300.61 329.75 301.677V304.498H327.922V301.545C327.922 300.901 327.793 300.353 327.535 299.901C327.283 299.45 326.947 299.108 326.525 298.873C326.109 298.633 325.646 298.513 325.136 298.513C324.632 298.513 324.169 298.633 323.747 298.873C323.331 299.108 322.997 299.45 322.745 299.901C322.499 300.353 322.376 300.901 322.376 301.545V304.498H320.539Z" fill="#7D4CC2"/>
</g>
<g clip-path="url(#clip4_672_2345)">
<path d="M85.6738 497V497.25H86.666V497H87.6572V497.25H88.6484V497H89.6406V497.25H90.6318V497H91.623V497.25H92.6152V497H93.6064V497.25H94.5977V497H95.5889V497.25H96.5811V497H97.5723V497.25H98.5635V497H99.5557V497.25H100.547V497H101.538V497.25H102.529V497H103.521V497.25H104.513V497H105.504V497.25H106.496V497H107.487V497.25H108.479V497H109.471V497.25H110.462V497H111.453V497.25H112.444V497H113.437V497.25H114.428V497H115.419V497.25H116.411V497H117.402V497.25H118.394V497H119.385V497.25H120.377V497H121.368V497.25H122.359V497H123.352V497.25H124.343V497H125.334V497.25H126.325V497H127.317V497.25H127.812C127.98 497.25 128.145 497.256 128.308 497.268L128.325 497.019V497.018C128.676 497.042 129.015 497.093 129.339 497.166L129.284 497.41C129.617 497.485 129.931 497.584 130.221 497.704L130.315 497.473C130.646 497.609 130.949 497.773 131.217 497.958L131.076 498.163C131.356 498.356 131.592 498.572 131.776 498.804L131.971 498.647C132.194 498.927 132.352 499.231 132.435 499.553L132.193 499.615C132.23 499.76 132.25 499.909 132.25 500.061V500.564H132.5V501.573H132.25V502.581H132.5V503.59H132.25V504.598H132.5V505.606H132.25V506.614H132.5V507.623H132.25V508.631H132.5V509.64H132.25V510.647H132.5V511.656H132.25V512.664H132.5V513.673H132.25V514.681H132.5V515.689H132.25V516.697H132.5V517.706H132.25V518.714H132.5V519.723H132.25V520.73H132.5V521.739H132.25V522.747H132.5V523.756H132.25V524.764H132.5V525.771H132.25V526.78H132.5V527.788H132.25V528.797H132.5V529.805H132.25V530.813H132.5V531.821H132.25V532.83H132.5V533.838H132.25V534.847H132.5V535.854H132.25V536.863H132.5V537.871H132.25V538.88H132.5V539.888H132.25V540.896H132.5V541.904H132.25V542.913H132.5V543.921H132.25V544.93H132.5V545.938H132.25V546.946H132.5V547.954H132.25V548.963H132.5V549.971H132.25V550.979H132.5V551.987H132.25V552.996H132.5V554.004H132.25V555.013H132.5V556.021H132.25V557.029H132.5V558.037H132.25V559.046H132.5V560.054H132.25V561.062H132.5V562.07H132.25V563.079H132.5V564.087H132.25V565.096H132.5V566.104H132.25V567.112H132.5V568.12H132.25V569.129H132.5V570.137H132.25V571.146H132.5V572.153H132.25V573.162H132.5V574.17H132.25V575.179H132.5V576.187H132.25V577.195H132.5V578.203H132.25V579.212H132.5V580.22H132.25V581.229H132.5V582.236H132.25V583.245H132.5V584.253H132.25V585.262H132.5V586.27H132.25V587.278H132.5V588.286H132.25V589.295H132.5V590.303H132.25V591.311H132.5V592.319H132.25V593.327H132.5V594.336H132.25V595.344H132.5V596.353H132.25V597.36H132.5V598.369H132.25V599.377H132.5V600.386H132.25V601.394H132.5V602.402H132.25V603.41H132.5V604.419H132.25V605.427H132.5V606.436H132.25V606.939C132.25 607.091 132.23 607.24 132.193 607.385L132.435 607.446C132.352 607.768 132.194 608.072 131.971 608.352L131.776 608.196C131.592 608.428 131.356 608.644 131.076 608.837L131.217 609.041C130.949 609.226 130.646 609.39 130.315 609.526L130.221 609.296C129.931 609.416 129.617 609.515 129.284 609.59L129.339 609.833C129.015 609.906 128.676 609.957 128.325 609.981L128.308 609.732C128.145 609.744 127.98 609.75 127.812 609.75H127.317V610H126.326V609.75H125.334V610H124.343V609.75H123.352V610H122.359V609.75H121.368V610H120.377V609.75H119.385V610H118.394V609.75H117.402V610H116.411V609.75H115.419V610H114.428V609.75H113.437V610H112.444V609.75H111.453V610H110.462V609.75H109.471V610H108.479V609.75H107.487V610H106.496V609.75H105.504V610H104.513V609.75H103.521V610H102.529V609.75H101.538V610H100.547V609.75H99.5557V610H98.5635V609.75H97.5723V610H96.5811V609.75H95.5889V610H94.5977V609.75H93.6064V610H92.6152V609.75H91.623V610H90.6318V609.75H89.6406V610H88.6484V609.75H87.6572V610H86.666V609.75H85.6748V610H84.6826V609.75H84.1875C84.0202 609.75 83.8548 609.744 83.6924 609.732L83.6748 609.981H83.6738C83.3228 609.956 82.9835 609.906 82.6602 609.833L82.7158 609.59C82.3833 609.515 82.0694 609.416 81.7793 609.296L81.6836 609.526C81.3526 609.39 81.0502 609.226 80.7822 609.041L80.9238 608.837C80.6439 608.644 80.4083 608.428 80.2236 608.196L80.0283 608.352C79.8054 608.072 79.6465 607.768 79.5645 607.446L79.8066 607.385C79.7696 607.24 79.75 607.091 79.75 606.939V606.436H79.5V605.427H79.75V604.419H79.5V603.41H79.75V602.402H79.5V601.394H79.75V600.386H79.5V599.377H79.75V598.369H79.5V597.36H79.75V596.353H79.5V595.344H79.75V594.336H79.5V593.327H79.75V592.319H79.5V591.311H79.75V590.303H79.5V589.294H79.75V588.286H79.5V587.277H79.75V586.27H79.5V585.261H79.75V584.253H79.5V583.244H79.75V582.236H79.5V581.229H79.75V580.22H79.5V579.212H79.75V578.203H79.5V577.195H79.75V576.187H79.5V575.179H79.75V574.17H79.5V573.162H79.75V572.153H79.5V571.146H79.75V570.137H79.5V569.129H79.75V568.12H79.5V567.112H79.75V566.104H79.5V565.096H79.75V564.087H79.5V563.079H79.75V562.07H79.5V561.062H79.75V560.054H79.5V559.046H79.75V558.037H79.5V557.029H79.75V556.021H79.5V555.013H79.75V554.004H79.5V552.996H79.75V551.987H79.5V550.979H79.75V549.971H79.5V548.963H79.75V547.954H79.5V546.946H79.75V545.938H79.5V544.93H79.75V543.921H79.5V542.913H79.75V541.904H79.5V540.896H79.75V539.888H79.5V538.88H79.75V537.871H79.5V536.863H79.75V535.854H79.5V534.847H79.75V533.838H79.5V532.83H79.75V531.821H79.5V530.813H79.75V529.805H79.5V528.797H79.75V527.788H79.5V526.78H79.75V525.771H79.5V524.764H79.75V523.755H79.5V522.747H79.75V521.738H79.5V520.73H79.75V519.722H79.5V518.714H79.75V517.705H79.5V516.697H79.75V515.689H79.5V514.681H79.75V513.673H79.5V512.664H79.75V511.656H79.5V510.647H79.75V509.64H79.5V508.631H79.75V507.623H79.5V506.614H79.75V505.606H79.5V504.598H79.75V503.59H79.5V502.581H79.75V501.573H79.5V500.564H79.75V500.061C79.75 499.909 79.7696 499.76 79.8066 499.615L79.5645 499.553C79.6467 499.231 79.8053 498.927 80.0283 498.647L80.2236 498.804C80.4083 498.572 80.6439 498.356 80.9238 498.163L80.7822 497.958C81.0502 497.773 81.3527 497.609 81.6836 497.473L81.7793 497.704C82.0694 497.584 82.3833 497.485 82.7158 497.41L82.6602 497.166C82.9835 497.093 83.3228 497.043 83.6738 497.018L83.6748 497.019L83.6924 497.268C83.8548 497.256 84.0202 497.25 84.1875 497.25H84.6826V497H85.6738Z" fill="#F8F3FC" stroke="#5C128A" stroke-width="0.5" stroke-dasharray="1 1"/>
<path d="M127.993 504.289H84.6378C84.6378 504.289 82.2408 505.887 82.2942 507.173C82.3452 508.398 84.6378 509.88 84.6378 509.88H127.993C127.993 509.88 129.491 508.3 129.526 507.173C129.562 505.981 127.993 504.289 127.993 504.289Z" fill="#F8F3FC" stroke="#F8F3FC" stroke-width="0.5"/>
<path d="M124.117 570.391V536.668C124.117 536.668 117.577 536.248 114.022 534.961C110.467 533.674 105.91 530.076 105.91 530.076C105.91 530.076 101.749 533.674 98.1581 534.961C94.5677 536.248 87.5221 536.668 87.5221 536.668V570.391C87.5221 570.391 94.418 570.743 98.1581 572.098C101.837 573.431 105.91 576.983 105.91 576.983C105.91 576.983 110.467 573.385 114.022 572.098C117.577 570.811 124.117 570.391 124.117 570.391Z" fill="#F8F3FC"/>
<path d="M122.044 568.987V538.013C122.044 538.013 116.181 537.628 112.993 536.446C109.806 535.264 105.72 531.959 105.72 531.959C105.72 531.959 101.989 535.264 98.7705 536.446C95.5515 537.628 89.2347 538.013 89.2347 538.013V568.987C89.2347 568.987 95.4172 569.31 98.7705 570.554C102.069 571.778 105.72 575.041 105.72 575.041C105.72 575.041 109.806 571.736 112.993 570.554C116.181 569.372 122.044 568.987 122.044 568.987Z" fill="#F8F3FC"/>
<path d="M123.667 514H89.2348C89.2348 514 90.3644 518.585 94.1848 520.521C97.5902 522.247 101.191 523.268 106.269 523.298C111.479 523.328 115.01 522.638 118.717 520.521C122.139 518.566 123.667 514 123.667 514Z" fill="#F8F3FC" stroke="#F8F3FC"/>
<path d="M128.412 602.963H85.0565C85.0565 602.963 82.6596 601.364 82.713 600.079C82.764 598.853 85.0565 597.372 85.0565 597.372H128.412C128.412 597.372 129.91 598.952 129.944 600.079C129.981 601.271 128.412 602.963 128.412 602.963Z" fill="#F8F3FC"/>
<path d="M124.086 593.252H89.6536C89.6536 593.252 90.7832 588.667 94.6036 586.73C98.009 585.005 101.609 583.983 106.687 583.954C111.898 583.923 115.429 584.614 119.135 586.73C122.558 588.685 124.086 593.252 124.086 593.252Z" fill="#F8F3FC" stroke="#F8F3FC"/>
<path d="M99.9524 568.465C99.2727 568.465 98.7571 568.283 98.4055 567.92C98.054 567.557 97.8782 567.003 97.8782 566.259V559.904C97.8782 559.172 98.054 558.624 98.4055 558.261C98.7571 557.898 99.2727 557.716 99.9524 557.716H108.328C109.014 557.716 109.53 557.898 109.875 558.261C110.227 558.624 110.403 559.172 110.403 559.904V566.259C110.403 567.003 110.227 567.557 109.875 567.92C109.53 568.283 109.014 568.465 108.328 568.465H99.9524ZM100.365 566.698H107.924C108.106 566.698 108.243 566.646 108.337 566.54C108.431 566.441 108.478 566.288 108.478 566.083V560.08C108.478 559.881 108.431 559.732 108.337 559.632C108.243 559.526 108.106 559.474 107.924 559.474H100.365C100.184 559.474 100.043 559.526 99.9436 559.632C99.8499 559.732 99.803 559.881 99.803 560.08V566.083C99.803 566.288 99.8499 566.441 99.9436 566.54C100.043 566.646 100.184 566.698 100.365 566.698ZM99.5393 558.498V555.677C99.5393 554.61 99.7502 553.711 100.172 552.979C100.6 552.246 101.162 551.693 101.86 551.318C102.557 550.943 103.316 550.755 104.136 550.755C104.962 550.755 105.724 550.943 106.421 551.318C107.124 551.693 107.687 552.246 108.109 552.979C108.536 553.711 108.75 554.61 108.75 555.677V558.498H106.922V555.545C106.922 554.901 106.793 554.353 106.535 553.901C106.283 553.45 105.947 553.108 105.525 552.873C105.109 552.633 104.646 552.513 104.136 552.513C103.632 552.513 103.169 552.633 102.747 552.873C102.331 553.108 101.997 553.45 101.745 553.901C101.499 554.353 101.376 554.901 101.376 555.545V558.498H99.5393Z" fill="#7D4CC2"/>
</g>
<g clip-path="url(#clip5_672_2345)">
<path d="M198.674 497V497.25H199.666V497H200.657V497.25H201.648V497H202.641V497.25H203.632V497H204.623V497.25H205.615V497H206.606V497.25H207.598V497H208.589V497.25H209.581V497H210.572V497.25H211.563V497H212.556V497.25H213.547V497H214.538V497.25H215.529V497H216.521V497.25H217.513V497H218.504V497.25H219.496V497H220.487V497.25H221.479V497H222.471V497.25H223.462V497H224.453V497.25H225.444V497H226.437V497.25H227.428V497H228.419V497.25H229.411V497H230.402V497.25H231.394V497H232.385V497.25H233.377V497H234.368V497.25H235.359V497H236.352V497.25H237.343V497H238.334V497.25H239.325V497H240.317V497.25H240.812C240.98 497.25 241.145 497.256 241.308 497.268L241.325 497.019V497.018C241.676 497.042 242.015 497.093 242.339 497.166L242.284 497.41C242.617 497.485 242.931 497.584 243.221 497.704L243.315 497.473C243.646 497.609 243.949 497.773 244.217 497.958L244.076 498.163C244.356 498.356 244.592 498.572 244.776 498.804L244.971 498.647C245.194 498.927 245.352 499.231 245.435 499.553L245.193 499.615C245.23 499.76 245.25 499.909 245.25 500.061V500.564H245.5V501.573H245.25V502.581H245.5V503.59H245.25V504.598H245.5V505.606H245.25V506.614H245.5V507.623H245.25V508.631H245.5V509.64H245.25V510.647H245.5V511.656H245.25V512.664H245.5V513.673H245.25V514.681H245.5V515.689H245.25V516.697H245.5V517.706H245.25V518.714H245.5V519.723H245.25V520.73H245.5V521.739H245.25V522.747H245.5V523.756H245.25V524.764H245.5V525.771H245.25V526.78H245.5V527.788H245.25V528.797H245.5V529.805H245.25V530.813H245.5V531.821H245.25V532.83H245.5V533.838H245.25V534.847H245.5V535.854H245.25V536.863H245.5V537.871H245.25V538.88H245.5V539.888H245.25V540.896H245.5V541.904H245.25V542.913H245.5V543.921H245.25V544.93H245.5V545.938H245.25V546.946H245.5V547.954H245.25V548.963H245.5V549.971H245.25V550.979H245.5V551.987H245.25V552.996H245.5V554.004H245.25V555.013H245.5V556.021H245.25V557.029H245.5V558.037H245.25V559.046H245.5V560.054H245.25V561.062H245.5V562.07H245.25V563.079H245.5V564.087H245.25V565.096H245.5V566.104H245.25V567.112H245.5V568.12H245.25V569.129H245.5V570.137H245.25V571.146H245.5V572.153H245.25V573.162H245.5V574.17H245.25V575.179H245.5V576.187H245.25V577.195H245.5V578.203H245.25V579.212H245.5V580.22H245.25V581.229H245.5V582.236H245.25V583.245H245.5V584.253H245.25V585.262H245.5V586.27H245.25V587.278H245.5V588.286H245.25V589.295H245.5V590.303H245.25V591.311H245.5V592.319H245.25V593.327H245.5V594.336H245.25V595.344H245.5V596.353H245.25V597.36H245.5V598.369H245.25V599.377H245.5V600.386H245.25V601.394H245.5V602.402H245.25V603.41H245.5V604.419H245.25V605.427H245.5V606.436H245.25V606.939C245.25 607.091 245.23 607.24 245.193 607.385L245.435 607.446C245.352 607.768 245.194 608.072 244.971 608.352L244.776 608.196C244.592 608.428 244.356 608.644 244.076 608.837L244.217 609.041C243.949 609.226 243.646 609.39 243.315 609.526L243.221 609.296C242.931 609.416 242.617 609.515 242.284 609.59L242.339 609.833C242.015 609.906 241.676 609.957 241.325 609.981L241.308 609.732C241.145 609.744 240.98 609.75 240.812 609.75H240.317V610H239.326V609.75H238.334V610H237.343V609.75H236.352V610H235.359V609.75H234.368V610H233.377V609.75H232.385V610H231.394V609.75H230.402V610H229.411V609.75H228.419V610H227.428V609.75H226.437V610H225.444V609.75H224.453V610H223.462V609.75H222.471V610H221.479V609.75H220.487V610H219.496V609.75H218.504V610H217.513V609.75H216.521V610H215.529V609.75H214.538V610H213.547V609.75H212.556V610H211.563V609.75H210.572V610H209.581V609.75H208.589V610H207.598V609.75H206.606V610H205.615V609.75H204.623V610H203.632V609.75H202.641V610H201.648V609.75H200.657V610H199.666V609.75H198.675V610H197.683V609.75H197.188C197.02 609.75 196.855 609.744 196.692 609.732L196.675 609.981H196.674C196.323 609.956 195.984 609.906 195.66 609.833L195.716 609.59C195.383 609.515 195.069 609.416 194.779 609.296L194.684 609.526C194.353 609.39 194.05 609.226 193.782 609.041L193.924 608.837C193.644 608.644 193.408 608.428 193.224 608.196L193.028 608.352C192.805 608.072 192.647 607.768 192.564 607.446L192.807 607.385C192.77 607.24 192.75 607.091 192.75 606.939V606.436H192.5V605.427H192.75V604.419H192.5V603.41H192.75V602.402H192.5V601.394H192.75V600.386H192.5V599.377H192.75V598.369H192.5V597.36H192.75V596.353H192.5V595.344H192.75V594.336H192.5V593.327H192.75V592.319H192.5V591.311H192.75V590.303H192.5V589.294H192.75V588.286H192.5V587.277H192.75V586.27H192.5V585.261H192.75V584.253H192.5V583.244H192.75V582.236H192.5V581.229H192.75V580.22H192.5V579.212H192.75V578.203H192.5V577.195H192.75V576.187H192.5V575.179H192.75V574.17H192.5V573.162H192.75V572.153H192.5V571.146H192.75V570.137H192.5V569.129H192.75V568.12H192.5V567.112H192.75V566.104H192.5V565.096H192.75V564.087H192.5V563.079H192.75V562.07H192.5V561.062H192.75V560.054H192.5V559.046H192.75V558.037H192.5V557.029H192.75V556.021H192.5V555.013H192.75V554.004H192.5V552.996H192.75V551.987H192.5V550.979H192.75V549.971H192.5V548.963H192.75V547.954H192.5V546.946H192.75V545.938H192.5V544.93H192.75V543.921H192.5V542.913H192.75V541.904H192.5V540.896H192.75V539.888H192.5V538.88H192.75V537.871H192.5V536.863H192.75V535.854H192.5V534.847H192.75V533.838H192.5V532.83H192.75V531.821H192.5V530.813H192.75V529.805H192.5V528.797H192.75V527.788H192.5V526.78H192.75V525.771H192.5V524.764H192.75V523.755H192.5V522.747H192.75V521.738H192.5V520.73H192.75V519.722H192.5V518.714H192.75V517.705H192.5V516.697H192.75V515.689H192.5V514.681H192.75V513.673H192.5V512.664H192.75V511.656H192.5V510.647H192.75V509.64H192.5V508.631H192.75V507.623H192.5V506.614H192.75V505.606H192.5V504.598H192.75V503.59H192.5V502.581H192.75V501.573H192.5V500.564H192.75V500.061C192.75 499.909 192.77 499.76 192.807 499.615L192.564 499.553C192.647 499.231 192.805 498.927 193.028 498.647L193.224 498.804C193.408 498.572 193.644 498.356 193.924 498.163L193.782 497.958C194.05 497.773 194.353 497.609 194.684 497.473L194.779 497.704C195.069 497.584 195.383 497.485 195.716 497.41L195.66 497.166C195.984 497.093 196.323 497.043 196.674 497.018L196.675 497.019L196.692 497.268C196.855 497.256 197.02 497.25 197.188 497.25H197.683V497H198.674Z" fill="#F8F3FC" stroke="#5C128A" stroke-width="0.5" stroke-dasharray="1 1"/>
<path d="M240.993 504.289H197.638C197.638 504.289 195.241 505.887 195.294 507.173C195.345 508.398 197.638 509.88 197.638 509.88H240.993C240.993 509.88 242.491 508.3 242.526 507.173C242.562 505.981 240.993 504.289 240.993 504.289Z" fill="#F8F3FC" stroke="#F8F3FC" stroke-width="0.5"/>
<path d="M237.117 570.391V536.668C237.117 536.668 230.577 536.248 227.022 534.961C223.467 533.674 218.91 530.076 218.91 530.076C218.91 530.076 214.749 533.674 211.158 534.961C207.568 536.248 200.522 536.668 200.522 536.668V570.391C200.522 570.391 207.418 570.743 211.158 572.098C214.837 573.431 218.91 576.983 218.91 576.983C218.91 576.983 223.467 573.385 227.022 572.098C230.577 570.811 237.117 570.391 237.117 570.391Z" fill="#F8F3FC"/>
<path d="M235.044 568.987V538.013C235.044 538.013 229.181 537.628 225.993 536.446C222.806 535.264 218.72 531.959 218.72 531.959C218.72 531.959 214.989 535.264 211.771 536.446C208.551 537.628 202.235 538.013 202.235 538.013V568.987C202.235 568.987 208.417 569.31 211.771 570.554C215.069 571.778 218.72 575.041 218.72 575.041C218.72 575.041 222.806 571.736 225.993 570.554C229.181 569.372 235.044 568.987 235.044 568.987Z" fill="#F8F3FC"/>
<path d="M236.667 514H202.235C202.235 514 203.364 518.585 207.185 520.521C210.59 522.247 214.191 523.268 219.269 523.298C224.479 523.328 228.01 522.638 231.717 520.521C235.139 518.566 236.667 514 236.667 514Z" fill="#F8F3FC" stroke="#F8F3FC"/>
<path d="M241.412 602.963H198.057C198.057 602.963 195.66 601.364 195.713 600.079C195.764 598.853 198.057 597.372 198.057 597.372H241.412C241.412 597.372 242.91 598.952 242.944 600.079C242.981 601.271 241.412 602.963 241.412 602.963Z" fill="#F8F3FC"/>
<path d="M237.086 593.252H202.654C202.654 593.252 203.783 588.667 207.604 586.73C211.009 585.005 214.609 583.983 219.687 583.954C224.898 583.923 228.429 584.614 232.135 586.73C235.558 588.685 237.086 593.252 237.086 593.252Z" fill="#F8F3FC" stroke="#F8F3FC"/>
<path d="M212.952 568.465C212.273 568.465 211.757 568.283 211.406 567.92C211.054 567.557 210.878 567.003 210.878 566.259V559.904C210.878 559.172 211.054 558.624 211.406 558.261C211.757 557.898 212.273 557.716 212.952 557.716H221.328C222.014 557.716 222.53 557.898 222.875 558.261C223.227 558.624 223.403 559.172 223.403 559.904V566.259C223.403 567.003 223.227 567.557 222.875 567.92C222.53 568.283 222.014 568.465 221.328 568.465H212.952ZM213.365 566.698H220.924C221.106 566.698 221.243 566.646 221.337 566.54C221.431 566.441 221.478 566.288 221.478 566.083V560.08C221.478 559.881 221.431 559.732 221.337 559.632C221.243 559.526 221.106 559.474 220.924 559.474H213.365C213.184 559.474 213.043 559.526 212.944 559.632C212.85 559.732 212.803 559.881 212.803 560.08V566.083C212.803 566.288 212.85 566.441 212.944 566.54C213.043 566.646 213.184 566.698 213.365 566.698ZM212.539 558.498V555.677C212.539 554.61 212.75 553.711 213.172 552.979C213.6 552.246 214.162 551.693 214.86 551.318C215.557 550.943 216.316 550.755 217.136 550.755C217.962 550.755 218.724 550.943 219.421 551.318C220.124 551.693 220.687 552.246 221.109 552.979C221.536 553.711 221.75 554.61 221.75 555.677V558.498H219.922V555.545C219.922 554.901 219.793 554.353 219.535 553.901C219.283 553.45 218.947 553.108 218.525 552.873C218.109 552.633 217.646 552.513 217.136 552.513C216.632 552.513 216.169 552.633 215.747 552.873C215.331 553.108 214.997 553.45 214.745 553.901C214.499 554.353 214.376 554.901 214.376 555.545V558.498H212.539Z" fill="#7D4CC2"/>
</g>
<g clip-path="url(#clip6_672_2345)">
<path d="M306.674 497V497.25H307.666V497H308.657V497.25H309.648V497H310.641V497.25H311.632V497H312.623V497.25H313.615V497H314.606V497.25H315.598V497H316.589V497.25H317.581V497H318.572V497.25H319.563V497H320.556V497.25H321.547V497H322.538V497.25H323.529V497H324.521V497.25H325.513V497H326.504V497.25H327.496V497H328.487V497.25H329.479V497H330.471V497.25H331.462V497H332.453V497.25H333.444V497H334.437V497.25H335.428V497H336.419V497.25H337.411V497H338.402V497.25H339.394V497H340.385V497.25H341.377V497H342.368V497.25H343.359V497H344.352V497.25H345.343V497H346.334V497.25H347.325V497H348.317V497.25H348.812C348.98 497.25 349.145 497.256 349.308 497.268L349.325 497.019V497.018C349.676 497.042 350.015 497.093 350.339 497.166L350.284 497.41C350.617 497.485 350.931 497.584 351.221 497.704L351.315 497.473C351.646 497.609 351.949 497.773 352.217 497.958L352.076 498.163C352.356 498.356 352.592 498.572 352.776 498.804L352.971 498.647C353.194 498.927 353.352 499.231 353.435 499.553L353.193 499.615C353.23 499.76 353.25 499.909 353.25 500.061V500.564H353.5V501.573H353.25V502.581H353.5V503.59H353.25V504.598H353.5V505.606H353.25V506.614H353.5V507.623H353.25V508.631H353.5V509.64H353.25V510.647H353.5V511.656H353.25V512.664H353.5V513.673H353.25V514.681H353.5V515.689H353.25V516.697H353.5V517.706H353.25V518.714H353.5V519.723H353.25V520.73H353.5V521.739H353.25V522.747H353.5V523.756H353.25V524.764H353.5V525.771H353.25V526.78H353.5V527.788H353.25V528.797H353.5V529.805H353.25V530.813H353.5V531.821H353.25V532.83H353.5V533.838H353.25V534.847H353.5V535.854H353.25V536.863H353.5V537.871H353.25V538.88H353.5V539.888H353.25V540.896H353.5V541.904H353.25V542.913H353.5V543.921H353.25V544.93H353.5V545.938H353.25V546.946H353.5V547.954H353.25V548.963H353.5V549.971H353.25V550.979H353.5V551.987H353.25V552.996H353.5V554.004H353.25V555.013H353.5V556.021H353.25V557.029H353.5V558.037H353.25V559.046H353.5V560.054H353.25V561.062H353.5V562.07H353.25V563.079H353.5V564.087H353.25V565.096H353.5V566.104H353.25V567.112H353.5V568.12H353.25V569.129H353.5V570.137H353.25V571.146H353.5V572.153H353.25V573.162H353.5V574.17H353.25V575.179H353.5V576.187H353.25V577.195H353.5V578.203H353.25V579.212H353.5V580.22H353.25V581.229H353.5V582.236H353.25V583.245H353.5V584.253H353.25V585.262H353.5V586.27H353.25V587.278H353.5V588.286H353.25V589.295H353.5V590.303H353.25V591.311H353.5V592.319H353.25V593.327H353.5V594.336H353.25V595.344H353.5V596.353H353.25V597.36H353.5V598.369H353.25V599.377H353.5V600.386H353.25V601.394H353.5V602.402H353.25V603.41H353.5V604.419H353.25V605.427H353.5V606.436H353.25V606.939C353.25 607.091 353.23 607.24 353.193 607.385L353.435 607.446C353.352 607.768 353.194 608.072 352.971 608.352L352.776 608.196C352.592 608.428 352.356 608.644 352.076 608.837L352.217 609.041C351.949 609.226 351.646 609.39 351.315 609.526L351.221 609.296C350.931 609.416 350.617 609.515 350.284 609.59L350.339 609.833C350.015 609.906 349.676 609.957 349.325 609.981L349.308 609.732C349.145 609.744 348.98 609.75 348.812 609.75H348.317V610H347.326V609.75H346.334V610H345.343V609.75H344.352V610H343.359V609.75H342.368V610H341.377V609.75H340.385V610H339.394V609.75H338.402V610H337.411V609.75H336.419V610H335.428V609.75H334.437V610H333.444V609.75H332.453V610H331.462V609.75H330.471V610H329.479V609.75H328.487V610H327.496V609.75H326.504V610H325.513V609.75H324.521V610H323.529V609.75H322.538V610H321.547V609.75H320.556V610H319.563V609.75H318.572V610H317.581V609.75H316.589V610H315.598V609.75H314.606V610H313.615V609.75H312.623V610H311.632V609.75H310.641V610H309.648V609.75H308.657V610H307.666V609.75H306.675V610H305.683V609.75H305.188C305.02 609.75 304.855 609.744 304.692 609.732L304.675 609.981H304.674C304.323 609.956 303.984 609.906 303.66 609.833L303.716 609.59C303.383 609.515 303.069 609.416 302.779 609.296L302.684 609.526C302.353 609.39 302.05 609.226 301.782 609.041L301.924 608.837C301.644 608.644 301.408 608.428 301.224 608.196L301.028 608.352C300.805 608.072 300.647 607.768 300.564 607.446L300.807 607.385C300.77 607.24 300.75 607.091 300.75 606.939V606.436H300.5V605.427H300.75V604.419H300.5V603.41H300.75V602.402H300.5V601.394H300.75V600.386H300.5V599.377H300.75V598.369H300.5V597.36H300.75V596.353H300.5V595.344H300.75V594.336H300.5V593.327H300.75V592.319H300.5V591.311H300.75V590.303H300.5V589.294H300.75V588.286H300.5V587.277H300.75V586.27H300.5V585.261H300.75V584.253H300.5V583.244H300.75V582.236H300.5V581.229H300.75V580.22H300.5V579.212H300.75V578.203H300.5V577.195H300.75V576.187H300.5V575.179H300.75V574.17H300.5V573.162H300.75V572.153H300.5V571.146H300.75V570.137H300.5V569.129H300.75V568.12H300.5V567.112H300.75V566.104H300.5V565.096H300.75V564.087H300.5V563.079H300.75V562.07H300.5V561.062H300.75V560.054H300.5V559.046H300.75V558.037H300.5V557.029H300.75V556.021H300.5V555.013H300.75V554.004H300.5V552.996H300.75V551.987H300.5V550.979H300.75V549.971H300.5V548.963H300.75V547.954H300.5V546.946H300.75V545.938H300.5V544.93H300.75V543.921H300.5V542.913H300.75V541.904H300.5V540.896H300.75V539.888H300.5V538.88H300.75V537.871H300.5V536.863H300.75V535.854H300.5V534.847H300.75V533.838H300.5V532.83H300.75V531.821H300.5V530.813H300.75V529.805H300.5V528.797H300.75V527.788H300.5V526.78H300.75V525.771H300.5V524.764H300.75V523.755H300.5V522.747H300.75V521.738H300.5V520.73H300.75V519.722H300.5V518.714H300.75V517.705H300.5V516.697H300.75V515.689H300.5V514.681H300.75V513.673H300.5V512.664H300.75V511.656H300.5V510.647H300.75V509.64H300.5V508.631H300.75V507.623H300.5V506.614H300.75V505.606H300.5V504.598H300.75V503.59H300.5V502.581H300.75V501.573H300.5V500.564H300.75V500.061C300.75 499.909 300.77 499.76 300.807 499.615L300.564 499.553C300.647 499.231 300.805 498.927 301.028 498.647L301.224 498.804C301.408 498.572 301.644 498.356 301.924 498.163L301.782 497.958C302.05 497.773 302.353 497.609 302.684 497.473L302.779 497.704C303.069 497.584 303.383 497.485 303.716 497.41L303.66 497.166C303.984 497.093 304.323 497.043 304.674 497.018L304.675 497.019L304.692 497.268C304.855 497.256 305.02 497.25 305.188 497.25H305.683V497H306.674Z" fill="#F8F3FC" stroke="#5C128A" stroke-width="0.5" stroke-dasharray="1 1"/>
<path d="M348.993 504.289H305.638C305.638 504.289 303.241 505.887 303.294 507.173C303.345 508.398 305.638 509.88 305.638 509.88H348.993C348.993 509.88 350.491 508.3 350.526 507.173C350.562 505.981 348.993 504.289 348.993 504.289Z" fill="#F8F3FC" stroke="#F8F3FC" stroke-width="0.5"/>
<path d="M345.117 570.391V536.668C345.117 536.668 338.577 536.248 335.022 534.961C331.467 533.674 326.91 530.076 326.91 530.076C326.91 530.076 322.749 533.674 319.158 534.961C315.568 536.248 308.522 536.668 308.522 536.668V570.391C308.522 570.391 315.418 570.743 319.158 572.098C322.837 573.431 326.91 576.983 326.91 576.983C326.91 576.983 331.467 573.385 335.022 572.098C338.577 570.811 345.117 570.391 345.117 570.391Z" fill="#F8F3FC"/>
<path d="M343.044 568.987V538.013C343.044 538.013 337.181 537.628 333.993 536.446C330.806 535.264 326.72 531.959 326.72 531.959C326.72 531.959 322.989 535.264 319.771 536.446C316.551 537.628 310.235 538.013 310.235 538.013V568.987C310.235 568.987 316.417 569.31 319.771 570.554C323.069 571.778 326.72 575.041 326.72 575.041C326.72 575.041 330.806 571.736 333.993 570.554C337.181 569.372 343.044 568.987 343.044 568.987Z" fill="#F8F3FC"/>
<path d="M344.667 514H310.235C310.235 514 311.364 518.585 315.185 520.521C318.59 522.247 322.191 523.268 327.269 523.298C332.479 523.328 336.01 522.638 339.717 520.521C343.139 518.566 344.667 514 344.667 514Z" fill="#F8F3FC" stroke="#F8F3FC"/>
<path d="M349.412 602.963H306.057C306.057 602.963 303.66 601.364 303.713 600.079C303.764 598.853 306.057 597.372 306.057 597.372H349.412C349.412 597.372 350.91 598.952 350.944 600.079C350.981 601.271 349.412 602.963 349.412 602.963Z" fill="#F8F3FC"/>
<path d="M345.086 593.252H310.654C310.654 593.252 311.783 588.667 315.604 586.73C319.009 585.005 322.609 583.983 327.687 583.954C332.898 583.923 336.429 584.614 340.135 586.73C343.558 588.685 345.086 593.252 345.086 593.252Z" fill="#F8F3FC" stroke="#F8F3FC"/>
<path d="M320.952 568.465C320.273 568.465 319.757 568.283 319.406 567.92C319.054 567.557 318.878 567.003 318.878 566.259V559.904C318.878 559.172 319.054 558.624 319.406 558.261C319.757 557.898 320.273 557.716 320.952 557.716H329.328C330.014 557.716 330.53 557.898 330.875 558.261C331.227 558.624 331.403 559.172 331.403 559.904V566.259C331.403 567.003 331.227 567.557 330.875 567.92C330.53 568.283 330.014 568.465 329.328 568.465H320.952ZM321.365 566.698H328.924C329.106 566.698 329.243 566.646 329.337 566.54C329.431 566.441 329.478 566.288 329.478 566.083V560.08C329.478 559.881 329.431 559.732 329.337 559.632C329.243 559.526 329.106 559.474 328.924 559.474H321.365C321.184 559.474 321.043 559.526 320.944 559.632C320.85 559.732 320.803 559.881 320.803 560.08V566.083C320.803 566.288 320.85 566.441 320.944 566.54C321.043 566.646 321.184 566.698 321.365 566.698ZM320.539 558.498V555.677C320.539 554.61 320.75 553.711 321.172 552.979C321.6 552.246 322.162 551.693 322.86 551.318C323.557 550.943 324.316 550.755 325.136 550.755C325.962 550.755 326.724 550.943 327.421 551.318C328.124 551.693 328.687 552.246 329.109 552.979C329.536 553.711 329.75 554.61 329.75 555.677V558.498H327.922V555.545C327.922 554.901 327.793 554.353 327.535 553.901C327.283 553.45 326.947 553.108 326.525 552.873C326.109 552.633 325.646 552.513 325.136 552.513C324.632 552.513 324.169 552.633 323.747 552.873C323.331 553.108 322.997 553.45 322.745 553.901C322.499 554.353 322.376 554.901 322.376 555.545V558.498H320.539Z" fill="#7D4CC2"/>
</g>
</g>
<rect x="0.5" y="0.5" width="429" height="931" stroke="black"/>
<defs>
<clipPath id="clip0_672_2345">
<rect width="430" height="932" fill="white"/>
</clipPath>
<clipPath id="clip1_672_2345">
<rect width="53" height="113" fill="white" transform="translate(74.5 243)"/>
</clipPath>
<clipPath id="clip2_672_2345">
<rect width="53" height="113" fill="white" transform="translate(187.5 243)"/>
</clipPath>
<clipPath id="clip3_672_2345">
<rect width="53" height="113" fill="white" transform="translate(300.5 243)"/>
</clipPath>
<clipPath id="clip4_672_2345">
<rect width="53" height="113" fill="white" transform="translate(79.5 497)"/>
</clipPath>
<clipPath id="clip5_672_2345">
<rect width="53" height="113" fill="white" transform="translate(192.5 497)"/>
</clipPath>
<clipPath id="clip6_672_2345">
<rect width="53" height="113" fill="white" transform="translate(300.5 497)"/>
</clipPath>
</defs>
</svg>
