<svg width="430" height="932" viewBox="0 0 430 932" fill="none" xmlns="http://www.w3.org/2000/svg">
<g opacity="0.8">
<rect x="126.281" width="87.362" height="50.6165" rx="11" fill="#E1C3FF" fill-opacity="0.35"/>
<rect x="126.781" y="0.5" width="86.362" height="49.6165" rx="10.5" stroke="#E1C3FF" stroke-opacity="0.35"/>
<rect x="117.717" y="119.639" width="87.362" height="50.6165" rx="11" fill="#E1C3FF" fill-opacity="0.35"/>
<rect x="118.217" y="120.139" width="86.362" height="49.6165" rx="10.5" stroke="#E1C3FF" stroke-opacity="0.35"/>
<rect x="117.717" y="239.278" width="87.362" height="50.6165" rx="11" fill="#E1C3FF" fill-opacity="0.35"/>
<rect x="118.217" y="239.778" width="86.362" height="49.6165" rx="10.5" stroke="#E1C3FF" stroke-opacity="0.35"/>
<rect x="116.003" y="358.917" width="87.362" height="50.6165" rx="11" fill="#E1C3FF" fill-opacity="0.35"/>
<rect x="116.503" y="359.417" width="86.362" height="49.6165" rx="10.5" stroke="#E1C3FF" stroke-opacity="0.35"/>
<rect x="73.179" y="59.8196" width="87.362" height="50.6165" rx="11" fill="#E1C3FF" fill-opacity="0.35"/>
<rect x="73.679" y="60.3196" width="86.362" height="49.6165" rx="10.5" stroke="#E1C3FF" stroke-opacity="0.35"/>
<rect x="64.6143" y="179.458" width="87.362" height="50.6165" rx="11" fill="#E1C3FF" fill-opacity="0.35"/>
<rect x="65.1143" y="179.958" width="86.362" height="49.6165" rx="10.5" stroke="#E1C3FF" stroke-opacity="0.35"/>
<rect x="64.6143" y="299.098" width="87.362" height="50.6165" rx="11" fill="#E1C3FF" fill-opacity="0.35"/>
<rect x="65.1143" y="299.598" width="86.362" height="49.6165" rx="10.5" stroke="#E1C3FF" stroke-opacity="0.35"/>
<rect x="59.4753" y="418.736" width="87.362" height="50.6165" rx="11" fill="#E1C3FF" fill-opacity="0.35"/>
<rect x="59.9753" y="419.236" width="86.362" height="49.6165" rx="10.5" stroke="#E1C3FF" stroke-opacity="0.35"/>
<rect x="-82.7019" width="87.362" height="50.6165" rx="11" fill="#E1C3FF" fill-opacity="0.35"/>
<rect x="-82.2019" y="0.5" width="86.362" height="49.6165" rx="10.5" stroke="#E1C3FF" stroke-opacity="0.35"/>
<rect x="230.773" width="87.362" height="50.6165" rx="11" fill="#E1C3FF" fill-opacity="0.35"/>
<rect x="231.273" y="0.5" width="86.362" height="49.6165" rx="10.5" stroke="#E1C3FF" stroke-opacity="0.35"/>
<rect x="222.208" y="119.639" width="87.362" height="50.6165" rx="11" fill="#E1C3FF" fill-opacity="0.35"/>
<rect x="222.708" y="120.139" width="86.362" height="49.6165" rx="10.5" stroke="#E1C3FF" stroke-opacity="0.35"/>
<rect x="222.208" y="239.278" width="87.362" height="50.6165" rx="11" fill="#E1C3FF" fill-opacity="0.35"/>
<rect x="222.708" y="239.778" width="86.362" height="49.6165" rx="10.5" stroke="#E1C3FF" stroke-opacity="0.35"/>
<rect x="220.495" y="358.917" width="87.362" height="50.6165" rx="11" fill="#E1C3FF" fill-opacity="0.35"/>
<rect x="220.995" y="359.417" width="86.362" height="49.6165" rx="10.5" stroke="#E1C3FF" stroke-opacity="0.35"/>
<rect x="177.671" y="59.8196" width="87.362" height="50.6165" rx="11" fill="#E1C3FF" fill-opacity="0.35"/>
<rect x="178.171" y="60.3196" width="86.362" height="49.6165" rx="10.5" stroke="#E1C3FF" stroke-opacity="0.35"/>
<rect x="169.106" y="179.458" width="87.362" height="50.6165" rx="11" fill="#E1C3FF" fill-opacity="0.35"/>
<rect x="169.606" y="179.958" width="86.362" height="49.6165" rx="10.5" stroke="#E1C3FF" stroke-opacity="0.35"/>
<rect x="169.106" y="299.098" width="87.362" height="50.6165" rx="11" fill="#E1C3FF" fill-opacity="0.35"/>
<rect x="169.606" y="299.598" width="86.362" height="49.6165" rx="10.5" stroke="#E1C3FF" stroke-opacity="0.35"/>
<rect x="163.967" y="418.736" width="87.362" height="50.6165" rx="11" fill="#E1C3FF" fill-opacity="0.35"/>
<rect x="164.467" y="419.236" width="86.362" height="49.6165" rx="10.5" stroke="#E1C3FF" stroke-opacity="0.35"/>
<rect x="429.479" y="358.917" width="87.362" height="50.6165" rx="11" fill="#E1C3FF" fill-opacity="0.35"/>
<rect x="429.979" y="359.417" width="86.362" height="49.6165" rx="10.5" stroke="#E1C3FF" stroke-opacity="0.35"/>
<rect x="386.654" y="59.8196" width="87.362" height="50.6165" rx="11" fill="#E1C3FF" fill-opacity="0.35"/>
<rect x="387.154" y="60.3196" width="86.362" height="49.6165" rx="10.5" stroke="#E1C3FF" stroke-opacity="0.35"/>
<rect x="378.09" y="179.458" width="87.362" height="50.6165" rx="11" fill="#E1C3FF" fill-opacity="0.35"/>
<rect x="378.59" y="179.958" width="86.362" height="49.6165" rx="10.5" stroke="#E1C3FF" stroke-opacity="0.35"/>
<rect x="369.524" y="299.098" width="87.362" height="50.6165" rx="11" fill="#E1C3FF" fill-opacity="0.35"/>
<rect x="370.024" y="299.598" width="86.362" height="49.6165" rx="10.5" stroke="#E1C3FF" stroke-opacity="0.35"/>
<rect x="364.385" y="418.736" width="87.362" height="50.6165" rx="11" fill="#E1C3FF" fill-opacity="0.35"/>
<rect x="364.885" y="419.236" width="86.362" height="49.6165" rx="10.5" stroke="#E1C3FF" stroke-opacity="0.35"/>
<rect x="21.7898" width="87.362" height="50.6165" rx="11" fill="#E1C3FF" fill-opacity="0.35"/>
<rect x="22.2898" y="0.5" width="86.362" height="49.6165" rx="10.5" stroke="#E1C3FF" stroke-opacity="0.35"/>
<rect x="13.2249" y="119.639" width="87.362" height="50.6165" rx="11" fill="#E1C3FF" fill-opacity="0.35"/>
<rect x="13.7249" y="120.139" width="86.362" height="49.6165" rx="10.5" stroke="#E1C3FF" stroke-opacity="0.35"/>
<rect x="13.2249" y="239.278" width="87.362" height="50.6165" rx="11" fill="#E1C3FF" fill-opacity="0.35"/>
<rect x="13.7249" y="239.778" width="86.362" height="49.6165" rx="10.5" stroke="#E1C3FF" stroke-opacity="0.35"/>
<rect x="11.5117" y="358.917" width="87.362" height="50.6165" rx="11" fill="#E1C3FF" fill-opacity="0.35"/>
<rect x="12.0117" y="359.417" width="86.362" height="49.6165" rx="10.5" stroke="#E1C3FF" stroke-opacity="0.35"/>
<rect x="-31.3127" y="59.8196" width="87.362" height="50.6165" rx="11" fill="#E1C3FF" fill-opacity="0.35"/>
<rect x="-30.8127" y="60.3196" width="86.362" height="49.6165" rx="10.5" stroke="#E1C3FF" stroke-opacity="0.35"/>
<rect x="-39.8774" y="179.458" width="87.362" height="50.6165" rx="11" fill="#E1C3FF" fill-opacity="0.35"/>
<rect x="-39.3774" y="179.958" width="86.362" height="49.6165" rx="10.5" stroke="#E1C3FF" stroke-opacity="0.35"/>
<rect x="-39.8774" y="299.098" width="87.362" height="50.6165" rx="11" fill="#E1C3FF" fill-opacity="0.35"/>
<rect x="-39.3774" y="299.598" width="86.362" height="49.6165" rx="10.5" stroke="#E1C3FF" stroke-opacity="0.35"/>
<rect x="-45.0164" y="418.736" width="87.362" height="50.6165" rx="11" fill="#E1C3FF" fill-opacity="0.35"/>
<rect x="-44.5164" y="419.236" width="86.362" height="49.6165" rx="10.5" stroke="#E1C3FF" stroke-opacity="0.35"/>
<rect x="335.265" width="87.362" height="50.6165" rx="11" fill="#E1C3FF" fill-opacity="0.35"/>
<rect x="335.765" y="0.5" width="86.362" height="49.6165" rx="10.5" stroke="#E1C3FF" stroke-opacity="0.35"/>
<rect x="326.7" y="119.639" width="87.362" height="50.6165" rx="11" fill="#E1C3FF" fill-opacity="0.35"/>
<rect x="327.2" y="120.139" width="86.362" height="49.6165" rx="10.5" stroke="#E1C3FF" stroke-opacity="0.35"/>
<rect x="326.7" y="239.278" width="87.362" height="50.6165" rx="11" fill="#E1C3FF" fill-opacity="0.35"/>
<rect x="327.2" y="239.778" width="86.362" height="49.6165" rx="10.5" stroke="#E1C3FF" stroke-opacity="0.35"/>
<rect x="324.987" y="358.917" width="87.362" height="50.6165" rx="11" fill="#E1C3FF" fill-opacity="0.35"/>
<rect x="325.487" y="359.417" width="86.362" height="49.6165" rx="10.5" stroke="#E1C3FF" stroke-opacity="0.35"/>
<rect x="282.163" y="59.8196" width="87.362" height="50.6165" rx="11" fill="#E1C3FF" fill-opacity="0.35"/>
<rect x="282.663" y="60.3196" width="86.362" height="49.6165" rx="10.5" stroke="#E1C3FF" stroke-opacity="0.35"/>
<rect x="273.598" y="179.458" width="87.362" height="50.6165" rx="11" fill="#E1C3FF" fill-opacity="0.35"/>
<rect x="274.098" y="179.958" width="86.362" height="49.6165" rx="10.5" stroke="#E1C3FF" stroke-opacity="0.35"/>
<rect x="265.033" y="299.098" width="87.362" height="50.6165" rx="11" fill="#E1C3FF" fill-opacity="0.35"/>
<rect x="265.533" y="299.598" width="86.362" height="49.6165" rx="10.5" stroke="#E1C3FF" stroke-opacity="0.35"/>
<rect x="259.894" y="418.736" width="87.362" height="50.6165" rx="11" fill="#E1C3FF" fill-opacity="0.35"/>
<rect x="260.394" y="419.236" width="86.362" height="49.6165" rx="10.5" stroke="#E1C3FF" stroke-opacity="0.35"/>
<rect x="126.281" y="477.353" width="87.362" height="50.6165" rx="11" fill="#E1C3FF" fill-opacity="0.35"/>
<rect x="126.781" y="477.853" width="86.362" height="49.6165" rx="10.5" stroke="#E1C3FF" stroke-opacity="0.35"/>
<rect x="117.717" y="596.992" width="87.362" height="50.6165" rx="11" fill="#E1C3FF" fill-opacity="0.35"/>
<rect x="118.217" y="597.492" width="86.362" height="49.6165" rx="10.5" stroke="#E1C3FF" stroke-opacity="0.35"/>
<rect x="117.717" y="716.631" width="87.362" height="50.6165" rx="11" fill="#E1C3FF" fill-opacity="0.35"/>
<rect x="118.217" y="717.131" width="86.362" height="49.6165" rx="10.5" stroke="#E1C3FF" stroke-opacity="0.35"/>
<rect x="116.003" y="836.27" width="87.362" height="50.6165" rx="11" fill="#E1C3FF" fill-opacity="0.35"/>
<rect x="116.503" y="836.77" width="86.362" height="49.6165" rx="10.5" stroke="#E1C3FF" stroke-opacity="0.35"/>
<rect x="73.179" y="537.173" width="87.362" height="50.6165" rx="11" fill="#E1C3FF" fill-opacity="0.35"/>
<rect x="73.679" y="537.673" width="86.362" height="49.6165" rx="10.5" stroke="#E1C3FF" stroke-opacity="0.35"/>
<rect x="64.6143" y="656.811" width="87.362" height="50.6165" rx="11" fill="#E1C3FF" fill-opacity="0.35"/>
<rect x="65.1143" y="657.311" width="86.362" height="49.6165" rx="10.5" stroke="#E1C3FF" stroke-opacity="0.35"/>
<rect x="64.6143" y="776.451" width="87.362" height="50.6165" rx="11" fill="#E1C3FF" fill-opacity="0.35"/>
<rect x="65.1143" y="776.951" width="86.362" height="49.6165" rx="10.5" stroke="#E1C3FF" stroke-opacity="0.35"/>
<rect x="59.4753" y="896.09" width="87.362" height="50.6165" rx="11" fill="#E1C3FF" fill-opacity="0.35"/>
<rect x="59.9753" y="896.59" width="86.362" height="49.6165" rx="10.5" stroke="#E1C3FF" stroke-opacity="0.35"/>
<rect x="-82.7019" y="477.353" width="87.362" height="50.6165" rx="11" fill="#E1C3FF" fill-opacity="0.35"/>
<rect x="-82.2019" y="477.853" width="86.362" height="49.6165" rx="10.5" stroke="#E1C3FF" stroke-opacity="0.35"/>
<rect x="230.773" y="477.353" width="87.362" height="50.6165" rx="11" fill="#E1C3FF" fill-opacity="0.35"/>
<rect x="231.273" y="477.853" width="86.362" height="49.6165" rx="10.5" stroke="#E1C3FF" stroke-opacity="0.35"/>
<rect x="222.208" y="596.992" width="87.362" height="50.6165" rx="11" fill="#E1C3FF" fill-opacity="0.35"/>
<rect x="222.708" y="597.492" width="86.362" height="49.6165" rx="10.5" stroke="#E1C3FF" stroke-opacity="0.35"/>
<rect x="222.208" y="716.631" width="87.362" height="50.6165" rx="11" fill="#E1C3FF" fill-opacity="0.35"/>
<rect x="222.708" y="717.131" width="86.362" height="49.6165" rx="10.5" stroke="#E1C3FF" stroke-opacity="0.35"/>
<rect x="220.495" y="836.27" width="87.362" height="50.6165" rx="11" fill="#E1C3FF" fill-opacity="0.35"/>
<rect x="220.995" y="836.77" width="86.362" height="49.6165" rx="10.5" stroke="#E1C3FF" stroke-opacity="0.35"/>
<rect x="177.671" y="537.173" width="87.362" height="50.6165" rx="11" fill="#E1C3FF" fill-opacity="0.35"/>
<rect x="178.171" y="537.673" width="86.362" height="49.6165" rx="10.5" stroke="#E1C3FF" stroke-opacity="0.35"/>
<rect x="169.106" y="656.811" width="87.362" height="50.6165" rx="11" fill="#E1C3FF" fill-opacity="0.35"/>
<rect x="169.606" y="657.311" width="86.362" height="49.6165" rx="10.5" stroke="#E1C3FF" stroke-opacity="0.35"/>
<rect x="169.106" y="776.451" width="87.362" height="50.6165" rx="11" fill="#E1C3FF" fill-opacity="0.35"/>
<rect x="169.606" y="776.951" width="86.362" height="49.6165" rx="10.5" stroke="#E1C3FF" stroke-opacity="0.35"/>
<rect x="163.967" y="896.09" width="87.362" height="50.6165" rx="11" fill="#E1C3FF" fill-opacity="0.35"/>
<rect x="164.467" y="896.59" width="86.362" height="49.6165" rx="10.5" stroke="#E1C3FF" stroke-opacity="0.35"/>
<rect x="429.479" y="836.27" width="87.362" height="50.6165" rx="11" fill="#E1C3FF" fill-opacity="0.35"/>
<rect x="429.979" y="836.77" width="86.362" height="49.6165" rx="10.5" stroke="#E1C3FF" stroke-opacity="0.35"/>
<rect x="386.654" y="537.173" width="87.362" height="50.6165" rx="11" fill="#E1C3FF" fill-opacity="0.35"/>
<rect x="387.154" y="537.673" width="86.362" height="49.6165" rx="10.5" stroke="#E1C3FF" stroke-opacity="0.35"/>
<rect x="378.09" y="656.811" width="87.362" height="50.6165" rx="11" fill="#E1C3FF" fill-opacity="0.35"/>
<rect x="378.59" y="657.311" width="86.362" height="49.6165" rx="10.5" stroke="#E1C3FF" stroke-opacity="0.35"/>
<rect x="369.524" y="776.451" width="87.362" height="50.6165" rx="11" fill="#E1C3FF" fill-opacity="0.35"/>
<rect x="370.024" y="776.951" width="86.362" height="49.6165" rx="10.5" stroke="#E1C3FF" stroke-opacity="0.35"/>
<rect x="364.385" y="896.09" width="87.362" height="50.6165" rx="11" fill="#E1C3FF" fill-opacity="0.35"/>
<rect x="364.885" y="896.59" width="86.362" height="49.6165" rx="10.5" stroke="#E1C3FF" stroke-opacity="0.35"/>
<rect x="21.7898" y="477.353" width="87.362" height="50.6165" rx="11" fill="#E1C3FF" fill-opacity="0.35"/>
<rect x="22.2898" y="477.853" width="86.362" height="49.6165" rx="10.5" stroke="#E1C3FF" stroke-opacity="0.35"/>
<rect x="13.2249" y="596.992" width="87.362" height="50.6165" rx="11" fill="#E1C3FF" fill-opacity="0.35"/>
<rect x="13.7249" y="597.492" width="86.362" height="49.6165" rx="10.5" stroke="#E1C3FF" stroke-opacity="0.35"/>
<rect x="13.2249" y="716.631" width="87.362" height="50.6165" rx="11" fill="#E1C3FF" fill-opacity="0.35"/>
<rect x="13.7249" y="717.131" width="86.362" height="49.6165" rx="10.5" stroke="#E1C3FF" stroke-opacity="0.35"/>
<rect x="11.5117" y="836.27" width="87.362" height="50.6165" rx="11" fill="#E1C3FF" fill-opacity="0.35"/>
<rect x="12.0117" y="836.77" width="86.362" height="49.6165" rx="10.5" stroke="#E1C3FF" stroke-opacity="0.35"/>
<rect x="-31.3127" y="537.173" width="87.362" height="50.6165" rx="11" fill="#E1C3FF" fill-opacity="0.35"/>
<rect x="-30.8127" y="537.673" width="86.362" height="49.6165" rx="10.5" stroke="#E1C3FF" stroke-opacity="0.35"/>
<rect x="-39.8774" y="656.811" width="87.362" height="50.6165" rx="11" fill="#E1C3FF" fill-opacity="0.35"/>
<rect x="-39.3774" y="657.311" width="86.362" height="49.6165" rx="10.5" stroke="#E1C3FF" stroke-opacity="0.35"/>
<rect x="-39.8774" y="776.451" width="87.362" height="50.6165" rx="11" fill="#E1C3FF" fill-opacity="0.35"/>
<rect x="-39.3774" y="776.951" width="86.362" height="49.6165" rx="10.5" stroke="#E1C3FF" stroke-opacity="0.35"/>
<rect x="-45.0164" y="896.09" width="87.362" height="50.6165" rx="11" fill="#E1C3FF" fill-opacity="0.35"/>
<rect x="-44.5164" y="896.59" width="86.362" height="49.6165" rx="10.5" stroke="#E1C3FF" stroke-opacity="0.35"/>
<rect x="335.265" y="477.353" width="87.362" height="50.6165" rx="11" fill="#E1C3FF" fill-opacity="0.35"/>
<rect x="335.765" y="477.853" width="86.362" height="49.6165" rx="10.5" stroke="#E1C3FF" stroke-opacity="0.35"/>
<rect x="326.7" y="596.992" width="87.362" height="50.6165" rx="11" fill="#E1C3FF" fill-opacity="0.35"/>
<rect x="327.2" y="597.492" width="86.362" height="49.6165" rx="10.5" stroke="#E1C3FF" stroke-opacity="0.35"/>
<rect x="326.7" y="716.631" width="87.362" height="50.6165" rx="11" fill="#E1C3FF" fill-opacity="0.35"/>
<rect x="327.2" y="717.131" width="86.362" height="49.6165" rx="10.5" stroke="#E1C3FF" stroke-opacity="0.35"/>
<rect x="324.987" y="836.27" width="87.362" height="50.6165" rx="11" fill="#E1C3FF" fill-opacity="0.35"/>
<rect x="325.487" y="836.77" width="86.362" height="49.6165" rx="10.5" stroke="#E1C3FF" stroke-opacity="0.35"/>
<rect x="282.163" y="537.173" width="87.362" height="50.6165" rx="11" fill="#E1C3FF" fill-opacity="0.35"/>
<rect x="282.663" y="537.673" width="86.362" height="49.6165" rx="10.5" stroke="#E1C3FF" stroke-opacity="0.35"/>
<rect x="273.598" y="656.811" width="87.362" height="50.6165" rx="11" fill="#E1C3FF" fill-opacity="0.35"/>
<rect x="274.098" y="657.311" width="86.362" height="49.6165" rx="10.5" stroke="#E1C3FF" stroke-opacity="0.35"/>
<rect x="265.033" y="776.451" width="87.362" height="50.6165" rx="11" fill="#E1C3FF" fill-opacity="0.35"/>
<rect x="265.533" y="776.951" width="86.362" height="49.6165" rx="10.5" stroke="#E1C3FF" stroke-opacity="0.35"/>
<rect x="259.894" y="896.09" width="87.362" height="50.6165" rx="11" fill="#E1C3FF" fill-opacity="0.35"/>
<rect x="260.394" y="896.59" width="86.362" height="49.6165" rx="10.5" stroke="#E1C3FF" stroke-opacity="0.35"/>
</g>
</svg>
